<svg width="110" height="110" viewBox="0 0 110 110" fill="none" xmlns="http://www.w3.org/2000/svg">
<path d="M26.125 84.2188H6.875C5.96332 84.2188 5.08898 83.8566 4.44432 83.2119C3.79966 82.5673 3.4375 81.6929 3.4375 80.7812V18.9062C3.4375 17.9946 3.79966 17.1202 4.44432 16.4756C5.08898 15.8309 5.96332 15.4687 6.875 15.4688H96.25C97.1617 15.4688 98.036 15.8309 98.6807 16.4756C99.3253 17.1202 99.6875 17.9946 99.6875 18.9062V61.0414L26.125 84.2188Z" fill="#D3E0E0"/>
<path d="M39.9609 79.0625H42.4909L99.6875 61.0414V18.9062C99.6875 17.9946 99.3253 17.1202 98.6807 16.4756C98.036 15.8309 97.1617 15.4688 96.25 15.4688H17.2064C15.378 15.4688 13.6245 16.1951 12.3317 17.4879C11.0388 18.7808 10.3125 20.5343 10.3125 22.3627V49.4141C10.3125 57.2773 13.4362 64.8185 18.9963 70.3787C24.5565 75.9388 32.0977 79.0625 39.9609 79.0625Z" fill="#DEEBEB"/>
<path d="M8.59375 55H25.7812V58.4375H8.59375V55Z" fill="#6F7676"/>
<path d="M8.59375 61.875H28.3834V65.3125H8.59375V61.875Z" fill="#6F7676"/>
<path d="M8.59375 68.75H24.7741V72.1875H8.59375V68.75Z" fill="#6F7676"/>
<path d="M8.59375 75.625H24.1398V79.0625H8.59375V75.625Z" fill="#6F7676"/>
<path opacity="0.1" d="M56.6679 74.5938C56.518 71.7819 55.7414 69.0391 54.3951 66.5659C53.0487 64.0928 51.1666 61.9518 48.8864 60.2997C46.6062 58.6475 43.9855 57.5259 41.216 57.0169C38.4466 56.5078 35.5983 56.6242 32.8796 57.3576C30.161 58.091 27.6406 59.4227 25.5028 61.2555C23.365 63.0883 21.6639 65.3757 20.5239 67.9504C19.3839 70.5252 18.8338 73.3222 18.9139 76.137C18.9939 78.9517 19.7021 81.7129 20.9866 84.2187H26.1257L56.6679 74.5938Z" fill="black"/>
<path d="M42.9688 94.5312C53.4104 94.5312 61.875 86.0666 61.875 75.625C61.875 65.1834 53.4104 56.7188 42.9688 56.7188C32.5271 56.7188 24.0625 65.1834 24.0625 75.625C24.0625 86.0666 32.5271 94.5312 42.9688 94.5312Z" fill="#FFD55D"/>
<path d="M55.8594 90.2344C55.3419 90.2327 54.8368 90.0754 54.41 89.7828C53.9831 89.4902 53.6542 89.0759 53.466 88.5938C53.2778 88.1117 53.2391 87.5842 53.3548 87.0798C53.4705 86.5754 53.7353 86.1175 54.1148 85.7656C56.9542 83.1531 56.7188 79.4595 56.7188 75.625C56.7147 71.9795 55.2647 68.4845 52.6869 65.9068C50.1092 63.3291 46.6142 61.8791 42.9688 61.875C42.285 61.875 41.6292 61.6034 41.1457 61.1199C40.6622 60.6364 40.3906 59.9806 40.3906 59.2969C40.3906 58.6131 40.6622 57.9574 41.1457 57.4739C41.6292 56.9904 42.285 56.7188 42.9688 56.7188C47.9812 56.7247 52.7866 58.7185 56.331 62.2628C59.8753 65.8071 61.8691 70.6126 61.875 75.625C61.875 80.9016 61.502 85.9787 57.6022 89.5572C57.127 89.9939 56.5048 90.2357 55.8594 90.2344Z" fill="#FFE69E"/>
<path d="M42.9688 89.375C50.5627 89.375 56.7188 83.2189 56.7188 75.625C56.7188 68.0311 50.5627 61.875 42.9688 61.875C35.3748 61.875 29.2188 68.0311 29.2188 75.625C29.2188 83.2189 35.3748 89.375 42.9688 89.375Z" fill="#F4AC1C"/>
<path d="M55.7141 70.4928L47.8079 69.3722L44.0455 61.93C43.6932 61.9025 43.334 61.875 42.9679 61.875C42.6018 61.875 42.2426 61.9025 41.8834 61.93L38.121 69.3722L30.2148 70.4928C29.8751 71.3332 29.6206 72.2055 29.4551 73.0967L35.0926 78.4627L33.7966 85.8533C34.5176 86.5028 35.3051 87.0743 36.1462 87.5583L42.9679 84.0469L49.7827 87.5463C50.6238 87.0622 51.4113 86.4907 52.1323 85.8413L50.8363 78.4506L56.4738 73.0847C56.3076 72.1976 56.0531 71.3293 55.7141 70.4928Z" fill="#F49E06"/>
<path d="M42.9687 61.8752C42.3939 61.879 41.8199 61.9186 41.25 61.9938C44.5718 62.41 47.6273 64.0248 49.8425 66.5349C52.0577 69.0449 53.2802 72.2775 53.2802 75.6252C53.2802 78.973 52.0577 82.2056 49.8425 84.7156C47.6273 87.2257 44.5718 88.8405 41.25 89.2566C43.1189 89.5034 45.0185 89.3633 46.8309 88.845C48.6434 88.3267 50.3299 87.4412 51.7856 86.2436C53.2414 85.046 54.4354 83.5618 55.2934 81.8833C56.1514 80.2048 56.6551 78.3678 56.7732 76.4864C56.8913 74.605 56.6213 72.7194 55.9799 70.9468C55.3385 69.1742 54.3395 67.5524 53.0449 66.1821C51.7503 64.8119 50.1878 63.7225 48.4544 62.9815C46.721 62.2406 44.8538 61.8641 42.9687 61.8752Z" fill="#F49E06"/>
<path d="M42.9688 82.1202L50.4041 85.9375L48.9844 77.8542L55 72.1291L46.6864 70.9483L42.9688 63.5938L39.2511 70.9483L30.9375 72.1291L36.9531 77.8542L35.5334 85.9375L42.9688 82.1202Z" fill="#FFD55D"/>
<path opacity="0.1" d="M42.9688 75.6251C42.9665 78.8891 43.6811 82.1138 45.0621 85.0712C46.4431 88.0287 48.4568 90.6468 50.9609 92.7404C54.2215 91.2234 56.9808 88.8067 58.9143 85.7746C60.8478 82.7425 61.875 79.2212 61.875 75.6251C61.875 72.029 60.8478 68.5077 58.9143 65.4756C56.9808 62.4435 54.2215 60.0267 50.9609 58.5098C48.4568 60.6034 46.4431 63.2214 45.0621 66.1789C43.6811 69.1364 42.9665 72.3611 42.9688 75.6251Z" fill="black"/>
<path d="M65.3125 94.5312C75.7541 94.5312 84.2188 86.0666 84.2188 75.625C84.2188 65.1834 75.7541 56.7188 65.3125 56.7188C54.8709 56.7188 46.4062 65.1834 46.4062 75.625C46.4062 86.0666 54.8709 94.5312 65.3125 94.5312Z" fill="#FFD55D"/>
<path d="M77.3197 90.0625C76.8001 90.0627 76.2925 89.906 75.8636 89.6127C75.4346 89.3195 75.1042 88.9035 74.9158 88.4193C74.7274 87.935 74.6897 87.4051 74.8077 86.8991C74.9256 86.393 75.1937 85.9344 75.5769 85.5834C78.4145 82.9709 79.0625 79.4595 79.0625 75.625C79.0584 71.9795 77.6084 68.4845 75.0307 65.9068C72.453 63.3291 68.958 61.8791 65.3125 61.875C64.6287 61.875 63.973 61.6034 63.4895 61.1199C63.006 60.6364 62.7344 59.9806 62.7344 59.2969C62.7344 58.6131 63.006 57.9574 63.4895 57.4739C63.973 56.9904 64.6287 56.7188 65.3125 56.7188C70.3249 56.7247 75.1304 58.7185 78.6747 62.2628C82.219 65.8071 84.2128 70.6126 84.2188 75.625C84.2187 80.9016 82.9623 85.7966 79.0625 89.375C78.5883 89.8146 77.9663 90.06 77.3197 90.0625Z" fill="#FFE69E"/>
<path d="M65.3125 89.375C72.9064 89.375 79.0625 83.2189 79.0625 75.625C79.0625 68.0311 72.9064 61.875 65.3125 61.875C57.7186 61.875 51.5625 68.0311 51.5625 75.625C51.5625 83.2189 57.7186 89.375 65.3125 89.375Z" fill="#F4AC1C"/>
<path d="M78.0579 70.4928L70.1516 69.3722L66.3893 61.93C66.037 61.9025 65.6777 61.875 65.3116 61.875C64.9455 61.875 64.5863 61.9025 64.2271 61.93L60.4648 69.3722L52.5585 70.4928C52.2188 71.3332 51.9643 72.2055 51.7988 73.0967L57.4363 78.4627L56.1404 85.8533C56.8613 86.5028 57.6489 87.0743 58.4899 87.5583L65.3116 84.0469L72.1265 87.5463C72.9675 87.0622 73.7551 86.4907 74.476 85.8413L73.1801 78.4506L78.8176 73.0847C78.6513 72.1976 78.3968 71.3293 78.0579 70.4928Z" fill="#F49E06"/>
<path d="M65.3125 61.8752C64.7377 61.879 64.1636 61.9186 63.5938 61.9938C66.9155 62.41 69.9711 64.0248 72.1863 66.5349C74.4015 69.0449 75.6239 72.2775 75.6239 75.6252C75.6239 78.973 74.4015 82.2056 72.1863 84.7156C69.9711 87.2257 66.9155 88.8405 63.5938 89.2566C65.4626 89.5034 67.3623 89.3633 69.1747 88.845C70.9871 88.3267 72.6736 87.4412 74.1294 86.2436C75.5852 85.046 76.7791 83.5618 77.6371 81.8833C78.4951 80.2048 78.9988 78.3678 79.1169 76.4864C79.235 74.605 78.965 72.7194 78.3236 70.9468C77.6823 69.1742 76.6833 67.5524 75.3887 66.1821C74.0941 64.8119 72.5315 63.7225 70.7982 62.9815C69.0648 62.2406 67.1976 61.8641 65.3125 61.8752Z" fill="#F49E06"/>
<path d="M65.3125 82.1202L72.7478 85.9375L71.3281 77.8542L77.3438 72.1291L69.0302 70.9483L65.3125 63.5938L61.5948 70.9483L53.2812 72.1291L59.2969 77.8542L57.8772 85.9375L65.3125 82.1202Z" fill="#FFD55D"/>
<path d="M80.7812 22.3438H42.9688C41.0703 22.3438 39.5312 23.8828 39.5312 25.7812C39.5312 27.6797 41.0703 29.2188 42.9688 29.2188H80.7812C82.6797 29.2188 84.2188 27.6797 84.2188 25.7812C84.2188 23.8828 82.6797 22.3438 80.7812 22.3438Z" fill="#2E7DEF"/>
<path d="M48.125 34.375H72.1875V37.8125H48.125V34.375Z" fill="#6F7676"/>
<path d="M39.5312 41.25H53.2812V44.6875H39.5312V41.25Z" fill="#6F7676"/>
<path d="M75.625 34.375H91.0938V37.8125H75.625V34.375Z" fill="#6F7676"/>
<path d="M56.7188 41.25H91.0938V44.6875H56.7188V41.25Z" fill="#6F7676"/>
<path d="M32.6562 48.125H63.5938V51.5625H32.6562V48.125Z" fill="#6F7676"/>
<path d="M67.0312 48.125H91.0938V51.5625H67.0312V48.125Z" fill="#6F7676"/>
<path d="M22.3438 46.4062C28.9884 46.4062 34.375 41.0197 34.375 34.375C34.375 27.7303 28.9884 22.3438 22.3438 22.3438C15.6991 22.3438 10.3125 27.7303 10.3125 34.375C10.3125 41.0197 15.6991 46.4062 22.3438 46.4062Z" fill="#2E7DEF"/>
<path d="M14.3164 43.3348C14.7383 42.2352 15.3812 41.2338 16.2054 40.3924C17.0296 39.5511 18.0176 38.8877 19.1083 38.4432L25.5347 38.4243C26.6358 38.8656 27.6339 39.5295 28.4664 40.3745C29.299 41.2195 29.9481 42.2273 30.373 43.3348L22.3447 46.4062L14.3164 43.3348Z" fill="#EDF4F4"/>
<path opacity="0.1" d="M65.3125 75.6251C65.3102 78.8891 66.0248 82.1138 67.4058 85.0712C68.7869 88.0287 70.8006 90.6468 73.3047 92.7404C76.5652 91.2234 79.3246 88.8067 81.2581 85.7746C83.1916 82.7425 84.2188 79.2212 84.2188 75.6251C84.2188 72.029 83.1916 68.5077 81.2581 65.4756C79.3246 62.4435 76.5652 60.0267 73.3047 58.5098C70.8006 60.6034 68.7869 63.2214 67.4058 66.1789C66.0248 69.1364 65.3102 72.3611 65.3125 75.6251Z" fill="black"/>
<path d="M87.6562 94.5312C98.0979 94.5312 106.562 86.0666 106.562 75.625C106.562 65.1834 98.0979 56.7188 87.6562 56.7188C77.2146 56.7188 68.75 65.1834 68.75 75.625C68.75 86.0666 77.2146 94.5312 87.6562 94.5312Z" fill="#FFD55D"/>
<path d="M98.6855 90.2344C98.1677 90.2334 97.6622 90.0765 97.2348 89.7842C96.8074 89.4919 96.4779 89.0776 96.2893 88.5954C96.1007 88.1132 96.0616 87.5853 96.1772 87.0806C96.2929 86.5759 96.5578 86.1177 96.9375 85.7656C98.9808 83.8945 100.411 81.4498 101.041 78.7518C101.671 76.0538 101.472 73.2284 100.468 70.6458C99.465 68.0633 97.7049 65.844 95.4187 64.279C93.1325 62.7139 90.4268 61.876 87.6562 61.875C86.9725 61.875 86.3167 61.6034 85.8332 61.1199C85.3497 60.6364 85.0781 59.9806 85.0781 59.2969C85.0781 58.6131 85.3497 57.9574 85.8332 57.4739C86.3167 56.9904 86.9725 56.7188 87.6562 56.7188C91.4641 56.7208 95.1826 57.8726 98.3249 60.0234C101.467 62.1742 103.887 65.2236 105.267 68.7726C106.647 72.3215 106.923 76.2045 106.06 79.9131C105.196 83.6217 103.233 86.9831 100.427 89.5572C99.9518 89.9935 99.3303 90.2353 98.6855 90.2344Z" fill="#FFE69E"/>
<path d="M87.6562 89.375C95.2502 89.375 101.406 83.2189 101.406 75.625C101.406 68.0311 95.2502 61.875 87.6562 61.875C80.0623 61.875 73.9062 68.0311 73.9062 75.625C73.9062 83.2189 80.0623 89.375 87.6562 89.375Z" fill="#F4AC1C"/>
<path d="M100.402 70.4928L92.4954 69.3722L88.733 61.93C88.3807 61.9025 88.0215 61.875 87.6554 61.875C87.2893 61.875 86.9301 61.9025 86.5709 61.93L82.8085 69.3722L74.9023 70.4928C74.5626 71.3332 74.3081 72.2055 74.1426 73.0967L79.7801 78.4627L78.4841 85.8533C79.2051 86.5028 79.9926 87.0743 80.8337 87.5583L87.6554 84.0469L94.4702 87.5463C95.3113 87.0622 96.0988 86.4907 96.8198 85.8413L95.5238 78.4506L101.161 73.0847C100.995 72.1976 100.741 71.3293 100.402 70.4928Z" fill="#F49E06"/>
<path d="M87.6562 61.8752C87.0814 61.879 86.5074 61.9186 85.9375 61.9938C89.2593 62.41 92.3148 64.0248 94.53 66.5349C96.7452 69.0449 97.9677 72.2775 97.9677 75.6252C97.9677 78.973 96.7452 82.2056 94.53 84.7156C92.3148 87.2257 89.2593 88.8405 85.9375 89.2566C87.8064 89.5034 89.706 89.3633 91.5184 88.845C93.3309 88.3267 95.0174 87.4412 96.4731 86.2436C97.9289 85.046 99.1229 83.5618 99.9809 81.8833C100.839 80.2048 101.343 78.3678 101.461 76.4864C101.579 74.605 101.309 72.7194 100.667 70.9468C100.026 69.1742 99.027 67.5524 97.7324 66.1821C96.4378 64.8119 94.8753 63.7225 93.1419 62.9815C91.4085 62.2406 89.5413 61.8641 87.6562 61.8752Z" fill="#F49E06"/>
<path d="M87.6562 82.1202L95.0916 85.9375L93.6719 77.8542L99.6875 72.1291L91.3739 70.9483L87.6562 63.5938L83.9386 70.9483L75.625 72.1291L81.6406 77.8542L80.2209 85.9375L87.6562 82.1202Z" fill="#FFD55D"/>
<path d="M80.7817 22.3438H42.9692C42.3682 22.3454 41.7783 22.5051 41.2585 22.8068C40.7387 23.1085 40.3074 23.5415 40.0078 24.0625C40.3074 24.5835 40.7387 25.0165 41.2585 25.3182C41.7783 25.6199 42.3682 25.7796 42.9692 25.7812H80.7817C81.3827 25.7796 81.9727 25.6199 82.4924 25.3182C83.0122 25.0165 83.4435 24.5835 83.7431 24.0625C83.4435 23.5415 83.0122 23.1085 82.4924 22.8068C81.9727 22.5051 81.3827 22.3454 80.7817 22.3438Z" fill="#5897F2"/>
<path d="M22.3438 48.125C19.6243 48.125 16.9658 47.3186 14.7047 45.8077C12.4435 44.2968 10.6811 42.1494 9.64041 39.6369C8.59971 37.1244 8.32741 34.3598 8.85796 31.6925C9.38851 29.0253 10.6981 26.5753 12.621 24.6523C14.544 22.7293 16.994 21.4198 19.6613 20.8892C22.3285 20.3587 25.0932 20.631 27.6057 21.6717C30.1181 22.7124 32.2656 24.4747 33.7765 26.7359C35.2873 28.9971 36.0938 31.6555 36.0938 34.375C36.0897 38.0205 34.6397 41.5155 32.062 44.0932C29.4842 46.6709 25.9892 48.1209 22.3438 48.125ZM22.3438 24.0625C20.3041 24.0625 18.3103 24.6673 16.6144 25.8005C14.9186 26.9336 13.5968 28.5442 12.8162 30.4286C12.0357 32.3129 11.8315 34.3864 12.2294 36.3869C12.6273 38.3873 13.6095 40.2248 15.0517 41.667C16.4939 43.1093 18.3315 44.0914 20.3319 44.4894C22.3323 44.8873 24.4058 44.683 26.2902 43.9025C28.1745 43.122 29.7851 41.8002 30.9183 40.1043C32.0514 38.4084 32.6563 36.4146 32.6563 34.375C32.6535 31.6408 31.5662 29.0194 29.6328 27.086C27.6994 25.1526 25.078 24.0652 22.3438 24.0625Z" fill="#5897F2"/>
<path d="M22.3438 39.5312C25.1915 39.5312 27.5 37.2227 27.5 34.375C27.5 31.5273 25.1915 29.2188 22.3438 29.2188C19.496 29.2188 17.1875 31.5273 17.1875 34.375C17.1875 37.2227 19.496 39.5312 22.3438 39.5312Z" fill="#DEEBEB"/>
<path d="M99.6875 22.2129C99.6875 20.3144 98.1485 18.7754 96.25 18.7754C94.3515 18.7754 92.8125 20.3144 92.8125 22.2129V35.9629C92.8125 37.8614 94.3515 39.4004 96.25 39.4004C98.1485 39.4004 99.6875 37.8614 99.6875 35.9629V22.2129Z" fill="white"/>
<path d="M99.6875 46.2754C99.6875 44.3769 98.1485 42.8379 96.25 42.8379C94.3515 42.8379 92.8125 44.3769 92.8125 46.2754V51.4316C92.8125 53.3301 94.3515 54.8691 96.25 54.8691C98.1485 54.8691 99.6875 53.3301 99.6875 51.4316V46.2754Z" fill="white"/>
</svg>
