<svg width="110" height="110" viewBox="0 0 110 110" fill="none" xmlns="http://www.w3.org/2000/svg">
<g clip-path="url(#clip0_1254_562)">
<path d="M65.3125 99.6875L61.875 89.375H48.125L44.6875 99.6875H65.3125Z" fill="#A4B7B6"/>
<path d="M65.313 99.6877L62.6541 91.7109H53.2388C52.5713 91.7111 51.9207 91.9211 51.3791 92.3113C50.8375 92.7015 50.4323 93.2521 50.2207 93.8852L48.2871 99.6877H65.313Z" fill="#DEEBEB"/>
<path d="M99.6875 20.625H10.3125C6.51554 20.625 3.4375 23.703 3.4375 27.5V82.5C3.4375 86.297 6.51554 89.375 10.3125 89.375H99.6875C103.484 89.375 106.562 86.297 106.562 82.5V27.5C106.562 23.703 103.484 20.625 99.6875 20.625Z" fill="#EDF4F4"/>
<path d="M99.6875 20.625H10.3125C8.48914 20.625 6.74045 21.3493 5.45114 22.6386C4.16183 23.928 3.4375 25.6766 3.4375 27.5V77.3438H106.562V27.5C106.562 25.6766 105.838 23.928 104.549 22.6386C103.26 21.3493 101.511 20.625 99.6875 20.625Z" fill="#98ABBB"/>
<path d="M29.2188 99.6875H80.7812C81.6929 99.6875 82.5673 100.05 83.2119 100.694C83.8566 101.339 84.2188 102.213 84.2188 103.125V106.562H25.7812V103.125C25.7812 102.213 26.1434 101.339 26.7881 100.694C27.4327 100.05 28.3071 99.6875 29.2188 99.6875Z" fill="#EDF4F4"/>
<path d="M103.125 80.8861V84.1139C103.125 84.5976 102.933 85.0614 102.591 85.4034C102.249 85.7454 101.785 85.9375 101.301 85.9375H98.0736C97.5899 85.9375 97.1261 85.7454 96.7841 85.4034C96.4421 85.0614 96.25 84.5976 96.25 84.1139C96.2502 83.6303 96.4425 83.1667 96.7845 82.8248L100.012 79.597C100.354 79.255 100.818 79.0627 101.301 79.0625C101.785 79.0625 102.249 79.2546 102.591 79.5966C102.933 79.9386 103.125 80.4024 103.125 80.8861Z" fill="white"/>
<path opacity="0.2" d="M10.3125 77.3438V20.625C9.10218 20.6313 7.91548 20.9606 6.875 21.5789V77.3438C6.875 78.2554 7.23716 79.1298 7.88182 79.7744C8.52648 80.4191 9.40082 80.7812 10.3125 80.7812H96.5319C97.3688 80.7812 98.1714 80.4488 98.7632 79.857C99.355 79.2652 99.6875 78.4626 99.6875 77.6256V77.3438H10.3125Z" fill="black"/>
<path d="M10.3125 77.3438V5.15625C10.3125 4.70041 10.4936 4.26324 10.8159 3.94091C11.1382 3.61858 11.5754 3.4375 12.0312 3.4375H97.9688C98.4246 3.4375 98.8618 3.61858 99.1841 3.94091C99.5064 4.26324 99.6875 4.70041 99.6875 5.15625V77.3438H10.3125Z" fill="#CEDADA"/>
<path d="M17.1875 3.4375H97.9688C98.4246 3.4375 98.8618 3.61858 99.1841 3.94091C99.5064 4.26324 99.6875 4.70041 99.6875 5.15625V72.1875H60.8197C49.2477 72.1875 38.1497 67.5906 29.9671 59.4079C21.7844 51.2253 17.1875 40.1273 17.1875 28.5553V3.4375Z" fill="#E6F5F5"/>
<path d="M22.3438 29.2188L17.1875 22.3438V12.0312C17.1875 11.5754 17.3686 11.1382 17.6909 10.8159C18.0132 10.4936 18.4504 10.3125 18.9062 10.3125H22.3438C22.7996 10.3125 23.2368 10.4936 23.5591 10.8159C23.8814 11.1382 24.0625 11.5754 24.0625 12.0312V13.75C24.0625 14.2058 24.2436 14.643 24.5659 14.9653C24.8882 15.2877 25.3254 15.4688 25.7812 15.4688H29.2188C29.6746 15.4688 30.1118 15.2877 30.4341 14.9653C30.7564 14.643 30.9375 14.2058 30.9375 13.75V12.0312C30.9375 11.5754 31.1186 11.1382 31.4409 10.8159C31.7632 10.4936 32.2004 10.3125 32.6562 10.3125H36.0938C36.5496 10.3125 36.9868 10.4936 37.3091 10.8159C37.6314 11.1382 37.8125 11.5754 37.8125 12.0312V13.75C37.8125 14.2058 37.9936 14.643 38.3159 14.9653C38.6382 15.2877 39.0754 15.4688 39.5312 15.4688H42.9688C43.4246 15.4688 43.8618 15.2877 44.1841 14.9653C44.5064 14.643 44.6875 14.2058 44.6875 13.75V12.0312C44.6875 11.5754 44.8686 11.1382 45.1909 10.8159C45.5132 10.4936 45.9504 10.3125 46.4062 10.3125H49.8438C50.2996 10.3125 50.7368 10.4936 51.0591 10.8159C51.3814 11.1382 51.5625 11.5754 51.5625 12.0312V22.3438L46.4062 29.2188H22.3438Z" fill="#FFD55D"/>
<path d="M46.4062 29.2188H22.3438C20.4453 29.2188 18.9062 30.7578 18.9062 32.6562C18.9062 34.5547 20.4453 36.0938 22.3438 36.0938H46.4062C48.3047 36.0938 49.8438 34.5547 49.8438 32.6562C49.8438 30.7578 48.3047 29.2188 46.4062 29.2188Z" fill="#F4AC1C"/>
<path d="M18.9062 63.5938H49.8438C50.2996 63.5938 50.7368 63.7748 51.0591 64.0972C51.3814 64.4195 51.5625 64.8567 51.5625 65.3125V70.4688H17.1875V65.3125C17.1875 64.8567 17.3686 64.4195 17.6909 64.0972C18.0132 63.7748 18.4504 63.5938 18.9062 63.5938Z" fill="#FFC239"/>
<path d="M18.9062 63.5938V58.4375C18.9062 57.9817 19.0873 57.5445 19.4097 57.2222C19.732 56.8998 20.1692 56.7188 20.625 56.7188H48.125C48.5808 56.7188 49.018 56.8998 49.3403 57.2222C49.6627 57.5445 49.8438 57.9817 49.8438 58.4375V63.5938H18.9062Z" fill="#FFC239"/>
<path d="M48.125 56.7188C42.9688 48.125 42.9688 36.0938 42.9688 36.0938H25.7812C25.7812 36.0938 25.7812 48.125 20.625 56.7188H48.125Z" fill="#F4AC1C"/>
<path d="M70.4688 30.9375V27.5H63.5938V15.4688H60.1562V61.875C60.1562 62.7867 60.5184 63.661 61.1631 64.3057C61.8077 64.9503 62.6821 65.3125 63.5938 65.3125H70.4688V61.875H63.5938V48.125H70.4688V44.6875H63.5938V30.9375H70.4688Z" fill="#98ABBB"/>
<path d="M22.3438 29.2188H46.4062L51.5625 22.3438H17.1875L22.3438 29.2188Z" fill="#F4AC1C"/>
<path d="M48.1257 56.7188C45.2703 51.4068 43.5788 45.5477 43.1636 39.5313H34.7864C33.3253 39.5284 31.9136 40.06 30.8172 41.0259C29.7209 41.9918 29.0156 43.3253 28.8344 44.7752C28.5229 47.344 28.0138 49.8849 27.3116 52.3755C27.1612 52.8781 27.13 53.4089 27.2206 53.9256C27.3111 54.4424 27.5208 54.931 27.8331 55.3525C28.1454 55.7741 28.5517 56.1171 29.0197 56.3542C29.4876 56.5914 30.0045 56.7162 30.5291 56.7188H48.1257Z" fill="#FFC239"/>
<path d="M46.4053 29.2188H22.3428C21.5829 29.2216 20.8454 29.4761 20.2456 29.9426C19.6457 30.4091 19.2173 31.0611 19.0273 31.7969C19.2173 32.5326 19.6457 33.1847 20.2456 33.6511C20.8454 34.1176 21.5829 34.3722 22.3428 34.375H46.4053C47.1652 34.3722 47.9027 34.1176 48.5026 33.6511C49.1024 33.1847 49.5308 32.5326 49.7208 31.7969C49.5308 31.0611 49.1024 30.4091 48.5026 29.9426C47.9027 29.4761 47.1652 29.2216 46.4053 29.2188Z" fill="#FFC239"/>
<path d="M43.0315 37.8125C42.9679 36.7434 42.9679 36.0938 42.9679 36.0938H25.7804C25.7804 36.0938 25.7804 36.7434 25.7168 37.8125H43.0315Z" fill="#B78115"/>
<path d="M48.125 56.7188H20.625C20.1692 56.7188 19.732 56.8998 19.4097 57.2222C19.0873 57.5445 18.9062 57.9817 18.9062 58.4375V59.2728C18.9062 59.6145 18.9736 59.9529 19.1043 60.2686C19.2351 60.5843 19.4268 60.8712 19.6684 61.1128C19.91 61.3545 20.1969 61.5461 20.5126 61.6769C20.8283 61.8077 21.1667 61.875 21.5084 61.875H47.2416C47.5833 61.875 47.9217 61.8077 48.2374 61.6769C48.5531 61.5461 48.84 61.3545 49.0816 61.1128C49.3232 60.8712 49.5149 60.5843 49.6457 60.2686C49.7764 59.9529 49.8438 59.6145 49.8438 59.2728V58.4375C49.8438 57.9817 49.6627 57.5445 49.3403 57.2222C49.018 56.8998 48.5808 56.7188 48.125 56.7188Z" fill="#FFD55D"/>
<path d="M49.8438 63.5938H18.9062C18.4504 63.5938 18.0132 63.7748 17.6909 64.0972C17.3686 64.4195 17.1875 64.8567 17.1875 65.3125V65.8023C17.1875 66.1894 17.2637 66.5727 17.4119 66.9304C17.56 67.288 17.7771 67.6129 18.0508 67.8867C18.3246 68.1604 18.6495 68.3775 19.0071 68.5256C19.3648 68.6738 19.7481 68.75 20.1352 68.75H48.6148C49.0019 68.75 49.3852 68.6738 49.7429 68.5256C50.1005 68.3775 50.4254 68.1604 50.6992 67.8867C50.9729 67.6129 51.19 67.288 51.3381 66.9304C51.4863 66.5727 51.5625 66.1894 51.5625 65.8023V65.3125C51.5625 64.8567 51.3814 64.4195 51.0591 64.0972C50.7368 63.7748 50.2996 63.5938 49.8438 63.5938Z" fill="#FFD55D"/>
<path d="M44.6875 63.5938H34.375C33.4258 63.5938 32.6562 64.3633 32.6562 65.3125C32.6562 66.2617 33.4258 67.0312 34.375 67.0312H44.6875C45.6367 67.0312 46.4062 66.2617 46.4062 65.3125C46.4062 64.3633 45.6367 63.5938 44.6875 63.5938Z" fill="#FFE69E"/>
<path d="M29.2188 63.5938H25.7812C24.832 63.5938 24.0625 64.3633 24.0625 65.3125C24.0625 66.2617 24.832 67.0312 25.7812 67.0312H29.2188C30.168 67.0312 30.9375 66.2617 30.9375 65.3125C30.9375 64.3633 30.168 63.5938 29.2188 63.5938Z" fill="#FFE69E"/>
<path d="M44.6875 56.7188H34.375C33.4258 56.7188 32.6562 57.4883 32.6562 58.4375C32.6562 59.3867 33.4258 60.1562 34.375 60.1562H44.6875C45.6367 60.1562 46.4062 59.3867 46.4062 58.4375C46.4062 57.4883 45.6367 56.7188 44.6875 56.7188Z" fill="#FFE69E"/>
<path d="M29.2188 56.7188H25.7812C24.832 56.7188 24.0625 57.4883 24.0625 58.4375C24.0625 59.3867 24.832 60.1562 25.7812 60.1562H29.2188C30.168 60.1562 30.9375 59.3867 30.9375 58.4375C30.9375 57.4883 30.168 56.7188 29.2188 56.7188Z" fill="#FFE69E"/>
<path d="M44.6875 29.2188H34.375C33.4258 29.2188 32.6562 29.9883 32.6562 30.9375C32.6562 31.8867 33.4258 32.6562 34.375 32.6562H44.6875C45.6367 32.6562 46.4062 31.8867 46.4062 30.9375C46.4062 29.9883 45.6367 29.2188 44.6875 29.2188Z" fill="#FFE69E"/>
<path d="M29.2188 29.2188H25.7812C24.832 29.2188 24.0625 29.9883 24.0625 30.9375C24.0625 31.8867 24.832 32.6562 25.7812 32.6562H29.2188C30.168 32.6562 30.9375 31.8867 30.9375 30.9375C30.9375 29.9883 30.168 29.2188 29.2188 29.2188Z" fill="#FFE69E"/>
<path d="M89.375 24.0625H72.1875C70.289 24.0625 68.75 25.6015 68.75 27.5V30.9375C68.75 32.836 70.289 34.375 72.1875 34.375H89.375C91.2735 34.375 92.8125 32.836 92.8125 30.9375V27.5C92.8125 25.6015 91.2735 24.0625 89.375 24.0625Z" fill="#953528"/>
<path d="M89.375 24.0625H72.1875C71.2758 24.0625 70.4015 24.4247 69.7568 25.0693C69.1122 25.714 68.75 26.5883 68.75 27.5C68.75 28.4117 69.1122 29.286 69.7568 29.9307C70.4015 30.5753 71.2758 30.9375 72.1875 30.9375H89.375C90.2867 30.9375 91.161 30.5753 91.8057 29.9307C92.4503 29.286 92.8125 28.4117 92.8125 27.5C92.8125 26.5883 92.4503 25.714 91.8057 25.0693C91.161 24.4247 90.2867 24.0625 89.375 24.0625Z" fill="#C64635"/>
<path d="M89.375 41.25H72.1875C70.289 41.25 68.75 42.789 68.75 44.6875V48.125C68.75 50.0235 70.289 51.5625 72.1875 51.5625H89.375C91.2735 51.5625 92.8125 50.0235 92.8125 48.125V44.6875C92.8125 42.789 91.2735 41.25 89.375 41.25Z" fill="#1C7A52"/>
<path d="M89.375 41.25H72.1875C71.2758 41.25 70.4015 41.6122 69.7568 42.2568C69.1122 42.9015 68.75 43.7758 68.75 44.6875C68.75 45.5992 69.1122 46.4735 69.7568 47.1182C70.4015 47.7628 71.2758 48.125 72.1875 48.125H89.375C90.2867 48.125 91.161 47.7628 91.8057 47.1182C92.4503 46.4735 92.8125 45.5992 92.8125 44.6875C92.8125 43.7758 92.4503 42.9015 91.8057 42.2568C91.161 41.6122 90.2867 41.25 89.375 41.25Z" fill="#1CB15F"/>
<path d="M89.375 58.4375H72.1875C70.289 58.4375 68.75 59.9765 68.75 61.875V65.3125C68.75 67.211 70.289 68.75 72.1875 68.75H89.375C91.2735 68.75 92.8125 67.211 92.8125 65.3125V61.875C92.8125 59.9765 91.2735 58.4375 89.375 58.4375Z" fill="#F4AC1C"/>
<path d="M89.375 58.4375H72.1875C71.2758 58.4375 70.4015 58.7997 69.7568 59.4443C69.1122 60.089 68.75 60.9633 68.75 61.875C68.75 62.7867 69.1122 63.661 69.7568 64.3057C70.4015 64.9503 71.2758 65.3125 72.1875 65.3125H89.375C90.2867 65.3125 91.161 64.9503 91.8057 64.3057C92.4503 63.661 92.8125 62.7867 92.8125 61.875C92.8125 60.9633 92.4503 60.089 91.8057 59.4443C91.161 58.7997 90.2867 58.4375 89.375 58.4375Z" fill="#FFD55D"/>
<path d="M79.0625 10.3125H61.875C59.9765 10.3125 58.4375 11.8515 58.4375 13.75C58.4375 15.6485 59.9765 17.1875 61.875 17.1875H79.0625C80.961 17.1875 82.5 15.6485 82.5 13.75C82.5 11.8515 80.961 10.3125 79.0625 10.3125Z" fill="#2E7DEF"/>
<path d="M79.0616 10.3125H61.8741C61.1142 10.3153 60.3767 10.5699 59.7768 11.0364C59.177 11.5028 58.7486 12.1549 58.5586 12.8906C58.7486 13.6264 59.177 14.2784 59.7768 14.7449C60.3767 15.2114 61.1142 15.4659 61.8741 15.4688H79.0616C79.8214 15.4659 80.5589 15.2114 81.1588 14.7449C81.7587 14.2784 82.1871 13.6264 82.377 12.8906C82.1871 12.1549 81.7587 11.5028 81.1588 11.0364C80.5589 10.5699 79.8214 10.3153 79.0616 10.3125Z" fill="#5897F2"/>
<path d="M99.6875 30.9375C99.6875 29.039 98.1485 27.5 96.25 27.5C94.3515 27.5 92.8125 29.039 92.8125 30.9375V44.6875C92.8125 46.586 94.3515 48.125 96.25 48.125C98.1485 48.125 99.6875 46.586 99.6875 44.6875V30.9375Z" fill="white"/>
<path d="M99.6875 55C99.6875 53.1015 98.1485 51.5625 96.25 51.5625C94.3515 51.5625 92.8125 53.1015 92.8125 55V60.1562C92.8125 62.0547 94.3515 63.5938 96.25 63.5938C98.1485 63.5938 99.6875 62.0547 99.6875 60.1562V55Z" fill="white"/>
</g>
<defs>
<clipPath id="clip0_1254_562">
<rect width="110" height="110" fill="white"/>
</clipPath>
</defs>
</svg>
