<svg width="110" height="110" viewBox="0 0 110 110" fill="none" xmlns="http://www.w3.org/2000/svg">
<path d="M17.1875 65.3125V104.844C17.1875 105.3 17.3686 105.737 17.6909 106.059C18.0132 106.381 18.4504 106.562 18.9062 106.562H91.0938C91.5496 106.562 91.9868 106.381 92.3091 106.059C92.6314 105.737 92.8125 105.3 92.8125 104.844V17.1875L77.3438 3.4375H18.9062C18.4504 3.4375 18.0132 3.61858 17.6909 3.94091C17.3686 4.26324 17.1875 4.70041 17.1875 5.15625V65.3125Z" fill="#DEEBEB"/>
<path d="M65.3125 97.9688V89.375H51.5625V65.3125H17.1875V68.75H46.2C46.4529 68.7498 46.7033 68.7994 46.9369 68.8961C47.1706 68.9927 47.3829 69.1345 47.5617 69.3133C47.7405 69.4921 47.8823 69.7044 47.9789 69.9381C48.0756 70.1717 48.1252 70.4221 48.125 70.675V97.9688C48.125 98.8804 48.4872 99.7548 49.1318 100.399C49.7765 101.044 50.6508 101.406 51.5625 101.406H92.8125V97.9688H65.3125Z" fill="#A7B0B0"/>
<path d="M44.7253 79.1003C44.7253 76.8111 43.8159 74.6156 42.1972 72.9969C40.5785 71.3781 38.383 70.4688 36.0938 70.4688H17.1875V104.844C17.1875 105.3 17.3686 105.737 17.6909 106.059C18.0132 106.381 18.4504 106.562 18.9062 106.562H44.7253V79.1003Z" fill="#EDF4F4"/>
<path d="M61.875 56.7188H96.25C97.1617 56.7188 98.036 57.0809 98.6807 57.7256C99.3253 58.3702 99.6875 59.2446 99.6875 60.1562V94.5312C99.6875 95.4429 99.3253 96.3173 98.6807 96.9619C98.036 97.6066 97.1617 97.9688 96.25 97.9688H55C54.0883 97.9688 53.214 97.6066 52.5693 96.9619C51.9247 96.3173 51.5625 95.4429 51.5625 94.5312V65.3125L61.875 56.7188Z" fill="#E8E4DB"/>
<path d="M33.208 18.9062H59.0631C61.1763 18.9067 63.2027 19.7463 64.6969 21.2406C66.1911 22.7348 67.0308 24.7612 67.0312 26.8744V42.0252C67.0313 44.5546 68.0361 46.9805 69.8247 48.7691C71.6133 50.5577 74.0391 51.5625 76.5686 51.5625H92.8125V17.1875L77.3438 3.4375H24.0625V9.76078C24.0625 12.1863 25.026 14.5125 26.7411 16.2276C28.4563 17.9427 30.7824 18.9062 33.208 18.9062Z" fill="#EDF4F4"/>
<path d="M96.25 56.7188H70.125C68.8486 56.7188 67.6246 57.2258 66.7221 58.1283C65.8195 59.0308 65.3125 60.2549 65.3125 61.5312V83.808C65.3125 86.652 66.4423 89.3795 68.4533 91.3905C70.4643 93.4015 73.1918 94.5312 76.0358 94.5312H99.6875V60.1562C99.6875 59.2446 99.3253 58.3702 98.6807 57.7256C98.036 57.0809 97.1617 56.7188 96.25 56.7188Z" fill="#F7F3EA"/>
<path d="M75.625 92.8125C73.2454 92.8125 70.9193 92.1069 68.9408 90.7849C66.9623 89.4629 65.4202 87.5838 64.5096 85.3854C63.599 83.187 63.3607 80.7679 63.8249 78.4341C64.2892 76.1002 65.435 73.9565 67.1176 72.2739C68.8002 70.5913 70.944 69.4454 73.2778 68.9812C75.6117 68.517 78.0307 68.7552 80.2292 69.6658C82.4276 70.5764 84.3066 72.1185 85.6286 74.0971C86.9506 76.0756 87.6563 78.4017 87.6563 80.7813C87.6526 83.971 86.3839 87.0291 84.1284 89.2846C81.8729 91.5401 78.8148 92.8089 75.625 92.8125ZM75.625 72.1875C73.9253 72.1875 72.2638 72.6915 70.8506 73.6358C69.4373 74.5801 68.3359 75.9223 67.6854 77.4926C67.035 79.0629 66.8648 80.7908 67.1964 82.4578C67.528 84.1248 68.3464 85.6561 69.5483 86.858C70.7502 88.0598 72.2814 88.8783 73.9484 89.2099C75.6155 89.5415 77.3434 89.3713 78.9137 88.7208C80.484 88.0704 81.8262 86.9689 82.7704 85.5557C83.7147 84.1425 84.2188 82.4809 84.2188 80.7813C84.216 78.5029 83.3097 76.3186 81.6987 74.7076C80.0876 73.0965 77.9034 72.1902 75.625 72.1875Z" fill="#E8E4DB"/>
<path d="M92.8125 17.1875L77.3438 3.4375H75.7281C75.4888 3.43727 75.2518 3.48424 75.0307 3.57572C74.8095 3.6672 74.6086 3.80139 74.4394 3.97061C74.2701 4.13983 74.136 4.34077 74.0445 4.56191C73.953 4.78305 73.906 5.02006 73.9063 5.25938V15.8984C73.9063 17.152 74.4042 18.3542 75.2906 19.2406C76.177 20.127 77.3793 20.625 78.6328 20.625H90.3203C90.9814 20.6245 91.6153 20.3616 92.0827 19.8939C92.55 19.4263 92.8125 18.7922 92.8125 18.1311V17.1875Z" fill="#DEEBEB"/>
<path d="M77.3438 3.4375V17.1875H92.8125L77.3438 3.4375Z" fill="#FBFFFF"/>
<path d="M51.5625 77.3438H99.6875V60.1562C99.6875 59.2446 99.3253 58.3702 98.6807 57.7256C98.036 57.0809 97.1617 56.7188 96.25 56.7188H55C54.0883 56.7188 53.214 57.0809 52.5693 57.7256C51.9247 58.3702 51.5625 59.2446 51.5625 60.1562V77.3438Z" fill="#5E3C26"/>
<path d="M96.25 56.7188H70.125C68.8486 56.7188 67.6246 57.2258 66.7221 58.1283C65.8195 59.0308 65.3125 60.2549 65.3125 61.5312V77.3438H99.6875V60.1562C99.6875 59.2446 99.3253 58.3702 98.6807 57.7256C98.036 57.0809 97.1617 56.7188 96.25 56.7188Z" fill="#7D5032"/>
<path d="M75.625 87.6562C81.3204 87.6562 85.9375 83.0392 85.9375 77.3438C85.9375 71.6483 81.3204 67.0312 75.625 67.0312C69.9296 67.0312 65.3125 71.6483 65.3125 77.3438C65.3125 83.0392 69.9296 87.6562 75.625 87.6562Z" fill="#2E7DEF"/>
<path d="M78.2031 87.3174C82.4747 87.3174 85.9375 82.852 85.9375 77.3435C85.9375 71.8351 82.4747 67.3696 78.2031 67.3696C73.9315 67.3696 70.4688 71.8351 70.4688 77.3435C70.4688 82.852 73.9315 87.3174 78.2031 87.3174Z" fill="#5897F2"/>
<path d="M75.625 89.375C73.2454 89.375 70.9193 88.6694 68.9408 87.3474C66.9623 86.0254 65.4202 84.1463 64.5096 81.9479C63.599 79.7495 63.3607 77.3304 63.8249 74.9966C64.2892 72.6627 65.435 70.519 67.1176 68.8364C68.8002 67.1538 70.944 66.0079 73.2778 65.5437C75.6117 65.0795 78.0307 65.3177 80.2292 66.2283C82.4276 67.1389 84.3066 68.681 85.6286 70.6596C86.9506 72.6381 87.6563 74.9642 87.6563 77.3438C87.6526 80.5335 86.3839 83.5916 84.1284 85.8471C81.8729 88.1026 78.8148 89.3714 75.625 89.375ZM75.625 68.75C73.9253 68.75 72.2638 69.254 70.8506 70.1983C69.4373 71.1426 68.3359 72.4848 67.6854 74.0551C67.035 75.6254 66.8648 77.3533 67.1964 79.0203C67.528 80.6873 68.3464 82.2186 69.5483 83.4205C70.7502 84.6223 72.2814 85.4408 73.9484 85.7724C75.6155 86.104 77.3434 85.9338 78.9137 85.2833C80.484 84.6329 81.8262 83.5314 82.7704 82.1182C83.7147 80.705 84.2188 79.0434 84.2188 77.3438C84.216 75.0654 83.3097 72.8811 81.6987 71.2701C80.0876 69.659 77.9034 68.7527 75.625 68.75Z" fill="#EDF4F4"/>
<path d="M87.6562 61.875H94.5312V65.3125H87.6562V61.875Z" fill="#EDF4F4"/>
<path d="M58.4375 24.0625H13.75C11.8515 24.0625 10.3125 25.6015 10.3125 27.5V61.875C10.3125 63.7735 11.8515 65.3125 13.75 65.3125H58.4375C60.336 65.3125 61.875 63.7735 61.875 61.875V27.5C61.875 25.6015 60.336 24.0625 58.4375 24.0625Z" fill="#953528"/>
<path d="M58.4375 24.0625H17.1875V45.6964C17.1875 49.5314 18.7109 53.2093 21.4227 55.9211C24.1344 58.6328 27.8124 60.1562 31.6473 60.1562H61.875V27.5C61.875 26.5883 61.5128 25.714 60.8682 25.0693C60.2235 24.4247 59.3492 24.0625 58.4375 24.0625Z" fill="#C64635"/>
<path d="M36.0938 58.4375C43.6877 58.4375 49.8438 52.2814 49.8438 44.6875C49.8438 37.0936 43.6877 30.9375 36.0938 30.9375C28.4998 30.9375 22.3438 37.0936 22.3438 44.6875C22.3438 52.2814 28.4998 58.4375 36.0938 58.4375Z" fill="#EDF4F4"/>
<path d="M32.6562 39.5312V49.8438L41.25 44.6875L32.6562 39.5312Z" fill="#C64635"/>
<path d="M24.0625 10.3125H55V17.1875H24.0625V10.3125Z" fill="#6F7676"/>
<path d="M67.0312 27.5H87.6562V30.9375H67.0312V27.5Z" fill="#6F7676"/>
<path d="M67.0312 34.375H87.6562V37.8125H67.0312V34.375Z" fill="#6F7676"/>
<path d="M67.0312 41.25H87.6562V44.6875H67.0312V41.25Z" fill="#6F7676"/>
<path d="M67.0312 48.125H77.3438V51.5625H67.0312V48.125Z" fill="#6F7676"/>
<path d="M22.3438 70.4688H51.5625V73.9062H22.3438V70.4688Z" fill="#6F7676"/>
<path d="M22.3438 77.3438H36.0938V80.7812H22.3438V77.3438Z" fill="#6F7676"/>
<path d="M39.5312 77.3438H51.5625V80.7812H39.5312V77.3438Z" fill="#6F7676"/>
<path d="M22.3438 84.2188H36.0938V87.6562H22.3438V84.2188Z" fill="#6F7676"/>
<path d="M39.5312 84.2188H51.5625V87.6562H39.5312V84.2188Z" fill="#6F7676"/>
<path d="M22.3438 91.0938H36.0938V94.5312H22.3438V91.0938Z" fill="#6F7676"/>
<path d="M39.5312 91.0938H51.5625V94.5312H39.5312V91.0938Z" fill="#6F7676"/>
<path d="M97.9477 84.9064V89.7309C97.9477 90.089 97.8771 90.4436 97.7398 90.7743C97.6026 91.1051 97.4014 91.4055 97.1479 91.6584C96.8944 91.9113 96.5934 92.1117 96.2623 92.2481C95.9312 92.3845 95.5765 92.4543 95.2184 92.4534H90.4059C90.0482 92.4536 89.694 92.3834 89.3635 92.2466C89.033 92.1099 88.7326 91.9094 88.4797 91.6566C88.2267 91.4038 88.026 91.1036 87.889 90.7731C87.7521 90.4427 87.6816 90.0886 87.6816 89.7309C87.6815 89.3731 87.7519 89.0188 87.8887 88.6882C88.0256 88.3576 88.2262 88.0572 88.4791 87.8042L93.3037 82.9796C93.8142 82.4691 94.5066 82.1822 95.2287 82.1821C95.9503 82.1835 96.6419 82.4711 97.1517 82.9819C97.6614 83.4926 97.9477 84.1847 97.9477 84.9064Z" fill="#FCFAF7"/>
<path d="M57.9445 34.7149C59.0721 33.1885 58.1303 30.5799 55.8407 28.8883C53.5511 27.1968 50.7809 27.0629 49.6532 28.5893C48.5255 30.1157 49.4674 32.7243 51.757 34.4158C54.0465 36.1074 56.8168 36.2413 57.9445 34.7149Z" fill="white"/>
</svg>
