<svg width="110" height="110" viewBox="0 0 110 110" fill="none" xmlns="http://www.w3.org/2000/svg">
<path d="M30.9375 96.25V103.125C30.9375 104.037 31.2997 104.911 31.9443 105.556C32.589 106.2 33.4633 106.562 34.375 106.562H85.9375C86.8492 106.562 87.7235 106.2 88.3682 105.556C89.0128 104.911 89.375 104.037 89.375 103.125V6.875C89.375 5.96332 89.0128 5.08898 88.3682 4.44432C87.7235 3.79966 86.8492 3.4375 85.9375 3.4375H34.375C33.4633 3.4375 32.589 3.79966 31.9443 4.44432C31.2997 5.08898 30.9375 5.96332 30.9375 6.875V96.25Z" fill="#1C2023"/>
<path d="M85.9375 3.4375H39.5313V61.2958C39.5312 70.5662 43.2139 79.457 49.7691 86.0121C56.3243 92.5673 65.215 96.25 74.4855 96.25H89.375V6.875C89.375 5.96332 89.0128 5.08898 88.3682 4.44432C87.7235 3.79966 86.8492 3.4375 85.9375 3.4375Z" fill="#262B2F"/>
<path d="M34.375 6.875H85.9375V103.125H34.375V6.875Z" fill="#CEDADA"/>
<path d="M85.9375 6.875H39.5313V61.2958C39.5312 70.5662 43.2139 79.457 49.7691 86.0121C56.3243 92.5673 65.215 96.25 74.4855 96.25H85.9375V6.875Z" fill="#E6F5F5"/>
<path d="M48.125 3.4375V6.875C48.125 7.78668 48.4872 8.66102 49.1318 9.30568C49.7765 9.95034 50.6508 10.3125 51.5625 10.3125H68.75C69.6617 10.3125 70.536 9.95034 71.1807 9.30568C71.8253 8.66102 72.1875 7.78668 72.1875 6.875V3.4375H48.125Z" fill="#262B2F"/>
<path d="M81.125 24.75C80.5305 24.3028 79.8064 24.0615 79.0625 24.0625H41.25C40.3383 24.0625 39.464 24.4247 38.8193 25.0693C38.1747 25.714 37.8125 26.5883 37.8125 27.5V53.625L45.0673 60.1563H79.0625C79.9742 60.1563 80.8485 59.7941 81.4932 59.1494C82.1378 58.5048 82.5 57.6304 82.5 56.7188V38.6238L81.125 24.75Z" fill="#953528"/>
<path d="M41.25 24.0625C40.3383 24.0625 39.464 24.4247 38.8193 25.0693C38.1747 25.714 37.8125 26.5883 37.8125 27.5V53.625L41.25 56.7188H64.0802C67.5979 56.7188 70.9715 55.3213 73.4589 52.8339C75.9463 50.3465 77.3438 46.9729 77.3438 43.4552V24.0625H41.25Z" fill="#C64635"/>
<path d="M51.5625 32.6562C49.7391 32.6562 47.9905 33.3806 46.7011 34.6699C45.4118 35.9592 44.6875 37.7079 44.6875 39.5312V51.5625H48.125V46.4062H55V51.5625H58.4375V39.5312C58.4375 37.7079 57.7132 35.9592 56.4239 34.6699C55.1345 33.3806 53.3859 32.6562 51.5625 32.6562ZM48.125 42.9688V39.5312C48.125 38.6196 48.4872 37.7452 49.1318 37.1006C49.7765 36.4559 50.6508 36.0938 51.5625 36.0938C52.4742 36.0938 53.3485 36.4559 53.9932 37.1006C54.6378 37.7452 55 38.6196 55 39.5312V42.9688H48.125Z" fill="white"/>
<path d="M67.0312 32.6562H63.5938C63.1379 32.6562 62.7007 32.8373 62.3784 33.1597C62.0561 33.482 61.875 33.9192 61.875 34.375V49.8438C61.875 50.2996 62.0561 50.7368 62.3784 51.0591C62.7007 51.3814 63.1379 51.5625 63.5938 51.5625H67.0312C69.3096 51.5598 71.4939 50.6535 73.1049 49.0424C74.716 47.4314 75.6223 45.2471 75.625 42.9688V41.25C75.6223 38.9716 74.716 36.7874 73.1049 35.1763C71.4939 33.5653 69.3096 32.659 67.0312 32.6562ZM72.1875 42.9688C72.1875 44.3363 71.6443 45.6478 70.6773 46.6148C69.7103 47.5818 68.3988 48.125 67.0312 48.125H65.3125V36.0938H67.0312C68.3988 36.0938 69.7103 36.637 70.6773 37.604C71.6443 38.571 72.1875 39.8825 72.1875 41.25V42.9688Z" fill="white"/>
<path d="M47.8145 67.0312H79.063C79.9747 67.0312 80.8491 67.3934 81.4937 68.0381C82.1384 68.6827 82.5005 69.5571 82.5005 70.4688C82.5005 71.3804 82.1384 72.2548 81.4937 72.8994C80.8491 73.5441 79.9747 73.9062 79.063 73.9062H47.8145V67.0312Z" fill="#CEDADA"/>
<path d="M46.7246 67.0312H65.3129V73.9062H46.7246V67.0312Z" fill="#C64635"/>
<path d="M89.375 41.25C95.0704 41.25 99.6875 36.6329 99.6875 30.9375C99.6875 25.2421 95.0704 20.625 89.375 20.625C83.6796 20.625 79.0625 25.2421 79.0625 30.9375C79.0625 36.6329 83.6796 41.25 89.375 41.25Z" fill="#C64635"/>
<path d="M89.375 39.5312C94.1212 39.5312 97.9688 35.6837 97.9688 30.9375C97.9688 26.1913 94.1212 22.3438 89.375 22.3438C84.6288 22.3438 80.7812 26.1913 80.7812 30.9375C80.7812 35.6837 84.6288 39.5312 89.375 39.5312Z" fill="#E6F5F5"/>
<path d="M94.028 28.715L91.5977 26.2847L89.3753 28.507L87.153 26.2847L84.7227 28.715L86.945 30.9373L84.7227 33.1597L87.153 35.59L89.3753 33.3676L91.5977 35.59L94.028 33.1597L91.8056 30.9373L94.028 28.715Z" fill="#C64635"/>
<path d="M44.8227 31.7383C46.388 30.6178 47.0514 28.8634 46.3043 27.8199C45.5573 26.7763 43.6828 26.8388 42.1175 27.9593C40.5521 29.0799 39.8888 30.8342 40.6358 31.8778C41.3829 32.9213 43.2574 32.8589 44.8227 31.7383Z" fill="white"/>
<path d="M46.7246 73.9062H51.2724C51.6597 71.6309 51.6597 69.3066 51.2724 67.0312H46.7246V73.9062Z" fill="#953528"/>
<path d="M29.2188 89.375C39.6604 89.375 48.125 80.9104 48.125 70.4688C48.125 60.0271 39.6604 51.5625 29.2188 51.5625C18.7771 51.5625 10.3125 60.0271 10.3125 70.4688C10.3125 80.9104 18.7771 89.375 29.2188 89.375Z" fill="#FFD55D"/>
<path d="M39.5312 85.9375C39.1705 85.9375 38.8189 85.824 38.5263 85.6131C38.2336 85.4021 38.0148 85.1045 37.9007 84.7623C37.7866 84.42 37.7831 84.0506 37.8907 83.7063C37.9982 83.3619 38.2114 83.0602 38.5 82.8438C41.0973 80.8958 43.0158 78.18 43.9839 75.081C44.9519 71.9821 44.9204 68.6571 43.8937 65.5771C42.867 62.4971 40.8973 59.8182 38.2635 57.9199C35.6297 56.0215 32.4654 55 29.2188 55C28.7629 55 28.3257 54.8189 28.0034 54.4966C27.6811 54.1743 27.5 53.7371 27.5 53.2812C27.5 52.8254 27.6811 52.3882 28.0034 52.0659C28.3257 51.7436 28.7629 51.5625 29.2188 51.5625C33.1842 51.5654 37.0484 52.815 40.2646 55.1347C43.4808 57.4544 45.8862 60.7266 47.1405 64.4884C48.3948 68.2503 48.4346 72.3113 47.2541 76.097C46.0736 79.8826 43.7327 83.2013 40.5625 85.5834C40.2668 85.8112 39.9045 85.9355 39.5312 85.9375Z" fill="#FFE69E"/>
<path d="M29.2188 85.9375C37.7619 85.9375 44.6875 79.0119 44.6875 70.4688C44.6875 61.9256 37.7619 55 29.2188 55C20.6756 55 13.75 61.9256 13.75 70.4688C13.75 79.0119 20.6756 85.9375 29.2188 85.9375Z" fill="#F4AC1C"/>
<path d="M29.2188 55.0001C28.6444 55.0017 28.0706 55.0356 27.5 55.1015C31.2715 55.5355 34.7517 57.3412 37.278 60.1749C39.8044 63.0087 41.2004 66.6725 41.2004 70.4688C41.2004 74.2652 39.8044 77.929 37.278 80.7627C34.7517 83.5964 31.2715 85.4022 27.5 85.8362C29.5942 86.0771 31.7155 85.8874 33.7338 85.2788C35.752 84.6701 37.6245 83.6554 39.2364 82.2969C40.8483 80.9385 42.1655 79.2648 43.1072 77.3789C44.0489 75.4929 44.5951 73.4343 44.7124 71.3296C44.8297 69.2249 44.5156 67.1184 43.7894 65.1394C43.0631 63.1605 41.9401 61.3509 40.4891 59.8217C39.0382 58.2925 37.29 57.0759 35.3519 56.2468C33.4138 55.4177 31.3267 54.9934 29.2188 55.0001Z" fill="#F49E06"/>
<path d="M27.5 68.75C26.8201 68.75 26.1555 68.5484 25.5902 68.1707C25.0249 67.793 24.5843 67.2561 24.3242 66.628C24.064 65.9999 23.9959 65.3087 24.1286 64.6419C24.2612 63.9751 24.5886 63.3626 25.0693 62.8818C25.5501 62.4011 26.1626 62.0737 26.8294 61.9411C27.4962 61.8084 28.1874 61.8765 28.8155 62.1367C29.4436 62.3968 29.9805 62.8374 30.3582 63.4027C30.7359 63.968 30.9375 64.6326 30.9375 65.3125H34.375C34.3693 63.7928 33.8602 62.3177 32.9273 61.118C31.9944 59.9183 30.6902 59.0615 29.2188 58.6816V56.7188H25.7812V58.6816C24.1628 59.0981 22.7521 60.091 21.8138 61.4739C20.8755 62.8568 20.4741 64.5346 20.6851 66.1924C20.8961 67.8502 21.7048 69.374 22.9596 70.4779C24.2143 71.5817 25.8288 72.1896 27.5 72.1875C28.1799 72.1875 28.8445 72.3891 29.4098 72.7668C29.9751 73.1445 30.4157 73.6814 30.6758 74.3095C30.936 74.9376 31.0041 75.6288 30.8714 76.2956C30.7388 76.9624 30.4114 77.5749 29.9307 78.0557C29.4499 78.5364 28.8374 78.8638 28.1706 78.9964C27.5038 79.1291 26.8126 79.061 26.1845 78.8008C25.5564 78.5407 25.0195 78.1001 24.6418 77.5348C24.2641 76.9695 24.0625 76.3049 24.0625 75.625H20.625C20.6307 77.1447 21.1398 78.6198 22.0727 79.8195C23.0056 81.0192 24.3098 81.876 25.7812 82.2559V84.2188H29.2188V82.2559C30.8372 81.8394 32.2479 80.8465 33.1862 79.4636C34.1245 78.0807 34.5259 76.4029 34.3149 74.7451C34.1039 73.0873 33.2952 71.5635 32.0404 70.4596C30.7856 69.3558 29.1712 68.7479 27.5 68.75Z" fill="#F49E06"/>
<path d="M29.2188 68.75C28.5389 68.75 27.8743 68.5484 27.309 68.1707C26.7437 67.793 26.3031 67.2561 26.0429 66.628C25.7827 65.9999 25.7147 65.3087 25.8473 64.6419C25.9799 63.9751 26.3073 63.3626 26.7881 62.8818C27.2688 62.4011 27.8813 62.0737 28.5481 61.9411C29.2149 61.8084 29.9061 61.8765 30.5342 62.1367C31.1623 62.3968 31.6992 62.8374 32.0769 63.4027C32.4546 63.968 32.6562 64.6326 32.6562 65.3125H36.0938C36.0881 63.7928 35.579 62.3177 34.646 61.118C33.7131 59.9183 32.409 59.0615 30.9375 58.6816V56.7188H27.5V58.6816C25.8816 59.0981 24.4708 60.091 23.5325 61.4739C22.5942 62.8568 22.1929 64.5346 22.4039 66.1924C22.6148 67.8502 23.4236 69.374 24.6783 70.4779C25.9331 71.5817 27.5476 72.1896 29.2188 72.1875C29.8986 72.1875 30.5632 72.3891 31.1285 72.7668C31.6938 73.1445 32.1344 73.6814 32.3946 74.3095C32.6548 74.9376 32.7228 75.6288 32.5902 76.2956C32.4576 76.9624 32.1302 77.5749 31.6494 78.0557C31.1687 78.5364 30.5562 78.8638 29.8894 78.9964C29.2226 79.1291 28.5314 79.061 27.9033 78.8008C27.2752 78.5407 26.7383 78.1001 26.3606 77.5348C25.9829 76.9695 25.7812 76.3049 25.7812 75.625H22.3438C22.3494 77.1447 22.8585 78.6198 23.7915 79.8195C24.7244 81.0192 26.0285 81.876 27.5 82.2559V84.2188H30.9375V82.2559C32.5559 81.8394 33.9667 80.8465 34.905 79.4636C35.8433 78.0807 36.2446 76.4029 36.0336 74.7451C35.8227 73.0873 35.0139 71.5635 33.7592 70.4596C32.5044 69.3558 30.8899 68.7479 29.2188 68.75Z" fill="#FFD55D"/>
</svg>
