<svg width="100" height="100" viewBox="0 0 100 100" fill="none" xmlns="http://www.w3.org/2000/svg">
<path d="M9.375 40.6592V4.72168C9.375 4.30728 9.53962 3.90985 9.83265 3.61683C10.1257 3.3238 10.5231 3.15918 10.9375 3.15918H95.3125C95.7269 3.15918 96.1243 3.3238 96.4174 3.61683C96.7104 3.90985 96.875 4.30728 96.875 4.72168V89.0967C96.875 89.5111 96.7104 89.9085 96.4174 90.2015C96.1243 90.4946 95.7269 90.6592 95.3125 90.6592H50L9.375 40.6592Z" fill="#CEDADA"/>
<path opacity="0.2" d="M46.875 46.9092C46.875 45.2516 46.2165 43.6619 45.0444 42.4898C43.8723 41.3177 42.2826 40.6592 40.625 40.6592H37.5C36.6712 40.6592 35.8763 40.3299 35.2903 39.7439C34.7042 39.1578 34.375 38.363 34.375 37.5342V18.7842L22.775 39.0842C22.5017 39.5627 22.1066 39.9604 21.63 40.237C21.1533 40.5136 20.612 40.6593 20.0609 40.6592H9.375L46.875 86.8139V46.9092Z" fill="black"/>
<path d="M96.875 28.1592H9.375V4.72168C9.375 4.30728 9.53962 3.90985 9.83265 3.61683C10.1257 3.3238 10.5231 3.15918 10.9375 3.15918H95.3125C95.7269 3.15918 96.1243 3.3238 96.4174 3.61683C96.7104 3.90985 96.875 4.30728 96.875 4.72168V28.1592Z" fill="#2E7DEF"/>
<path d="M96.875 32.8467H61.9906C61.031 32.8467 60.0809 33.0358 59.1944 33.4032C58.3079 33.7706 57.5026 34.3091 56.8243 34.9879C56.1461 35.6667 55.6083 36.4726 55.2416 37.3594C54.875 38.2461 54.6867 39.1965 54.6875 40.1561V59.5451C54.6875 62.8103 55.3306 66.0435 56.5802 69.0602C57.8297 72.0768 59.6612 74.8178 61.97 77.1267C66.6329 81.7896 72.9572 84.4092 79.5516 84.4092H96.875V32.8467Z" fill="#E6F5F5"/>
<path d="M17.1875 3.15918H96.875V23.4717H29.875C28.2086 23.4717 26.5585 23.1434 25.019 22.5056C23.4795 21.8678 22.0807 20.933 20.9025 19.7545C19.7243 18.576 18.7898 17.177 18.1524 15.6373C17.515 14.0976 17.1871 12.4475 17.1875 10.7811V3.15918Z" fill="#5897F2"/>
<path d="M35.7141 21.9092H18.75C17.9212 21.9092 17.1263 21.5799 16.5403 20.9939C15.9542 20.4078 15.625 19.613 15.625 18.7842V15.6592C15.625 14.8304 15.9542 14.0355 16.5403 13.4495C17.1263 12.8634 17.9212 12.5342 18.75 12.5342H87.5C88.3288 12.5342 89.1237 12.8634 89.7097 13.4495C90.2958 14.0355 90.625 14.8304 90.625 15.6592V18.7842C90.625 19.613 90.2958 20.4078 89.7097 20.9939C89.1237 21.5799 88.3288 21.9092 87.5 21.9092H35.7141Z" fill="#EDF4F4"/>
<path d="M26.5625 12.5342H29.6875V21.9092H26.5625V12.5342Z" fill="#CEDADA"/>
<path d="M57.8125 67.2217H64.0625V70.3467H57.8125V67.2217Z" fill="#6F7676"/>
<path d="M57.8125 73.4717H64.0625V76.5967H57.8125V73.4717Z" fill="#6F7676"/>
<path d="M57.8125 79.7217H64.0625V82.8467H57.8125V79.7217Z" fill="#6F7676"/>
<path d="M67.1875 67.2217H89.0625V70.3467H67.1875V67.2217Z" fill="#6F7676"/>
<path d="M67.1875 73.4717H89.0625V76.5967H67.1875V73.4717Z" fill="#6F7676"/>
<path d="M67.1875 79.7217H89.0625V82.8467H67.1875V79.7217Z" fill="#6F7676"/>
<path d="M43.75 40.6592H40.625C39.7962 40.6592 39.0013 40.3299 38.4153 39.7439C37.8292 39.1578 37.5 38.363 37.5 37.5342V18.7842L25.9 39.0842C25.6267 39.5627 25.2316 39.9604 24.755 40.237C24.2783 40.5136 23.737 40.6593 23.1859 40.6592H9.375C7.7174 40.6592 6.12769 41.3177 4.95558 42.4898C3.78348 43.6619 3.125 45.2516 3.125 46.9092V90.6592C3.125 92.3168 3.78348 93.9065 4.95558 95.0786C6.12769 96.2507 7.7174 96.9092 9.375 96.9092H43.75C45.4076 96.9092 46.9973 96.2507 48.1694 95.0786C49.3415 93.9065 50 92.3168 50 90.6592V46.9092C50 45.2516 49.3415 43.6619 48.1694 42.4898C46.9973 41.3177 45.4076 40.6592 43.75 40.6592Z" fill="#F4AC1C"/>
<path d="M43.75 40.6592H40.625C39.7962 40.6592 39.0013 40.3299 38.4153 39.7439C37.8292 39.1578 37.5 38.363 37.5 37.5342V18.7842L25.9 39.0842C25.6267 39.5627 25.2316 39.9604 24.755 40.237C24.2783 40.5136 23.737 40.6593 23.1859 40.6592H9.375V68.6139C9.375 71.5089 9.94522 74.3756 11.0531 77.0502C12.161 79.7249 13.7848 82.1552 15.8319 84.2023C19.9662 88.3366 25.5735 90.6592 31.4203 90.6592H50V46.9092C50 45.2516 49.3415 43.6619 48.1694 42.4898C46.9973 41.3177 45.4076 40.6592 43.75 40.6592Z" fill="#FFD55D"/>
<path opacity="0.1" d="M37.5 60.9719C37.5016 58.357 36.774 55.7934 35.3991 53.5692C34.0241 51.3449 32.0563 49.5481 29.7165 48.3805C27.3767 47.213 24.7578 46.7209 22.1538 46.9596C19.5498 47.1983 17.0639 48.1583 14.9754 49.7319C12.887 51.3054 11.2786 53.43 10.3309 55.8672C9.38329 58.3043 9.13395 60.9574 9.61093 63.5285C10.0879 66.0995 11.2723 68.4866 13.031 70.4217C14.7898 72.3568 17.0533 73.7631 19.5672 74.4828H19.5313L18.7656 85.9812C18.7452 86.6006 18.8521 87.2175 19.0796 87.7939C19.307 88.3702 19.6503 88.8939 20.0882 89.3323C20.5261 89.7708 21.0492 90.1147 21.6253 90.343C22.2014 90.5713 22.8182 90.6789 23.4375 90.6594C24.0574 90.6798 24.6748 90.5728 25.2516 90.3449C25.8285 90.117 26.3524 89.7732 26.7909 89.3347C27.2295 88.8961 27.5733 88.3722 27.8012 87.7954C28.029 87.2186 28.1361 86.6011 28.1156 85.9812L27.35 74.4828H27.3094C30.2444 73.6422 32.8261 71.8693 34.6646 69.4318C36.503 66.9944 37.4983 64.0249 37.5 60.9719Z" fill="black"/>
<path d="M30.4696 74.4824L31.2353 85.9809C31.2557 86.6002 31.1488 87.2171 30.9213 87.7935C30.6939 88.3699 30.3506 88.8935 29.9127 89.3319C29.4748 89.7704 28.9517 90.1144 28.3756 90.3426C27.7995 90.5709 27.1827 90.6786 26.5634 90.659C25.9435 90.6794 25.3261 90.5724 24.7493 90.3445C24.1724 90.1167 23.6485 89.7728 23.21 89.3343C22.7714 88.8957 22.4276 88.3718 22.1997 87.795C21.9719 87.2182 21.8648 86.6007 21.8853 85.9809L22.6509 74.4824H30.4696Z" fill="#98ABBB"/>
<path d="M22.0918 82.8467H31.0324L30.8246 79.7217H22.2996L22.0918 82.8467Z" fill="#6F7676"/>
<path opacity="0.1" d="M22.4453 77.5434C25.1287 78.3642 27.9963 78.3642 30.6797 77.5434L30.4688 74.4824H22.6563L22.4453 77.5434Z" fill="#1C2023"/>
<path d="M26.5625 75.0342C34.329 75.0342 40.625 68.7382 40.625 60.9717C40.625 53.2052 34.329 46.9092 26.5625 46.9092C18.796 46.9092 12.5 53.2052 12.5 60.9717C12.5 68.7382 18.796 75.0342 26.5625 75.0342Z" fill="#E6F5F5"/>
<path d="M34.2094 71.9107C33.5881 71.9113 32.9807 71.7266 32.4649 71.3803C31.9491 71.0341 31.5481 70.5419 31.3134 69.9667C31.0786 69.3915 31.0206 68.7593 31.1468 68.151C31.273 67.5426 31.5777 66.9857 32.0219 66.5514C33.1297 65.4657 33.8892 64.0748 34.2038 62.5559C34.5183 61.037 34.3736 59.4589 33.7881 58.0225C33.2025 56.5862 32.2027 55.3566 30.9159 54.4905C29.6291 53.6244 28.1136 53.1609 26.5625 53.1592C25.7337 53.1592 24.9388 52.8299 24.3528 52.2439C23.7667 51.6578 23.4375 50.863 23.4375 50.0342C23.4375 49.2054 23.7667 48.4105 24.3528 47.8245C24.9388 47.2384 25.7337 46.9092 26.5625 46.9092C29.3557 46.9105 32.0853 47.7436 34.4032 49.3023C36.7211 50.861 38.5222 53.0747 39.5771 55.6611C40.6319 58.2475 40.8926 61.0894 40.326 63.8246C39.7593 66.5597 38.3909 69.0642 36.3953 71.0186C35.8114 71.5904 35.0267 71.9106 34.2094 71.9107Z" fill="#F5FBFB"/>
<path d="M26.5625 68.7842C30.8772 68.7842 34.375 65.2864 34.375 60.9717C34.375 56.657 30.8772 53.1592 26.5625 53.1592C22.2478 53.1592 18.75 56.657 18.75 60.9717C18.75 65.2864 22.2478 68.7842 26.5625 68.7842Z" fill="#2E7DEF"/>
<path d="M26.5629 65.6592C30.7905 65.6592 34.2176 62.861 34.2176 59.4092C34.2176 55.9574 30.7905 53.1592 26.5629 53.1592C22.3353 53.1592 18.9082 55.9574 18.9082 59.4092C18.9082 62.861 22.3353 65.6592 26.5629 65.6592Z" fill="#5897F2"/>
<path d="M64.0625 37.5342H70.3125V59.4092H64.0625V37.5342Z" fill="#1C7A52"/>
<path d="M57.8125 48.4717H64.0625V59.4092H57.8125V48.4717Z" fill="#953528"/>
<path d="M59.375 48.4717H64.0625V57.8467H62.4484C61.6333 57.8467 60.8516 57.5229 60.2752 56.9465C59.6988 56.3701 59.375 55.5884 59.375 54.7732V48.4717Z" fill="#C64635"/>
<path d="M65.625 37.5342H70.3125V57.8467H68.6984C67.8833 57.8467 67.1016 57.5229 66.5252 56.9465C65.9488 56.3701 65.625 55.5884 65.625 54.7732V37.5342Z" fill="#1CB15F"/>
<path d="M82.8125 34.4092H89.0625V59.4092H82.8125V34.4092Z" fill="#1C7A52"/>
<path d="M76.5625 40.6592H82.8125V59.4092H76.5625V40.6592Z" fill="#953528"/>
<path d="M78.125 40.6592H82.8125V57.8467H81.1984C80.3833 57.8467 79.6016 57.5229 79.0252 56.9465C78.4488 56.3701 78.125 55.5884 78.125 54.7732V40.6592Z" fill="#C64635"/>
<path d="M84.375 34.4092H89.0625V57.8467H87.4484C86.6333 57.8467 85.8516 57.5229 85.2752 56.9465C84.6988 56.3701 84.375 55.5884 84.375 54.7732V34.4092Z" fill="#1CB15F"/>
<path d="M50 57.8452H92.1875V60.9702H50V57.8452Z" fill="#6F7676"/>
</svg>
