<svg width="110" height="110" viewBox="0 0 110 110" fill="none" xmlns="http://www.w3.org/2000/svg">
<path d="M3.4375 73.9062V18.9062C3.4375 17.9946 3.79966 17.1202 4.44432 16.4756C5.08898 15.8309 5.96332 15.4687 6.875 15.4688H103.125C104.037 15.4688 104.911 15.8309 105.556 16.4756C106.2 17.1202 106.562 17.9946 106.562 18.9062V73.9062H3.4375Z" fill="#CEDADA"/>
<path d="M12.0312 15.4688H103.125C104.037 15.4688 104.911 15.8309 105.556 16.4756C106.2 17.1202 106.562 17.9946 106.562 18.9062V70.4688H34.4678C28.5173 70.4688 22.8104 68.1049 18.6028 63.8972C14.3951 59.6896 12.0313 53.9827 12.0312 48.0322V15.4688Z" fill="#E6F5F5"/>
<path d="M39.5312 67.0312C49.9729 67.0312 58.4375 58.5666 58.4375 48.125C58.4375 37.6834 49.9729 29.2188 39.5312 29.2188C29.0896 29.2188 20.625 37.6834 20.625 48.125C20.625 58.5666 29.0896 67.0312 39.5312 67.0312Z" fill="#CEDADA"/>
<path d="M70.4688 67.0312C80.9104 67.0312 89.375 58.5666 89.375 48.125C89.375 37.6834 80.9104 29.2188 70.4688 29.2188C60.0271 29.2188 51.5625 37.6834 51.5625 48.125C51.5625 58.5666 60.0271 67.0312 70.4688 67.0312Z" fill="#CEDADA"/>
<path d="M106.562 73.9062H3.4375V91.0938C3.4375 92.0054 3.79966 92.8798 4.44432 93.5244C5.08898 94.1691 5.96332 94.5312 6.875 94.5312H103.125C104.037 94.5312 104.911 94.1691 105.556 93.5244C106.2 92.8798 106.562 92.0054 106.562 91.0938V73.9062Z" fill="#953528"/>
<path d="M12.0312 73.9062H106.562V91.0938H23.7634C20.6519 91.0937 17.6677 89.8577 15.4675 87.6575C13.2673 85.4573 12.0313 82.4731 12.0312 79.3616V73.9062Z" fill="#C64635"/>
<path d="M70.4688 63.5938C80.9104 63.5938 89.375 55.1291 89.375 44.6875C89.375 34.2459 80.9104 25.7812 70.4688 25.7812C60.0271 25.7812 51.5625 34.2459 51.5625 44.6875C51.5625 55.1291 60.0271 63.5938 70.4688 63.5938Z" fill="#FFD55D"/>
<path d="M80.7812 60.1477C80.4205 60.1477 80.0689 60.0342 79.7763 59.8232C79.4836 59.6123 79.2648 59.3146 79.1507 58.9724C79.0366 58.6302 79.0331 58.2608 79.1407 57.9164C79.2482 57.5721 79.4614 57.2703 79.75 57.0539C82.3437 55.1049 84.259 52.3896 85.2248 49.2923C86.1906 46.1949 86.1581 42.8723 85.1318 39.7945C84.1055 36.7167 82.1375 34.0394 79.5061 32.1415C76.8747 30.2436 73.7132 29.2211 70.4688 29.2188C70.0129 29.2187 69.5757 29.0377 69.2534 28.7153C68.9311 28.393 68.75 27.9558 68.75 27.5C68.75 27.0442 68.9311 26.607 69.2534 26.2847C69.5757 25.9623 70.0129 25.7812 70.4688 25.7812C74.4342 25.7841 78.2984 27.0338 81.5146 29.3535C84.7308 31.6731 87.1362 34.9453 88.3905 38.7072C89.6448 42.469 89.6846 46.53 88.5041 50.3157C87.3236 54.1014 84.9827 57.42 81.8125 59.8022C81.5157 60.0268 81.1535 60.1482 80.7812 60.1477Z" fill="#FFE69E"/>
<path d="M70.4688 60.1562C79.0119 60.1562 85.9375 53.2307 85.9375 44.6875C85.9375 36.1443 79.0119 29.2188 70.4688 29.2188C61.9256 29.2188 55 36.1443 55 44.6875C55 53.2307 61.9256 60.1562 70.4688 60.1562Z" fill="#F4AC1C"/>
<path d="M70.4688 29.2188C69.8944 29.2205 69.3206 29.2543 68.75 29.3202C72.5215 29.7542 76.0017 31.56 78.528 34.3937C81.0544 37.2274 82.4504 40.8912 82.4504 44.6876C82.4504 48.4839 81.0544 52.1477 78.528 54.9815C76.0017 57.8152 72.5215 59.6209 68.75 60.0549C70.8442 60.2958 72.9655 60.1061 74.9837 59.4975C77.002 58.8889 78.8745 57.8742 80.4864 56.5157C82.0983 55.1572 83.4155 53.4836 84.3572 51.5976C85.2989 49.7116 85.8451 47.6531 85.9624 45.5484C86.0797 43.4436 85.7656 41.3371 85.0394 39.3582C84.3131 37.3792 83.1901 35.5696 81.7391 34.0404C80.2882 32.5112 78.54 31.2947 76.6019 30.4656C74.6638 29.6364 72.5767 29.2122 70.4688 29.2188Z" fill="#F49E06"/>
<path d="M68.75 42.9688C68.0701 42.9688 67.4055 42.7671 66.8402 42.3894C66.2749 42.0117 65.8343 41.4748 65.5742 40.8467C65.314 40.2186 65.2459 39.5274 65.3786 38.8606C65.5112 38.1938 65.8386 37.5813 66.3193 37.1006C66.8001 36.6198 67.4126 36.2924 68.0794 36.1598C68.7462 36.0272 69.4374 36.0952 70.0655 36.3554C70.6936 36.6156 71.2305 37.0562 71.6082 37.6215C71.9859 38.1868 72.1875 38.8514 72.1875 39.5312H75.625C75.6193 38.0115 75.1102 36.5365 74.1773 35.3368C73.2444 34.137 71.9402 33.2802 70.4688 32.9003V30.9375H67.0312V32.9003C65.4128 33.3169 64.0021 34.3098 63.0638 35.6927C62.1255 37.0756 61.7241 38.7534 61.9351 40.4112C62.1461 42.069 62.9548 43.5928 64.2096 44.6966C65.4643 45.8004 67.0788 46.4083 68.75 46.4062C69.4299 46.4063 70.0945 46.6079 70.6598 46.9856C71.2251 47.3633 71.6657 47.9002 71.9258 48.5283C72.186 49.1564 72.2541 49.8476 72.1214 50.5144C71.9888 51.1812 71.6614 51.7937 71.1807 52.2744C70.6999 52.7552 70.0874 53.0826 69.4206 53.2152C68.7538 53.3478 68.0626 53.2798 67.4345 53.0196C66.8064 52.7594 66.2695 52.3188 65.8918 51.7535C65.5141 51.1882 65.3125 50.5236 65.3125 49.8438H61.875C61.8807 51.3635 62.3898 52.8385 63.3227 54.0382C64.2556 55.238 65.5598 56.0948 67.0312 56.4747V58.4375H70.4688V56.4747C72.0872 56.0581 73.4979 55.0652 74.4362 53.6823C75.3745 52.2994 75.7759 50.6216 75.5649 48.9638C75.3539 47.306 74.5452 45.7822 73.2904 44.6784C72.0357 43.5746 70.4212 42.9667 68.75 42.9688Z" fill="#F49E06"/>
<path d="M70.4688 42.9688C69.7889 42.9688 69.1243 42.7671 68.559 42.3894C67.9937 42.0117 67.5531 41.4748 67.2929 40.8467C67.0327 40.2186 66.9647 39.5274 67.0973 38.8606C67.2299 38.1938 67.5573 37.5813 68.0381 37.1006C68.5188 36.6198 69.1313 36.2924 69.7981 36.1598C70.4649 36.0272 71.1561 36.0952 71.7842 36.3554C72.4123 36.6156 72.9492 37.0562 73.3269 37.6215C73.7046 38.1868 73.9062 38.8514 73.9062 39.5312H77.3438C77.3381 38.0115 76.829 36.5365 75.896 35.3368C74.9631 34.137 73.659 33.2802 72.1875 32.9003V30.9375H68.75V32.9003C67.1316 33.3169 65.7208 34.3098 64.7825 35.6927C63.8442 37.0756 63.4429 38.7534 63.6538 40.4112C63.8648 42.069 64.6736 43.5928 65.9283 44.6966C67.1831 45.8004 68.7976 46.4083 70.4688 46.4062C71.1486 46.4062 71.8132 46.6079 72.3785 46.9856C72.9438 47.3633 73.3844 47.9002 73.6446 48.5283C73.9048 49.1564 73.9728 49.8476 73.8402 50.5144C73.7076 51.1812 73.3802 51.7937 72.8994 52.2744C72.4187 52.7552 71.8062 53.0826 71.1394 53.2152C70.4726 53.3478 69.7814 53.2798 69.1533 53.0196C68.5252 52.7594 67.9883 52.3188 67.6106 51.7535C67.2329 51.1882 67.0312 50.5236 67.0312 49.8438H63.5938C63.5994 51.3635 64.1085 52.8385 65.0415 54.0382C65.9744 55.238 67.2785 56.0948 68.75 56.4747V58.4375H72.1875V56.4747C73.8059 56.0581 75.2167 55.0652 76.155 53.6823C77.0933 52.2994 77.4946 50.6216 77.2837 48.9638C77.0727 47.306 76.2639 45.7822 75.0092 44.6784C73.7544 43.5746 72.1399 42.9667 70.4688 42.9688Z" fill="#FFD55D"/>
<path d="M39.5312 63.5938C49.9729 63.5938 58.4375 55.1291 58.4375 44.6875C58.4375 34.2459 49.9729 25.7812 39.5312 25.7812C29.0896 25.7812 20.625 34.2459 20.625 44.6875C20.625 55.1291 29.0896 63.5938 39.5312 63.5938Z" fill="#953528"/>
<path d="M39.5309 56.7188C49.7921 56.7188 58.1105 49.7932 58.1105 41.25C58.1105 32.7068 49.7921 25.7812 39.5309 25.7812C29.2696 25.7812 20.9512 32.7068 20.9512 41.25C20.9512 49.7932 29.2696 56.7188 39.5309 56.7188Z" fill="#C64635"/>
<path d="M32.6562 36.0938V53.2812L49.842 44.6875L32.6562 36.0938Z" fill="white"/>
<path d="M13.75 80.7812C12.8383 80.7812 11.964 81.1434 11.3193 81.7881C10.6747 82.4327 10.3125 83.3071 10.3125 84.2188C10.3125 85.1304 10.6747 86.0048 11.3193 86.6494C11.964 87.2941 12.8383 87.6562 13.75 87.6562H44.6875V80.7812H13.75Z" fill="#70281E"/>
<path d="M96.25 80.7812H44.6875V87.6562H96.25C97.1617 87.6562 98.036 87.2941 98.6807 86.6494C99.3253 86.0048 99.6875 85.1304 99.6875 84.2188C99.6875 83.3071 99.3253 82.4327 98.6807 81.7881C98.036 81.1434 97.1617 80.7812 96.25 80.7812Z" fill="#E6F5F5"/>
<path d="M44.6875 80.7812H68.75V87.6562H44.6875V80.7812Z" fill="#CEDADA"/>
<path d="M106.562 24.0625C106.562 22.164 105.023 20.625 103.125 20.625C101.227 20.625 99.6875 22.164 99.6875 24.0625V46.4062C99.6875 48.3047 101.227 49.8438 103.125 49.8438C105.023 49.8438 106.562 48.3047 106.562 46.4062V24.0625Z" fill="white"/>
<path d="M106.562 56.7188C106.562 54.8203 105.023 53.2812 103.125 53.2812C101.227 53.2812 99.6875 54.8203 99.6875 56.7188V61.875C99.6875 63.7735 101.227 65.3125 103.125 65.3125C105.023 65.3125 106.562 63.7735 106.562 61.875V56.7188Z" fill="white"/>
<path d="M51.0675 36.4302C52.1952 34.9039 51.2533 32.2952 48.9638 30.6037C46.6742 28.9121 43.9039 28.7782 42.7763 30.3046C41.6486 31.831 42.5904 34.4396 44.88 36.1312C47.1696 37.8227 49.9398 37.9566 51.0675 36.4302Z" fill="white"/>
</svg>
