<svg width="110" height="110" viewBox="0 0 110 110" fill="none" xmlns="http://www.w3.org/2000/svg">
<g clip-path="url(#clip0_1254_604)">
<path d="M65.3125 99.6875L61.875 89.375H48.125L44.6875 99.6875H65.3125Z" fill="#A4B7B6"/>
<path d="M65.313 99.6877L62.6541 91.7109H53.2388C52.5713 91.7111 51.9207 91.9211 51.3791 92.3113C50.8375 92.7015 50.4323 93.2521 50.2207 93.8852L48.2871 99.6877H65.313Z" fill="#DEEBEB"/>
<path d="M99.6875 20.625H10.3125C6.51554 20.625 3.4375 23.703 3.4375 27.5V82.5C3.4375 86.297 6.51554 89.375 10.3125 89.375H99.6875C103.484 89.375 106.562 86.297 106.562 82.5V27.5C106.562 23.703 103.484 20.625 99.6875 20.625Z" fill="#EDF4F4"/>
<path d="M99.6875 20.625H10.3125C8.48914 20.625 6.74045 21.3493 5.45114 22.6386C4.16183 23.928 3.4375 25.6766 3.4375 27.5V77.3438H106.562V27.5C106.562 25.6766 105.838 23.928 104.549 22.6386C103.26 21.3493 101.511 20.625 99.6875 20.625Z" fill="#98ABBB"/>
<path d="M29.2188 99.6875H80.7812C81.6929 99.6875 82.5673 100.05 83.2119 100.694C83.8566 101.339 84.2188 102.213 84.2188 103.125V106.562H25.7812V103.125C25.7812 102.213 26.1434 101.339 26.7881 100.694C27.4327 100.05 28.3071 99.6875 29.2188 99.6875Z" fill="#EDF4F4"/>
<path d="M103.125 80.8861V84.1139C103.125 84.5976 102.933 85.0614 102.591 85.4034C102.249 85.7454 101.785 85.9375 101.301 85.9375H98.0736C97.5899 85.9375 97.1261 85.7454 96.7841 85.4034C96.4421 85.0614 96.25 84.5976 96.25 84.1139C96.2502 83.6303 96.4425 83.1667 96.7845 82.8248L100.012 79.597C100.354 79.255 100.818 79.0627 101.301 79.0625C101.785 79.0625 102.249 79.2546 102.591 79.5966C102.933 79.9386 103.125 80.4024 103.125 80.8861Z" fill="white"/>
<path opacity="0.2" d="M10.3125 77.3438V20.625C9.10218 20.6313 7.91548 20.9606 6.875 21.5789V77.3438C6.875 78.2554 7.23716 79.1298 7.88182 79.7744C8.52648 80.4191 9.40082 80.7812 10.3125 80.7812H96.5319C97.3688 80.7812 98.1714 80.4488 98.7632 79.857C99.355 79.2652 99.6875 78.4626 99.6875 77.6256V77.3438H10.3125Z" fill="black"/>
<path d="M10.3125 77.3438V5.15625C10.3125 4.70041 10.4936 4.26324 10.8159 3.94091C11.1382 3.61858 11.5754 3.4375 12.0312 3.4375H97.9688C98.4246 3.4375 98.8618 3.61858 99.1841 3.94091C99.5064 4.26324 99.6875 4.70041 99.6875 5.15625V77.3438H10.3125Z" fill="#CEDADA"/>
<path d="M17.1875 3.4375H97.9688C98.4246 3.4375 98.8618 3.61858 99.1841 3.94091C99.5064 4.26324 99.6875 4.70041 99.6875 5.15625V72.1875H60.8197C49.2477 72.1875 38.1497 67.5906 29.9671 59.4079C21.7844 51.2253 17.1875 40.1273 17.1875 28.5553V3.4375Z" fill="#E6F5F5"/>
<path d="M61.5625 47.6562H95.9375C96.8492 47.6562 97.7235 48.0184 98.3682 48.6631C99.0128 49.3077 99.375 50.1821 99.375 51.0938V85.4688C99.375 86.3804 99.0128 87.2548 98.3682 87.8994C97.7235 88.5441 96.8492 88.9062 95.9375 88.9062H54.6875C53.7758 88.9062 52.9015 88.5441 52.2568 87.8994C51.6122 87.2548 51.25 86.3804 51.25 85.4688V56.25L61.5625 47.6562Z" fill="#E8E4DB"/>
<path d="M95.9375 47.6562H69.8125C68.5361 47.6562 67.3121 48.1633 66.4096 49.0658C65.507 49.9683 65 51.1924 65 52.4687V74.7455C65 77.5895 66.1298 80.317 68.1408 82.328C70.1518 84.339 72.8793 85.4687 75.7233 85.4688H99.375V51.0938C99.375 50.1821 99.0128 49.3077 98.3682 48.6631C97.7235 48.0184 96.8492 47.6562 95.9375 47.6562Z" fill="#F7F3EA"/>
<path d="M75.3125 83.75C72.9329 83.75 70.6068 83.0444 68.6283 81.7224C66.6498 80.4004 65.1077 78.5213 64.1971 76.3229C63.2865 74.1245 63.0482 71.7054 63.5124 69.3716C63.9767 67.0377 65.1225 64.894 66.8051 63.2114C68.4877 61.5288 70.6315 60.3829 72.9653 59.9187C75.2992 59.4545 77.7182 59.6927 79.9167 60.6033C82.1151 61.5139 83.9941 63.056 85.3161 65.0346C86.6381 67.0131 87.3438 69.3392 87.3438 71.7188C87.3401 74.9085 86.0714 77.9666 83.8159 80.2221C81.5604 82.4776 78.5023 83.7464 75.3125 83.75ZM75.3125 63.125C73.6128 63.125 71.9513 63.629 70.5381 64.5733C69.1248 65.5176 68.0234 66.8598 67.3729 68.4301C66.7225 70.0004 66.5523 71.7283 66.8839 73.3953C67.2155 75.0623 68.0339 76.5936 69.2358 77.7955C70.4377 78.9973 71.9689 79.8158 73.6359 80.1474C75.303 80.479 77.0309 80.3088 78.6012 79.6583C80.1715 79.0079 81.5137 77.9064 82.4579 76.4932C83.4022 75.08 83.9063 73.4184 83.9063 71.7188C83.9035 69.4404 82.9972 67.2561 81.3862 65.6451C79.7751 64.034 77.5909 63.1277 75.3125 63.125Z" fill="#E8E4DB"/>
<path d="M51.25 68.2812H99.375V51.0938C99.375 50.1821 99.0128 49.3077 98.3682 48.6631C97.7235 48.0184 96.8492 47.6562 95.9375 47.6562H54.6875C53.7758 47.6562 52.9015 48.0184 52.2568 48.6631C51.6122 49.3077 51.25 50.1821 51.25 51.0938V68.2812Z" fill="#5E3C26"/>
<path d="M95.9375 47.6562H69.8125C68.5361 47.6562 67.3121 48.1633 66.4096 49.0658C65.507 49.9683 65 51.1924 65 52.4687V68.2812H99.375V51.0938C99.375 50.1821 99.0128 49.3077 98.3682 48.6631C97.7235 48.0184 96.8492 47.6562 95.9375 47.6562Z" fill="#7D5032"/>
<path d="M75.3125 78.5938C81.0079 78.5938 85.625 73.9767 85.625 68.2812C85.625 62.5858 81.0079 57.9688 75.3125 57.9688C69.6171 57.9688 65 62.5858 65 68.2812C65 73.9767 69.6171 78.5938 75.3125 78.5938Z" fill="#2E7DEF"/>
<path d="M77.8906 78.2549C82.1622 78.2549 85.625 73.7895 85.625 68.281C85.625 62.7726 82.1622 58.3071 77.8906 58.3071C73.619 58.3071 70.1562 62.7726 70.1562 68.281C70.1562 73.7895 73.619 78.2549 77.8906 78.2549Z" fill="#5897F2"/>
<path d="M75.3125 80.3125C72.9329 80.3125 70.6068 79.6069 68.6283 78.2849C66.6498 76.9629 65.1077 75.0838 64.1971 72.8854C63.2865 70.687 63.0482 68.2679 63.5124 65.9341C63.9767 63.6002 65.1225 61.4565 66.8051 59.7739C68.4877 58.0913 70.6315 56.9454 72.9653 56.4812C75.2992 56.017 77.7182 56.2552 79.9167 57.1658C82.1151 58.0764 83.9941 59.6185 85.3161 61.5971C86.6381 63.5756 87.3438 65.9017 87.3438 68.2813C87.3401 71.471 86.0714 74.5291 83.8159 76.7846C81.5604 79.0401 78.5023 80.3089 75.3125 80.3125ZM75.3125 59.6875C73.6128 59.6875 71.9513 60.1915 70.5381 61.1358C69.1248 62.0801 68.0234 63.4223 67.3729 64.9926C66.7225 66.5629 66.5523 68.2908 66.8839 69.9578C67.2155 71.6248 68.0339 73.1561 69.2358 74.358C70.4377 75.5598 71.9689 76.3783 73.6359 76.7099C75.303 77.0415 77.0309 76.8713 78.6012 76.2208C80.1715 75.5704 81.5137 74.4689 82.4579 73.0557C83.4022 71.6425 83.9063 69.9809 83.9063 68.2813C83.9035 66.0029 82.9972 63.8186 81.3862 62.2076C79.7751 60.5965 77.5909 59.6902 75.3125 59.6875Z" fill="#EDF4F4"/>
<path d="M87.3438 52.8125H94.2188V56.25H87.3438V52.8125Z" fill="#EDF4F4"/>
<path d="M58.125 15H13.4375C11.539 15 10 16.539 10 18.4375V52.8125C10 54.711 11.539 56.25 13.4375 56.25H58.125C60.0235 56.25 61.5625 54.711 61.5625 52.8125V18.4375C61.5625 16.539 60.0235 15 58.125 15Z" fill="#953528"/>
<path d="M58.125 15H16.875V36.6339C16.875 40.4689 18.3984 44.1468 21.1102 46.8586C23.8219 49.5703 27.4999 51.0938 31.3348 51.0938H61.5625V18.4375C61.5625 17.5258 61.2003 16.6515 60.5557 16.0068C59.911 15.3622 59.0367 15 58.125 15Z" fill="#C64635"/>
<path d="M35.7812 49.375C43.3752 49.375 49.5312 43.2189 49.5312 35.625C49.5312 28.0311 43.3752 21.875 35.7812 21.875C28.1873 21.875 22.0312 28.0311 22.0312 35.625C22.0312 43.2189 28.1873 49.375 35.7812 49.375Z" fill="#EDF4F4"/>
<path d="M32.3438 30.4688V40.7812L40.9375 35.625L32.3438 30.4688Z" fill="#C64635"/>
<path d="M97.6352 75.8439V80.6684C97.6352 81.0265 97.5646 81.3811 97.4273 81.7118C97.2901 82.0426 97.0889 82.343 96.8354 82.5959C96.5819 82.8488 96.2809 83.0492 95.9498 83.1856C95.6187 83.322 95.264 83.3918 94.9059 83.3909H90.0934C89.7357 83.3911 89.3815 83.3209 89.051 83.1841C88.7205 83.0474 88.4201 82.8469 88.1672 82.5941C87.9142 82.3413 87.7135 82.0411 87.5765 81.7106C87.4396 81.3802 87.3691 81.0261 87.3691 80.6684C87.369 80.3106 87.4394 79.9563 87.5762 79.6257C87.7131 79.2951 87.9137 78.9947 88.1666 78.7417L92.9912 73.9171C93.5017 73.4066 94.1941 73.1197 94.9162 73.1196C95.6378 73.121 96.3294 73.4086 96.8392 73.9194C97.3489 74.4301 97.6352 75.1222 97.6352 75.8439Z" fill="#FCFAF7"/>
<path d="M57.632 25.6524C58.7596 24.126 57.8178 21.5174 55.5282 19.8258C53.2386 18.1343 50.4684 18.0004 49.3407 19.5268C48.213 21.0532 49.1549 23.6618 51.4445 25.3533C53.734 27.0449 56.5043 27.1788 57.632 25.6524Z" fill="white"/>
<path d="M79.7805 47.2964L86.0626 56.7185L92.3446 47.2964C97.9752 45.7735 102.861 42.2573 106.093 37.4017C109.325 32.5462 110.684 26.6819 109.916 20.8998C109.147 15.1176 106.305 9.81132 101.918 5.96797C97.5298 2.12461 91.8955 0.00585938 86.0626 0.00585938C80.2296 0.00585937 74.5953 2.12461 70.2076 5.96797C65.8199 9.81132 62.9777 15.1176 62.2096 20.8998C61.4415 26.6819 62.7999 32.5462 66.032 37.4017C69.2641 42.2573 74.1499 45.7735 79.7805 47.2964Z" fill="#FFD55D"/>
<path d="M70.5943 41.9014C70.1496 41.9019 69.7221 41.73 69.4014 41.4219C65.9379 38.0973 63.5481 33.8126 62.5392 29.1189C61.5304 24.4251 61.9487 19.5369 63.7403 15.0828C65.5319 10.6287 68.615 6.81235 72.593 4.12453C76.571 1.4367 81.2621 0.000289416 86.063 0C86.5189 0 86.956 0.181082 87.2784 0.503411C87.6007 0.825739 87.7818 1.26291 87.7818 1.71875C87.7818 2.17459 87.6007 2.61176 87.2784 2.93409C86.956 3.25642 86.5189 3.4375 86.063 3.4375C81.9476 3.43782 77.9263 4.66932 74.5164 6.97361C71.1066 9.27789 68.464 12.5496 66.9287 16.3679C65.3933 20.1863 65.0354 24.3766 65.9009 28.4C66.7664 32.4234 68.8157 36.0959 71.7854 38.9452C72.0319 39.1828 72.2019 39.4888 72.2734 39.8237C72.345 40.1586 72.3148 40.5073 72.1868 40.825C72.0588 41.1427 71.8388 41.4148 71.5551 41.6066C71.2713 41.7984 70.9368 41.9011 70.5943 41.9014Z" fill="#FFE69E"/>
<path d="M81.9238 44.3145L80.676 43.9707C75.85 42.665 71.6626 39.6508 68.8926 35.4889C66.1226 31.3269 64.9587 26.3005 65.6173 21.3446C66.2759 16.3887 68.7122 11.8407 72.473 8.54656C76.2338 5.25247 81.0631 3.43652 86.0626 3.43652C91.062 3.43652 95.8913 5.25247 99.6521 8.54656C103.413 11.8407 105.849 16.3887 106.508 21.3446C107.166 26.3005 106.002 31.3269 103.232 35.4889C100.462 39.6508 96.2751 42.665 91.4491 43.9707L90.2013 44.3145L86.0626 50.5312L81.9238 44.3145Z" fill="#F4AC1C"/>
<path d="M97.53 40.5797C96.999 40.5798 96.481 40.416 96.0466 40.1106C95.6123 39.8053 95.2828 39.3733 95.1032 38.8736C94.9236 38.3739 94.9027 37.831 95.0433 37.319C95.1838 36.807 95.4791 36.3509 95.8886 36.013C98.3517 33.9886 100.129 31.2525 100.978 28.1792C101.826 25.1058 101.704 21.8454 100.629 18.844C99.5531 15.8426 97.5763 13.2469 94.9689 11.4121C92.3615 9.57721 89.2508 8.59287 86.0625 8.59375C85.3787 8.59375 84.723 8.32213 84.2395 7.83864C83.756 7.35514 83.4844 6.69939 83.4844 6.01563C83.4844 5.33186 83.756 4.67611 84.2395 4.19262C84.723 3.70912 85.3787 3.4375 86.0625 3.4375C90.313 3.4363 94.46 4.74834 97.9363 7.19413C101.413 9.63992 104.048 13.1 105.483 17.101C106.918 21.1021 107.081 25.4487 105.951 29.5461C104.821 33.6436 102.452 37.2919 99.1697 39.9919C98.7079 40.3721 98.1282 40.5799 97.53 40.5797Z" fill="#F49E06"/>
<path d="M86.0633 22.5156V12.3475C87.0652 12.7017 87.9331 13.3568 88.5485 14.2232C89.1638 15.0895 89.4964 16.1249 89.5008 17.1875H92.9383C92.9358 15.2071 92.2506 13.2882 90.9983 11.7541C89.746 10.22 88.0031 9.16454 86.0633 8.76563V5.15625H82.6258V8.76563C80.6831 9.1601 78.9366 10.2141 77.682 11.7489C76.4275 13.2838 75.7422 15.2052 75.7422 17.1875C75.7422 19.1698 76.4275 21.0912 77.682 22.6261C78.9366 24.1609 80.6831 25.2149 82.6258 25.6094V35.7792C81.6237 35.4249 80.7555 34.7696 80.1401 33.9028C79.5248 33.0361 79.1924 32.0004 79.1883 30.9375H75.7508C75.7533 32.9179 76.4385 34.8368 77.6908 36.3709C78.9431 37.905 80.686 38.9605 82.6258 39.3594V42.9688H86.0633V39.3594C88.006 38.9649 89.7526 37.9109 91.0071 36.3761C92.2616 34.8412 92.9469 32.9198 92.9469 30.9375C92.9469 28.9552 92.2616 27.0338 91.0071 25.4989C89.7526 23.9641 88.006 22.9101 86.0633 22.5156ZM79.1883 17.1875C79.1927 16.1249 79.5253 15.0895 80.1406 14.2232C80.756 13.3568 81.6239 12.7017 82.6258 12.3475V22.0275C81.6239 21.6733 80.756 21.0182 80.1406 20.1518C79.5253 19.2855 79.1927 18.2501 79.1883 17.1875ZM86.0633 35.7775V26.0975C87.068 26.4475 87.9389 27.1015 88.5551 27.9688C89.1713 28.836 89.5024 29.8736 89.5024 30.9375C89.5024 32.0014 89.1713 33.039 88.5551 33.9062C87.9389 34.7735 87.068 35.4275 86.0633 35.7775Z" fill="#F49E06"/>
<path d="M87.7821 22.5156V12.3475C88.7839 12.7017 89.6519 13.3568 90.2672 14.2232C90.8825 15.0895 91.2151 16.1249 91.2196 17.1875H94.6571C94.6546 15.2071 93.9694 13.2882 92.7171 11.7541C91.4647 10.22 89.7218 9.16454 87.7821 8.76563V5.15625H84.3446V8.76563C82.4019 9.1601 80.6553 10.2141 79.4008 11.7489C78.1463 13.2838 77.4609 15.2052 77.4609 17.1875C77.4609 19.1698 78.1463 21.0912 79.4008 22.6261C80.6553 24.1609 82.4019 25.2149 84.3446 25.6094V35.7792C83.3424 35.4249 82.4742 34.7696 81.8589 33.9028C81.2436 33.0361 80.9111 32.0004 80.9071 30.9375H77.4696C77.4721 32.9179 78.1572 34.8368 79.4095 36.3709C80.6619 37.905 82.4048 38.9605 84.3446 39.3594V42.9688H87.7821V39.3594C89.7247 38.9649 91.4713 37.9109 92.7258 36.3761C93.9803 34.8412 94.6657 32.9198 94.6657 30.9375C94.6657 28.9552 93.9803 27.0338 92.7258 25.4989C91.4713 23.9641 89.7247 22.9101 87.7821 22.5156ZM80.9071 17.1875C80.9115 16.1249 81.2441 15.0895 81.8594 14.2232C82.4747 13.3568 83.3427 12.7017 84.3446 12.3475V22.0275C83.3427 21.6733 82.4747 21.0182 81.8594 20.1518C81.2441 19.2855 80.9115 18.2501 80.9071 17.1875ZM87.7821 35.7775V26.0975C88.7867 26.4475 89.6576 27.1015 90.2738 27.9688C90.8901 28.836 91.2212 29.8736 91.2212 30.9375C91.2212 32.0014 90.8901 33.039 90.2738 33.9062C89.6576 34.7735 88.7867 35.4275 87.7821 35.7775Z" fill="#FFD55D"/>
</g>
<defs>
<clipPath id="clip0_1254_604">
<rect width="110" height="110" fill="white"/>
</clipPath>
</defs>
</svg>
