<svg width="110" height="110" viewBox="0 0 110 110" fill="none" xmlns="http://www.w3.org/2000/svg">
<path d="M37.8125 96.25V103.125C37.8125 104.037 38.1747 104.911 38.8193 105.556C39.464 106.2 40.3383 106.562 41.25 106.562H92.8125C93.7242 106.562 94.5985 106.2 95.2432 105.556C95.8878 104.911 96.25 104.037 96.25 103.125V6.875C96.25 5.96332 95.8878 5.08898 95.2432 4.44432C94.5985 3.79966 93.7242 3.4375 92.8125 3.4375H41.25C40.3383 3.4375 39.464 3.79966 38.8193 4.44432C38.1747 5.08898 37.8125 5.96332 37.8125 6.875V96.25Z" fill="#1C2023"/>
<path d="M92.8125 3.4375H46.4062V61.2958C46.4062 70.5662 50.0889 79.457 56.6441 86.0121C63.1993 92.5673 72.09 96.25 81.3605 96.25H96.25V6.875C96.25 5.96332 95.8878 5.08898 95.2432 4.44432C94.5985 3.79966 93.7242 3.4375 92.8125 3.4375Z" fill="#262B2F"/>
<path d="M41.25 6.875H92.8125V103.125H41.25V6.875Z" fill="#CEDADA"/>
<path d="M92.8125 6.875H46.4062V61.2958C46.4062 70.5662 50.0889 79.457 56.6441 86.0121C63.1993 92.5673 72.09 96.25 81.3605 96.25H92.8125V6.875Z" fill="#E6F5F5"/>
<path d="M55 3.4375V6.875C55 7.78668 55.3622 8.66102 56.0068 9.30568C56.6515 9.95034 57.5258 10.3125 58.4375 10.3125H75.625C76.5367 10.3125 77.411 9.95034 78.0557 9.30568C78.7003 8.66102 79.0625 7.78668 79.0625 6.875V3.4375H55Z" fill="#262B2F"/>
<path d="M48.125 39.5312H85.9375V67.0312H48.125V39.5312Z" fill="#FFE69E"/>
<path opacity="0.1" d="M80.7812 41.25L80.4375 39.5312H53.625L53.2812 41.25H48.125V49.7578C48.408 49.8144 48.6958 49.8432 48.9844 49.8438C50.124 49.8438 51.2169 49.391 52.0227 48.5852C52.8285 47.7794 53.2812 46.6865 53.2812 45.5469C53.2813 46.6865 53.734 47.7794 54.5398 48.5852C55.3456 49.391 56.4385 49.8438 57.5781 49.8438C58.7177 49.8438 59.8107 49.391 60.6165 48.5852C61.4223 47.7794 61.875 46.6865 61.875 45.5469V44.6875C61.875 46.055 62.4182 47.3665 63.3852 48.3335C64.3522 49.3005 65.6637 49.8437 67.0312 49.8438C68.3988 49.8437 69.7103 49.3005 70.6773 48.3335C71.6443 47.3665 72.1875 46.055 72.1875 44.6875V45.5469C72.1875 46.6865 72.6402 47.7794 73.446 48.5852C74.2518 49.391 75.3448 49.8438 76.4844 49.8438C77.624 49.8438 78.7169 49.391 79.5227 48.5852C80.3285 47.7794 80.7812 46.6865 80.7812 45.5469C80.7812 46.6865 81.234 47.7794 82.0398 48.5852C82.8456 49.391 83.9385 49.8438 85.0781 49.8438C85.3667 49.8432 85.6545 49.8144 85.9375 49.7578V41.25H80.7812Z" fill="black"/>
<path d="M89.375 37.8125H44.6875L48.125 20.625H85.9375L89.375 37.8125Z" fill="#953528"/>
<path d="M44.6875 37.8125V42.1094C44.6875 43.249 45.1402 44.3419 45.946 45.1477C46.7518 45.9535 47.8448 46.4062 48.9844 46.4062C50.124 46.4062 51.2169 45.9535 52.0227 45.1477C52.8285 44.3419 53.2812 43.249 53.2812 42.1094V37.8125H44.6875Z" fill="#953528"/>
<path d="M63.5938 20.625L61.875 37.8125V42.1094C61.875 43.249 61.4223 44.3419 60.6165 45.1477C59.8107 45.9535 58.7177 46.4062 57.5781 46.4062C56.4385 46.4062 55.3456 45.9535 54.5398 45.1477C53.734 44.3419 53.2812 43.249 53.2812 42.1094V37.8125L56.7188 20.625H63.5938Z" fill="#C64635"/>
<path d="M80.7812 42.1094C80.7812 43.249 81.234 44.3419 82.0398 45.1477C82.8456 45.9535 83.9385 46.4062 85.0781 46.4062C86.2177 46.4062 87.3107 45.9535 88.1165 45.1477C88.9223 44.3419 89.375 43.249 89.375 42.1094V37.8125H80.7812V42.1094Z" fill="#953528"/>
<path d="M72.1875 37.8125V41.25C72.1875 42.6175 71.6443 43.929 70.6773 44.896C69.7103 45.863 68.3988 46.4062 67.0312 46.4062C65.6637 46.4062 64.3522 45.863 63.3852 44.896C62.4182 43.929 61.875 42.6175 61.875 41.25V37.8125L63.5938 20.625H70.4688L72.1875 37.8125Z" fill="#953528"/>
<path d="M57.3594 67.0312H87.6558C88.1116 67.0312 88.5488 67.2123 88.8711 67.5347C89.1935 67.857 89.3745 68.2942 89.3745 68.75V73.9062H58.437L57.3594 67.0312Z" fill="#A4B7B6"/>
<path d="M56.7188 53.2812H77.3438V67.0312H56.7188V53.2812Z" fill="#F4AC1C"/>
<path d="M65.3125 53.2812H68.75V67.0312H65.3125V53.2812Z" fill="#E5970C"/>
<path d="M70.4688 20.625L72.1875 37.8125V42.1094C72.1875 43.249 72.6402 44.3419 73.446 45.1477C74.2518 45.9535 75.3448 46.4062 76.4844 46.4062C77.624 46.4062 78.7169 45.9535 79.5227 45.1477C80.3285 44.3419 80.7812 43.249 80.7812 42.1094V37.8125L77.3438 20.625H70.4688Z" fill="#C64635"/>
<path opacity="0.1" d="M89.375 37.8125H44.6875L48.125 20.625H85.9375L89.375 37.8125Z" fill="white"/>
<path d="M49.5 0.687502C48.9055 0.240345 46.9939 -0.000993047 46.25 3.07124e-06H8.4375C7.52582 3.07124e-06 6.65148 0.362168 6.00682 1.00682C5.36216 1.65148 5 2.52582 5 3.4375V29.5625V36.0938H46.25C47.1617 36.0938 48.036 35.7316 48.6807 35.0869C49.3253 34.4423 49.6875 33.5679 49.6875 32.6563V14.5613L49.5 0.687502Z" fill="#953528"/>
<path d="M8.4375 0C7.52582 0 6.65148 0.362165 6.00682 1.00682C5.36216 1.65148 5 2.52582 5 3.4375V29.5625V32.6562H31.2677C34.7854 32.6562 38.159 31.2588 40.6464 28.7714C43.1338 26.284 44.5312 22.9104 44.5312 19.3927V0H8.4375Z" fill="#C64635"/>
<path d="M18.75 8.59375C16.9266 8.59375 15.178 9.31808 13.8886 10.6074C12.5993 11.8967 11.875 13.6454 11.875 15.4688V27.5H15.3125V22.3438H22.1875V27.5H25.625V15.4688C25.625 13.6454 24.9007 11.8967 23.6114 10.6074C22.322 9.31808 20.5734 8.59375 18.75 8.59375ZM15.3125 18.9062V15.4688C15.3125 14.5571 15.6747 13.6827 16.3193 13.0381C16.964 12.3934 17.8383 12.0312 18.75 12.0312C19.6617 12.0312 20.536 12.3934 21.1807 13.0381C21.8253 13.6827 22.1875 14.5571 22.1875 15.4688V18.9062H15.3125Z" fill="white"/>
<path d="M34.2188 8.59375H30.7812C30.3254 8.59375 29.8882 8.77483 29.5659 9.09716C29.2436 9.41949 29.0625 9.85666 29.0625 10.3125V25.7812C29.0625 26.2371 29.2436 26.6743 29.5659 26.9966C29.8882 27.3189 30.3254 27.5 30.7812 27.5H34.2188C36.4971 27.4973 38.6814 26.591 40.2924 24.9799C41.9035 23.3689 42.8098 21.1846 42.8125 18.9062V17.1875C42.8098 14.9091 41.9035 12.7249 40.2924 11.1138C38.6814 9.50276 36.4971 8.59648 34.2188 8.59375ZM39.375 18.9062C39.375 20.2738 38.8318 21.5853 37.8648 22.5523C36.8978 23.5193 35.5863 24.0625 34.2188 24.0625H32.5V12.0312H34.2188C35.5863 12.0313 36.8978 12.5745 37.8648 13.5415C38.8318 14.5085 39.375 15.82 39.375 17.1875V18.9062Z" fill="white"/>
<path d="M12.0102 7.67583C13.5755 6.55528 14.2389 4.80093 13.4918 3.75739C12.7448 2.71385 10.8703 2.77628 9.30495 3.89684C7.73964 5.01739 7.0763 6.77174 7.82333 7.81528C8.57037 8.85882 10.4449 8.79639 12.0102 7.67583Z" fill="white"/>
<path d="M36.0938 96.25C48.4339 96.25 58.4375 86.2464 58.4375 73.9062C58.4375 61.5661 48.4339 51.5625 36.0938 51.5625C23.7536 51.5625 13.75 61.5661 13.75 73.9062C13.75 86.2464 23.7536 96.25 36.0938 96.25Z" fill="#1C7A52"/>
<path d="M49.8438 90.9855C49.4957 90.9854 49.1559 90.8798 48.8693 90.6825C48.5826 90.4851 48.3626 90.2055 48.2384 89.8804C48.1141 89.5553 48.0915 89.2002 48.1734 88.862C48.2554 88.5238 48.4381 88.2184 48.6973 87.9863C51.5469 85.4327 53.5546 82.0746 54.4551 78.3558C55.3556 74.637 55.1066 70.7325 53.7409 67.1582C52.3752 63.584 49.9572 60.5082 46.8063 58.3373C43.6554 56.1665 39.92 55.0028 36.0938 55C35.6379 55 35.2007 54.8189 34.8784 54.4966C34.5561 54.1743 34.375 53.7371 34.375 53.2813C34.375 52.8254 34.5561 52.3882 34.8784 52.0659C35.2007 51.7436 35.6379 51.5625 36.0938 51.5625C40.6181 51.5608 45.0364 52.9332 48.7636 55.498C52.4907 58.0628 55.3511 61.699 56.9661 65.9254C58.581 70.1517 58.8743 74.7689 57.8072 79.1656C56.7401 83.5624 54.3628 87.5314 50.9902 90.5472C50.6755 90.8302 50.267 90.9864 49.8438 90.9855Z" fill="#1CB15F"/>
<path d="M36.0938 92.8125C46.5354 92.8125 55 84.3479 55 73.9062C55 63.4646 46.5354 55 36.0938 55C25.6521 55 17.1875 63.4646 17.1875 73.9062C17.1875 84.3479 25.6521 92.8125 36.0938 92.8125Z" fill="#E6F5F5"/>
<path d="M36.0938 55C35.5128 55 34.9422 55.0361 34.375 55.0877C39.0753 55.5094 43.4476 57.6747 46.6319 61.1576C49.8162 64.6405 51.5821 69.1888 51.5821 73.908C51.5821 78.6271 49.8162 83.1755 46.6319 86.6583C43.4476 90.1412 39.0753 92.3065 34.375 92.7283C34.9422 92.7798 35.5128 92.8159 36.0938 92.8159C41.108 92.8159 45.9169 90.824 49.4625 87.2784C53.0081 83.7328 55 78.9239 55 73.9097C55 68.8954 53.0081 64.0866 49.4625 60.5409C45.9169 56.9953 41.108 55.0034 36.0938 55.0034V55Z" fill="#ADB8B8"/>
<path d="M49.4136 71.0497C49.2522 70.867 49.0538 70.7207 48.8315 70.6205C48.6093 70.5204 48.3683 70.4686 48.1245 70.4688H47.6433L44.5976 61.3319C44.4837 60.9898 44.265 60.6922 43.9726 60.4812C43.6802 60.2702 43.3288 60.1565 42.9683 60.1562H29.2183C28.8577 60.1565 28.5063 60.2702 28.2139 60.4812C27.9215 60.6922 27.7028 60.9898 27.5889 61.3319L24.5433 70.4688H24.062C23.8184 70.4688 23.5775 70.5207 23.3554 70.6209C23.1333 70.7212 22.9351 70.8675 22.7739 71.0502C22.6126 71.2329 22.4921 71.4478 22.4202 71.6806C22.3483 71.9134 22.3268 72.1588 22.357 72.4006L24.0758 86.1506C24.1277 86.5662 24.3296 86.9486 24.6436 87.2258C24.9575 87.5031 25.3619 87.6561 25.7808 87.6562H46.4058C46.8246 87.6561 47.229 87.5031 47.543 87.2258C47.8569 86.9486 48.0588 86.5662 48.1108 86.1506L49.8295 72.4006C49.8599 72.1588 49.8386 71.9133 49.7669 71.6804C49.6951 71.4475 49.5747 71.2325 49.4136 71.0497ZM45.7475 77.3438H41.2495V73.9062H46.1772L45.7475 77.3438ZM34.3745 77.3438V73.9062H37.812V77.3438H34.3745ZM37.812 80.7812V84.2188H34.3745V80.7812H37.812ZM26.0094 73.9062H30.937V77.3438H26.439L26.0094 73.9062ZM30.4575 63.5938H41.729L44.0219 70.4688H28.1647L30.4575 63.5938ZM26.8687 80.7812H30.937V84.2188H27.2984L26.8687 80.7812ZM41.2495 84.2188V80.7812H45.3178L44.8881 84.2188H41.2495Z" fill="#1CB15F"/>
<path d="M84.2188 87.6562C83.8788 87.6562 83.5465 87.5554 83.2639 87.3666C82.9812 87.1777 82.7609 86.9093 82.6308 86.5952C82.5007 86.2812 82.4667 85.9356 82.533 85.6022C82.5993 85.2688 82.763 84.9625 83.0034 84.7222C83.2438 84.4818 83.55 84.3181 83.8834 84.2518C84.2168 84.1855 84.5624 84.2195 84.8765 84.3496C85.1905 84.4797 85.459 84.7 85.6478 84.9826C85.8367 85.2653 85.9375 85.5976 85.9375 85.9375H89.375C89.3706 84.8749 89.038 83.8395 88.4227 82.9732C87.8073 82.1068 86.9394 81.4517 85.9375 81.0975V79.0625H82.5V81.0975C81.3541 81.5011 80.3881 82.2972 79.773 83.3448C79.1578 84.3924 78.9333 85.624 79.1392 86.8212C79.345 88.0185 79.968 89.1043 80.8977 89.8863C81.8274 90.6683 83.0039 91.0961 84.2188 91.0938C84.5587 91.0938 84.891 91.1946 85.1736 91.3834C85.4563 91.5723 85.6766 91.8407 85.8067 92.1548C85.9368 92.4688 85.9708 92.8144 85.9045 93.1478C85.8382 93.4812 85.6745 93.7875 85.4341 94.0278C85.1937 94.2682 84.8875 94.4319 84.5541 94.4982C84.2207 94.5645 83.8751 94.5305 83.561 94.4004C83.247 94.2703 82.9785 94.05 82.7897 93.7674C82.6008 93.4847 82.5 93.1524 82.5 92.8125H79.0625C79.0669 93.8751 79.3995 94.9105 80.0148 95.7768C80.6302 96.6432 81.4981 97.2983 82.5 97.6525V99.6875H85.9375V97.6525C87.0834 97.2489 88.0494 96.4528 88.6645 95.4052C89.2797 94.3576 89.5042 93.126 89.2983 91.9288C89.0925 90.7315 88.4695 89.6457 87.5398 88.8637C86.6101 88.0817 85.4336 87.6539 84.2188 87.6562Z" fill="#CEDADA"/>
<path d="M70.4688 84.2188C70.9246 84.2188 71.3618 84.3998 71.6841 84.7222C72.0064 85.0445 72.1875 85.4817 72.1875 85.9375H75.625C75.6206 84.8749 75.288 83.8395 74.6727 82.9732C74.0573 82.1068 73.1894 81.4517 72.1875 81.0975V79.0625H68.75V81.0975C67.6041 81.5011 66.6381 82.2972 66.023 83.3448C65.4078 84.3924 65.1833 85.624 65.3892 86.8212C65.595 88.0185 66.218 89.1043 67.1477 89.8863C68.0774 90.6683 69.2539 91.0961 70.4688 91.0938C70.8087 91.0938 71.141 91.1946 71.4236 91.3834C71.7063 91.5723 71.9266 91.8407 72.0567 92.1548C72.1868 92.4688 72.2208 92.8144 72.1545 93.1478C72.0882 93.4812 71.9245 93.7875 71.6841 94.0278C71.4437 94.2682 71.1375 94.4319 70.8041 94.4982C70.4707 94.5645 70.1251 94.5305 69.811 94.4004C69.497 94.2703 69.2285 94.05 69.0397 93.7674C68.8508 93.4847 68.75 93.1524 68.75 92.8125H65.3125C65.3169 93.8751 65.6495 94.9105 66.2648 95.7768C66.8802 96.6432 67.7481 97.2983 68.75 97.6525V99.6875H72.1875V97.6525C73.3334 97.2489 74.2994 96.4528 74.9145 95.4052C75.5297 94.3576 75.7542 93.126 75.5483 91.9288C75.3425 90.7315 74.7195 89.6457 73.7898 88.8637C72.8601 88.0817 71.6836 87.6539 70.4688 87.6562C70.0129 87.6562 69.5757 87.4752 69.2534 87.1528C68.9311 86.8305 68.75 86.3933 68.75 85.9375C68.75 85.4817 68.9311 85.0445 69.2534 84.7222C69.5757 84.3998 70.0129 84.2188 70.4688 84.2188Z" fill="#CEDADA"/>
<path d="M85.9375 87.6562C85.5976 87.6562 85.2653 87.5554 84.9826 87.3666C84.7 87.1777 84.4797 86.9093 84.3496 86.5952C84.2195 86.2812 84.1855 85.9356 84.2518 85.6022C84.3181 85.2688 84.4818 84.9625 84.7222 84.7222C84.9625 84.4818 85.2688 84.3181 85.6022 84.2518C85.9356 84.1855 86.2812 84.2195 86.5952 84.3496C86.9093 84.4797 87.1777 84.7 87.3666 84.9826C87.5554 85.2653 87.6562 85.5976 87.6562 85.9375H91.0938C91.0893 84.8749 90.7567 83.8395 90.1414 82.9732C89.5261 82.1068 88.6581 81.4517 87.6562 81.0975V79.0625H84.2188V81.0975C83.0729 81.5011 82.1068 82.2972 81.4917 83.3448C80.8766 84.3924 80.6521 85.624 80.8579 86.8212C81.0638 88.0185 81.6867 89.1043 82.6165 89.8863C83.5462 90.6683 84.7226 91.0961 85.9375 91.0938C86.2774 91.0938 86.6097 91.1946 86.8924 91.3834C87.175 91.5723 87.3953 91.8407 87.5254 92.1548C87.6555 92.4688 87.6895 92.8144 87.6232 93.1478C87.5569 93.4812 87.3932 93.7875 87.1528 94.0278C86.9125 94.2682 86.6062 94.4319 86.2728 94.4982C85.9394 94.5645 85.5938 94.5305 85.2798 94.4004C84.9657 94.2703 84.6973 94.05 84.5084 93.7674C84.3196 93.4847 84.2188 93.1524 84.2188 92.8125H80.7812C80.7857 93.8751 81.1183 94.9105 81.7336 95.7768C82.3489 96.6432 83.2169 97.2983 84.2188 97.6525V99.6875H87.6562V97.6525C88.8021 97.2489 89.7682 96.4528 90.3833 95.4052C90.9984 94.3576 91.2229 93.126 91.0171 91.9288C90.8112 90.7315 90.1883 89.6457 89.2585 88.8637C88.3288 88.0817 87.1524 87.6539 85.9375 87.6562Z" fill="#1CB15F"/>
<path d="M72.1875 84.2188C72.6433 84.2188 73.0805 84.3998 73.4028 84.7222C73.7252 85.0445 73.9062 85.4817 73.9062 85.9375H77.3438C77.3393 84.8749 77.0067 83.8395 76.3914 82.9732C75.7761 82.1068 74.9081 81.4517 73.9062 81.0975V79.0625H70.4688V81.0975C69.3229 81.5011 68.3568 82.2972 67.7417 83.3448C67.1266 84.3924 66.9021 85.624 67.1079 86.8212C67.3138 88.0185 67.9367 89.1043 68.8665 89.8863C69.7962 90.6683 70.9726 91.0961 72.1875 91.0938C72.5274 91.0938 72.8597 91.1946 73.1424 91.3834C73.425 91.5723 73.6453 91.8407 73.7754 92.1548C73.9055 92.4688 73.9395 92.8144 73.8732 93.1478C73.8069 93.4812 73.6432 93.7875 73.4028 94.0278C73.1625 94.2682 72.8562 94.4319 72.5228 94.4982C72.1894 94.5645 71.8438 94.5305 71.5298 94.4004C71.2157 94.2703 70.9473 94.05 70.7584 93.7674C70.5696 93.4847 70.4688 93.1524 70.4688 92.8125H67.0312C67.0357 93.8751 67.3683 94.9105 67.9836 95.7768C68.5989 96.6432 69.4669 97.2983 70.4688 97.6525V99.6875H73.9062V97.6525C75.0521 97.2489 76.0182 96.4528 76.6333 95.4052C77.2484 94.3576 77.4729 93.126 77.2671 91.9288C77.0612 90.7315 76.4383 89.6457 75.5085 88.8637C74.5788 88.0817 73.4024 87.6539 72.1875 87.6562C71.7317 87.6562 71.2945 87.4752 70.9722 87.1528C70.6498 86.8305 70.4688 86.3933 70.4688 85.9375C70.4688 85.4817 70.6498 85.0445 70.9722 84.7222C71.2945 84.3998 71.7317 84.2188 72.1875 84.2188Z" fill="#1CB15F"/>
<path opacity="0.8" d="M77.8748 22.4556H81.8572C82.4539 22.4556 83.0261 22.6926 83.4481 23.1145C83.87 23.5365 84.107 24.1087 84.107 24.7054V28.6878C84.107 28.9832 84.0488 29.2758 83.9358 29.5487C83.8227 29.8217 83.657 30.0697 83.4481 30.2786C83.2391 30.4876 82.9911 30.6533 82.7182 30.7663C82.4452 30.8794 82.1526 30.9376 81.8572 30.9376C81.2609 30.9375 80.6891 30.7007 80.2673 30.2793L76.2833 26.297C76.0744 26.0879 75.9088 25.8398 75.7958 25.5667C75.6829 25.2936 75.6248 25.0009 75.625 24.7054C75.625 24.1087 75.862 23.5365 76.284 23.1145C76.7059 22.6926 77.2781 22.4556 77.8748 22.4556Z" fill="white"/>
</svg>
