<svg width="571" height="372" viewBox="0 0 571 372" fill="none" xmlns="http://www.w3.org/2000/svg">
<g clip-path="url(#clip0_1257_1892)">
<g clip-path="url(#clip1_1257_1892)">
<path d="M65.3945 115.167H505.166" stroke="#DED8D5" stroke-width="1.97" stroke-miterlimit="10"/>
<path d="M499.424 86.4702H71.1364C67.9653 86.4702 65.3945 89.0296 65.3945 92.1867V351.64C65.3945 354.797 67.9653 357.356 71.1364 357.356H499.424C502.596 357.356 505.166 354.797 505.166 351.64V92.1867C505.166 89.0296 502.596 86.4702 499.424 86.4702Z" stroke="#DED8D5" stroke-width="1.97" stroke-miterlimit="10"/>
<path d="M94.3773 101.112C94.3773 103.322 92.572 105.119 90.3527 105.119C88.1335 105.119 86.3281 103.322 86.3281 101.112C86.3281 98.9028 88.1247 97.1055 90.3527 97.1055C92.5808 97.1055 94.3773 98.9028 94.3773 101.112Z" fill="#FFB1A5"/>
<path d="M110.008 101.112C110.008 103.322 108.203 105.119 105.984 105.119C103.764 105.119 101.959 103.322 101.959 101.112C101.959 98.9028 103.764 97.1055 105.984 97.1055C108.203 97.1055 110.008 98.9028 110.008 101.112Z" fill="#EAD254"/>
<path d="M125.649 101.112C125.649 103.322 123.843 105.119 121.624 105.119C119.405 105.119 117.6 103.322 117.6 101.112C117.6 98.9028 119.396 97.1055 121.624 97.1055C123.852 97.1055 125.649 98.9028 125.649 101.112Z" fill="#1CB15F"/>
<path d="M562.295 106.171H458.941C456.028 106.171 453.666 108.523 453.666 111.423V206.588C453.666 209.488 456.028 211.839 458.941 211.839H562.295C565.208 211.839 567.57 209.488 567.57 206.588V111.423C567.57 108.523 565.208 106.171 562.295 106.171Z" fill="#EDEDED"/>
<path d="M562.295 106.171H458.941C456.028 106.171 453.666 108.523 453.666 111.423V206.588C453.666 209.488 456.028 211.839 458.941 211.839H562.295C565.208 211.839 567.57 209.488 567.57 206.588V111.423C567.57 108.523 565.208 106.171 562.295 106.171Z" stroke="#DED8D5" stroke-width="1.97" stroke-miterlimit="10"/>
<path d="M483.934 184.353H537.654C540.582 184.353 542.955 181.989 542.955 179.074V135.245C542.955 132.33 540.582 129.967 537.654 129.967H483.934C481.006 129.967 478.632 132.33 478.632 135.245V179.074C478.632 181.989 481.006 184.353 483.934 184.353Z" fill="#245695"/>
<path d="M525.457 166.204H500.315H495.779V146.38H525.457V151.334V166.204Z" stroke="white" stroke-width="1.65" stroke-linecap="round" stroke-linejoin="round"/>
<path d="M495.779 146.38L510.618 158.023L525.457 146.38" stroke="white" stroke-width="1.65" stroke-linecap="round" stroke-linejoin="round"/>
<path d="M107.463 195.952H8.89181C6.11463 195.952 3.86328 198.194 3.86328 200.958V286.522C3.86328 289.287 6.11463 291.529 8.89181 291.529H107.463C110.24 291.529 112.492 289.287 112.492 286.522V200.958C112.492 198.194 110.24 195.952 107.463 195.952Z" fill="#EDEDED"/>
<path d="M107.463 195.952H8.89181C6.11463 195.952 3.86328 198.194 3.86328 200.958V286.522C3.86328 289.287 6.11463 291.529 8.89181 291.529H107.463C110.24 291.529 112.492 289.287 112.492 286.522V200.958C112.492 198.194 110.24 195.952 107.463 195.952Z" stroke="#DED8D5" stroke-width="1.97" stroke-miterlimit="10"/>
<path d="M83.4929 212.321H32.371C29.1415 212.321 26.5234 214.928 26.5234 218.143V267.295C26.5234 270.51 29.1415 273.116 32.371 273.116H83.4929C86.7224 273.116 89.3404 270.51 89.3404 267.295V218.143C89.3404 214.928 86.7224 212.321 83.4929 212.321Z" fill="#FFB1A5"/>
<path d="M45.7576 230.786C38.8621 237.651 38.8621 248.926 45.7576 255.791C52.6531 262.657 63.9783 262.657 70.8738 255.791C77.7693 248.926 77.7693 237.651 70.8738 230.786C63.9783 223.921 52.6531 223.921 45.7576 230.786ZM70.8298 233.329H65.1672C64.6035 231.558 63.8726 229.787 62.9655 228.015C66.1007 228.962 68.8307 230.839 70.8298 233.329ZM51.79 242.254C51.79 239.966 52.063 237.686 52.6355 235.398H63.9959C64.5595 237.686 64.8325 239.966 64.8413 242.254H51.7989H51.79ZM64.7621 244.323C64.6035 246.612 64.1896 248.891 63.538 251.18H53.0758C52.4241 248.891 52.0102 246.612 51.8517 244.323H64.7533H64.7621ZM58.3069 227.34C59.1611 227.34 59.9977 227.41 60.8167 227.533C61.9088 229.471 62.7542 231.4 63.3882 233.337H53.2167C53.8508 231.4 54.705 229.471 55.7882 227.533C56.6072 227.402 57.4438 227.34 58.2981 227.34H58.3069ZM53.6482 228.024C52.75 229.795 52.019 231.566 51.4466 233.337H45.784C47.7831 230.847 50.5131 228.971 53.6482 228.024ZM44.3749 235.398H50.8566C50.2841 237.686 49.9935 239.966 49.9495 242.254H42.3142C42.4727 239.773 43.2037 237.441 44.3749 235.398ZM44.3749 251.18C43.2037 249.137 42.4727 246.805 42.3142 244.323H49.9759C50.0904 246.612 50.4515 248.891 51.0591 251.18H44.3749ZM45.784 253.249H51.6756C52.2656 255.037 52.9965 256.835 53.8684 258.623C50.6452 257.703 47.8359 255.791 45.7928 253.249H45.784ZM58.2981 259.246C57.5847 259.246 56.889 259.202 56.2021 259.106C55.2246 257.15 54.388 255.204 53.7187 253.249H62.8863C62.217 255.204 61.3804 257.159 60.4028 259.106C59.7159 259.193 59.0114 259.246 58.3069 259.246H58.2981ZM62.7366 258.623C63.6084 256.835 64.3394 255.037 64.9294 253.249H70.821C68.7778 255.791 65.9686 257.703 62.7454 258.623H62.7366ZM72.23 251.18H65.5458C66.1535 248.891 66.5146 246.612 66.6291 244.323H74.2907C74.1322 246.805 73.4013 249.137 72.23 251.18ZM74.2907 242.254H66.6555C66.6114 239.966 66.312 237.686 65.7484 235.398H72.23C73.4013 237.441 74.1322 239.773 74.2907 242.254Z" fill="white"/>
<path d="M101.589 61.4735H12.2908C10.4502 61.4735 8.95312 59.983 8.95312 58.1506C8.95312 56.3181 10.4502 54.8276 12.2908 54.8276H101.589C103.43 54.8276 104.927 56.3181 104.927 58.1506C104.927 59.983 103.43 61.4735 101.589 61.4735Z" fill="#245695"/>
<path d="M565.931 278.631H522.586C520.745 278.631 519.248 277.141 519.248 275.308C519.248 273.476 520.745 271.985 522.586 271.985H565.931C567.772 271.985 569.269 273.476 569.269 275.308C569.269 277.141 567.772 278.631 565.931 278.631Z" fill="#5897F2"/>
<path d="M535.584 307.135H530.282C528.891 307.135 527.764 308.258 527.764 309.643V314.597C527.764 315.981 528.891 317.104 530.282 317.104H535.584C536.975 317.104 538.103 315.981 538.103 314.597V309.643C538.103 308.258 536.975 307.135 535.584 307.135Z" fill="#245695"/>
<path d="M33.5682 330.177H28.2667C26.8757 330.177 25.748 331.299 25.748 332.684V337.638C25.748 339.023 26.8757 340.146 28.2667 340.146H33.5682C34.9593 340.146 36.0869 339.023 36.0869 337.638V332.684C36.0869 331.299 34.9593 330.177 33.5682 330.177Z" fill="#FFB1A5"/>
<path d="M438.914 31.3301H350.77C349.306 31.3301 348.119 32.5116 348.119 33.9691V55.3974C348.119 56.8549 349.306 58.0364 350.77 58.0364H438.914C440.378 58.0364 441.565 56.8549 441.565 55.3974V33.9691C441.565 32.5116 440.378 31.3301 438.914 31.3301Z" fill="#FFB1A5"/>
<path d="M360.844 40.8428H423.529" stroke="white" stroke-width="1.18" stroke-miterlimit="10"/>
<path d="M360.844 47.252H386.374" stroke="white" stroke-width="1.18" stroke-miterlimit="10"/>
<path d="M358.291 55.0117V65.419L371.439 55.0117H358.291Z" fill="#FFB1A5"/>
<path d="M177.88 7H222.362C225.506 7 228.051 9.53386 228.051 12.6639V53.9597C228.051 57.0897 225.506 59.6236 222.362 59.6236H179.695C175.556 59.6236 172.191 56.2743 172.191 52.1535V12.6639C172.191 9.53386 174.736 7 177.88 7Z" fill="#5897F2"/>
<path d="M213.16 37.2048L209.981 34.0396C209.417 33.4171 208.678 33.0752 207.938 33.0752C207.198 33.0752 206.458 33.4171 205.895 33.9782L204.081 35.7844C203.966 35.7318 203.852 35.6704 203.737 35.6178C203.508 35.5038 203.341 35.4512 203.174 35.3372C201.474 34.2588 199.933 32.8472 198.462 31.0411C197.784 30.1906 197.273 29.4015 196.983 28.7264C197.441 28.3319 197.837 27.8759 198.233 27.4814C198.4 27.3148 198.577 27.1395 198.744 26.9729C199.369 26.3504 199.713 25.6139 199.713 24.8774C199.713 24.1409 199.369 23.4044 198.744 22.7819L197.15 21.195C196.983 21.0284 196.806 20.853 196.639 20.6338L195.556 19.5554C194.992 18.9943 194.253 18.6523 193.513 18.6523C192.773 18.6523 192.095 18.9329 191.47 19.5554L189.479 21.5369C188.74 22.2734 188.291 23.2291 188.176 24.3075C188.062 25.9997 188.52 27.5866 188.916 28.6037C189.823 31.2077 191.241 33.5223 193.345 36.0123C195.899 39.0109 198.911 41.3869 202.434 43.0791C203.737 43.7016 205.56 44.4381 207.542 44.6047H207.938C209.303 44.6047 210.439 44.0961 211.346 43.1317L211.399 43.0791C211.681 42.7372 212.024 42.404 212.42 42.062L213.16 41.3256C214.349 40.0805 214.349 38.3884 213.16 37.196V37.2048ZM211.857 40.1419C211.628 40.3699 211.399 40.5978 211.179 40.817C210.782 41.159 210.439 41.5535 210.043 41.9481C209.479 42.518 208.854 42.7985 208 42.7985H207.718C206.018 42.6846 204.424 42.0094 203.288 41.4395C200.047 39.8526 197.212 37.6519 194.825 34.8199C192.896 32.5053 191.584 30.2958 190.677 27.9812C190.114 26.6222 189.885 25.5525 189.999 24.4741C190.052 23.8516 190.281 23.2904 190.792 22.8345L192.72 20.9144C192.888 20.7478 193.178 20.5199 193.513 20.5199C193.847 20.5199 194.076 20.6864 194.305 20.9144C194.649 21.2563 194.984 21.5895 195.327 21.9315C195.494 22.098 195.67 22.326 195.891 22.4926L197.485 24.0795C197.652 24.2461 197.881 24.5881 197.881 24.8686C197.881 25.2106 197.652 25.4911 197.485 25.6577L196.974 26.1662L195.556 27.5778L195.503 27.6304C194.939 28.1916 195.045 28.7089 195.16 29.042V29.0946C195.556 30.1117 196.181 31.0148 197.035 32.1458C198.629 34.1273 200.329 35.6529 202.205 36.8365C202.434 37.0031 202.716 37.1171 202.945 37.2311C203.174 37.345 203.341 37.3976 203.508 37.5116L203.561 37.5642C204.125 37.8448 204.697 37.7308 205.155 37.2837L207.145 35.3022C207.313 35.1356 207.603 34.9076 207.938 34.9076C208.22 34.9076 208.502 35.1356 208.678 35.3022L211.857 38.4673C212.368 38.9758 212.368 39.5457 211.857 40.1068V40.1419Z" fill="white"/>
<mask id="mask0_1257_1892" style="mask-type:luminance" maskUnits="userSpaceOnUse" x="105" y="64" width="406" height="293">
<path d="M510.362 64.9629H105.904V356.646H510.362V64.9629Z" fill="white"/>
</mask>
<g mask="url(#mask0_1257_1892)">
<path d="M407.96 258.878L375.816 254.617L376.072 257.791L348.587 261.438C348.587 261.438 330.868 305.688 346.482 403.001H368.842L376.891 304.321H379.744L387.538 403.001H409.898C425.512 305.68 407.969 258.869 407.969 258.869L407.96 258.878Z" fill="#8E716C"/>
<path d="M366.658 304.321H389.987" stroke="#282828" stroke-width="1.23" stroke-linecap="round" stroke-linejoin="round"/>
<path d="M426.727 212.198C423.979 207.832 408.532 207.981 407.713 207.885C403.539 207.394 410.391 240.483 419.083 269.408C420.747 274.949 426.876 277.842 432.231 275.58C432.292 275.554 432.345 275.527 432.407 275.51C436.643 273.721 439.047 269.25 438.202 264.752C434.071 242.929 429.923 217.257 426.736 212.198H426.727Z" fill="#FFB1A5"/>
<path d="M430.407 224.158L410.689 231.777L408.84 222.466L429.262 217.389L430.407 224.158Z" fill="#F3978E"/>
<path d="M434.133 242.798C434.133 242.798 424.789 255.292 425.238 254.713C425.687 254.134 432.565 234.521 432.565 234.521L434.133 242.789V242.798Z" fill="#F3978E"/>
<path d="M447.493 226.007L420.713 260.552C417.199 265.085 418.317 271.643 423.143 274.764C427.961 277.877 434.425 276.237 437.163 271.213L459.453 230.268L447.485 226.007H447.493Z" fill="#FFB1A5"/>
<path d="M454.433 234.88C448.629 233.013 445.441 226.814 447.317 221.036C449.193 215.258 455.419 212.084 461.223 213.952C467.026 215.819 470.214 222.018 468.338 227.796C466.463 233.574 460.236 236.748 454.433 234.88Z" fill="#FFB1A5"/>
<path d="M465.882 217.801C465.882 217.801 468.902 214.68 463.539 212.488C458.176 210.296 451.545 210.796 447.309 221.036L465.873 217.81L465.882 217.801Z" fill="#FFB1A5"/>
<path d="M471.438 195.97L482.649 200.809C483.275 201.081 483.503 201.818 483.16 202.458L468.409 229.892C468.066 230.532 467.282 230.83 466.657 230.558L455.446 225.718C454.821 225.447 454.592 224.71 454.935 224.07L469.686 196.636C470.029 195.996 470.813 195.698 471.438 195.97Z" fill="#372F5F"/>
<path d="M470.364 195.478L481.575 200.318C482.2 200.59 482.429 201.327 482.086 201.967L467.335 229.401C466.991 230.041 466.208 230.339 465.582 230.067L454.372 225.227C453.746 224.955 453.517 224.219 453.861 223.579L468.612 196.145C468.955 195.505 469.739 195.207 470.364 195.478Z" fill="#261B43"/>
<path d="M469.106 198.275L478.952 202.528L466.931 224.885L457.076 220.633L469.106 198.275Z" fill="#E6E6E6"/>
<path d="M478.952 202.528L457.076 220.633L469.106 198.275L478.952 202.528Z" fill="white"/>
<path d="M460.325 211.576C460.325 211.576 462.827 212.058 465.072 213.33C466.067 213.891 466.569 215.031 466.296 216.135C466.05 217.144 465.195 217.889 464.165 218.02L458.335 218.748C458.335 218.748 455.297 223.965 451.316 224.552L454.962 215.39L460.317 211.576H460.325Z" fill="#FFB1A5"/>
<path d="M385.864 168.693C385.221 168.693 427.211 174.48 434.133 222.132L412.346 225.455L407.951 261.438H347.168L335.104 194.961C335.104 194.961 348.569 175.751 373.57 168.693H385.856H385.864Z" fill="#5897F2"/>
<path d="M412.346 225.455L414.239 204.649" stroke="#282828" stroke-width="1.23" stroke-linecap="round" stroke-linejoin="round"/>
<path d="M389.853 169.368V152.815H370.364V169.561C369.369 169.859 367.704 170.456 365.133 171.674L380.333 180.687L395.868 171.674C395.868 171.674 393.402 170.245 389.853 169.368Z" fill="#FFB1A5"/>
<path d="M370.188 154.841C370.188 154.841 373.684 164.09 383.027 163.293C391.614 162.556 390.249 149.738 390.249 149.738L370.188 154.841Z" fill="#282828"/>
<path d="M361.69 142.539C358.634 145.301 351.809 134.833 354.759 131.895C357.709 128.958 359.963 133.57 359.963 133.57L361.284 136.691L362.28 140.917L362.517 142.022L361.698 142.531L361.69 142.539Z" fill="#F3978E"/>
<path d="M356.186 135.604C356.186 135.604 358.502 134.569 360.554 137.901" stroke="#282828" stroke-width="0.99" stroke-linecap="round" stroke-linejoin="round"/>
<path d="M397.805 142.223C400.615 145.231 408.311 135.376 405.617 132.202C402.922 129.028 400.289 133.429 400.289 133.429L398.712 136.428L397.365 140.558L397.039 141.645L397.814 142.223H397.805Z" fill="#F3978E"/>
<path d="M403.882 135.771C403.882 135.771 401.663 134.543 399.338 137.699" stroke="#282828" stroke-width="0.99" stroke-linecap="round" stroke-linejoin="round"/>
<path d="M356.336 121.918C356.336 135.762 366.939 142.329 380.026 142.329C393.112 142.329 403.715 135.762 403.715 121.918C403.715 108.074 393.112 98.6484 380.026 98.6484C366.939 98.6484 356.336 108.065 356.336 121.918Z" fill="#282828"/>
<path d="M359.549 122.882C359.549 131.387 360.756 138.716 361.962 143.924C363.142 149.018 366.462 152.587 371.147 155.454L372.002 155.98C376.96 159.014 383.371 159.084 388.408 156.164C393.489 153.218 397.047 149.325 398.139 143.854C400.13 133.903 400.35 122.891 400.35 122.891C400.35 122.891 402.243 101.428 380.244 101.848C358.246 102.269 359.558 122.891 359.558 122.891L359.549 122.882Z" fill="#FFB1A5"/>
<path d="M378.615 135.13V138.103C378.615 138.278 378.65 138.445 378.712 138.602C378.959 139.207 379.663 139.497 380.297 139.33L381.662 138.971" stroke="#282828" stroke-width="1.23" stroke-linecap="round" stroke-linejoin="round"/>
<path d="M375.119 123.61L364.182 126.161C364.182 126.161 364.675 123.391 369.149 122.382C373.622 121.374 375.111 123.61 375.111 123.61H375.119Z" fill="#282828"/>
<path d="M384.824 123.61L395.383 126.161C395.383 126.161 394.908 123.391 390.584 122.382C386.268 121.374 384.824 123.61 384.824 123.61Z" fill="#282828"/>
<path d="M370.964 133.438C371.98 133.438 372.804 132.618 372.804 131.606C372.804 130.594 371.98 129.773 370.964 129.773C369.947 129.773 369.123 130.594 369.123 131.606C369.123 132.618 369.947 133.438 370.964 133.438Z" fill="#282828"/>
<path d="M390.292 131.606C390.292 132.614 389.465 133.438 388.452 133.438C387.439 133.438 386.611 132.623 386.611 131.606C386.611 130.589 387.439 129.773 388.452 129.773C389.465 129.773 390.292 130.589 390.292 131.606Z" fill="#282828"/>
<path d="M372.812 142.785H387.035C387.035 142.785 380.73 150.421 372.812 142.785Z" fill="white"/>
<path d="M375.732 137.839C378.793 134.791 378.793 129.85 375.732 126.803C372.671 123.756 367.709 123.756 364.648 126.803C361.587 129.85 361.587 134.791 364.648 137.839C367.709 140.886 372.671 140.886 375.732 137.839Z" stroke="#245695" stroke-width="1.34" stroke-miterlimit="10"/>
<path d="M395.002 137.838C398.062 134.79 398.062 129.849 395.002 126.802C391.941 123.755 386.978 123.755 383.917 126.802C380.856 129.849 380.856 134.79 383.917 137.838C386.978 140.885 391.941 140.885 395.002 137.838Z" stroke="#245695" stroke-width="1.34" stroke-miterlimit="10"/>
<path d="M378.035 132.325C378.035 132.325 379.893 130.598 381.619 132.325" stroke="#245695" stroke-width="1.34" stroke-miterlimit="10"/>
<path d="M362.35 132.325L359.875 132.254" stroke="#245695" stroke-width="1.34" stroke-miterlimit="10"/>
<path d="M397.295 132.325L399.778 132.254" stroke="#245695" stroke-width="1.34" stroke-miterlimit="10"/>
<path d="M400.069 129.993C400.069 129.993 391.271 118.156 393.297 106.153C393.297 106.153 399.823 109.424 401.531 117.867C403.231 126.31 400.069 129.984 400.069 129.984V129.993Z" fill="#282828"/>
<path d="M359.542 130.799C359.542 130.799 369.757 117.35 367.732 105.355C367.732 105.355 360.642 109.432 358.943 117.876C357.243 126.319 359.542 130.799 359.542 130.799Z" fill="#282828"/>
<path d="M399.328 110.888C399.328 110.888 388.029 123.198 357.127 121.094C357.127 121.094 361.856 103.023 376.836 101.103C376.836 101.103 394.132 99.0516 399.328 110.888Z" fill="#282828"/>
<path d="M413.11 98.8389C414.409 90.827 408.938 83.2836 400.891 81.9903C392.843 80.6969 385.266 86.1434 383.967 94.1553C382.668 102.167 388.139 109.711 396.186 111.004C404.234 112.297 411.811 106.851 413.11 98.8389Z" fill="#282828"/>
<path d="M218.409 258.842L190.923 255.195L191.17 252.021L159.026 256.282C159.026 256.282 141.484 303.093 157.098 400.405H179.457L187.251 301.725H190.104L198.154 400.405H220.513C236.127 303.084 218.409 258.842 218.409 258.842Z" fill="#282828"/>
<path d="M216.216 125.714C212.5 121.356 209.514 116.271 206.987 109.143C204.266 101.489 195.371 104.601 195.371 104.601C195.371 104.601 187.956 95.1057 176.798 98.4111C165.64 101.717 161.765 109.625 161.536 119.024C161.307 128.423 153.884 129.887 148.168 140.759C138.076 159.951 155.064 176.119 186.001 171.63L186.045 171.332C189.092 172.252 192.826 172.656 197.379 172.384C234.543 170.183 230.949 142.977 216.216 125.714Z" fill="#282828"/>
<path d="M204.045 139.944C207.1 142.706 213.926 132.237 210.975 129.3C208.025 126.363 205.771 130.974 205.771 130.974L204.45 134.096L203.455 138.322L203.217 139.426L204.036 139.935L204.045 139.944Z" fill="#F3978E"/>
<path d="M209.557 133.008C209.557 133.008 207.241 131.974 205.189 135.305" stroke="#282828" stroke-width="0.99" stroke-linecap="round" stroke-linejoin="round"/>
<path d="M167.929 139.628C165.12 142.636 157.423 132.781 160.118 129.607C162.813 126.433 165.446 130.834 165.446 130.834L167.022 133.833L168.37 137.962L168.696 139.05L167.921 139.628H167.929Z" fill="#F3978E"/>
<path d="M161.854 133.175C161.854 133.175 164.073 131.948 166.398 135.104" stroke="#282828" stroke-width="0.99" stroke-linecap="round" stroke-linejoin="round"/>
<path d="M209.408 119.322C209.408 133.166 198.805 139.733 185.719 139.733C172.632 139.733 162.029 133.166 162.029 119.322C162.029 105.478 172.632 96.0527 185.719 96.0527C198.805 96.0527 209.408 105.469 209.408 119.322Z" fill="#282828"/>
<path d="M195.372 150.219H175.883V175.339H195.372V150.219Z" fill="#FFB1A5"/>
<path d="M173.047 148.659C173.047 148.659 178.472 159.434 185.147 161.118C186.926 161.565 188.837 161.416 190.554 160.811C193.064 159.925 196.252 156.199 196.789 152.069L197.045 149.711C197.045 149.711 185.173 156.146 173.056 148.659H173.047Z" fill="#282828"/>
<path d="M206.185 120.287C206.185 128.791 204.979 136.121 203.772 141.329C202.592 146.423 199.272 149.992 194.587 152.859L193.733 153.385C188.775 156.418 182.364 156.489 177.326 153.569C172.245 150.623 168.687 146.73 167.595 141.259C165.605 131.308 165.385 120.296 165.385 120.296C165.385 120.296 163.491 98.8323 185.49 99.2532C207.489 99.674 206.176 120.296 206.176 120.296L206.185 120.287Z" fill="#FFB1A5"/>
<path d="M184.248 133.692V135.455C184.248 135.63 184.283 135.797 184.345 135.954C184.592 136.559 185.296 136.849 185.93 136.682L187.295 136.323" stroke="#282828" stroke-width="1.23" stroke-linecap="round" stroke-linejoin="round"/>
<path d="M188.836 122.066L200.54 124.828C200.54 124.828 200.011 121.83 195.221 120.743C190.43 119.655 188.836 122.066 188.836 122.066Z" fill="#282828"/>
<path d="M182.69 122.066L170.836 124.828C170.836 124.828 171.373 121.83 176.226 120.743C181.078 119.655 182.69 122.066 182.69 122.066Z" fill="#282828"/>
<path d="M178.445 129.3C178.445 130.308 177.617 131.123 176.604 131.123C175.591 131.123 174.764 130.308 174.764 129.3C174.764 128.291 175.591 127.476 176.604 127.476C177.617 127.476 178.445 128.291 178.445 129.3Z" fill="#282828"/>
<path d="M195.925 129.3C195.925 130.308 195.097 131.123 194.085 131.123C193.072 131.123 192.244 130.308 192.244 129.3C192.244 128.291 193.072 127.476 194.085 127.476C195.097 127.476 195.925 128.291 195.925 129.3Z" fill="#282828"/>
<path d="M177.221 139.733H193.407C193.407 139.733 192.262 144.161 184.926 144.161C179.334 144.161 177.221 139.733 177.221 139.733Z" fill="white"/>
<path d="M165.667 127.397C165.667 127.397 174.465 115.561 172.439 103.558C172.439 103.558 165.914 106.828 164.205 115.272C162.505 123.715 165.667 127.389 165.667 127.389V127.397Z" fill="#282828"/>
<path d="M206.204 127.011C206.204 127.011 195.988 114.763 198.014 102.769C198.014 102.769 205.103 106.846 206.803 115.289C208.502 123.732 206.204 127.011 206.204 127.011Z" fill="#282828"/>
<path d="M166.406 108.292C166.406 108.292 176.499 121.803 207.409 119.69C207.409 119.69 203.878 100.428 188.898 98.5075C188.898 98.5075 171.602 96.4559 166.406 108.292Z" fill="#282828"/>
<path d="M138.235 318.261C137.785 318.962 163.958 204.886 156.191 206.613C155.478 206.771 141.872 208.025 139.855 212.119C133.99 223.991 129.789 317.393 129.789 317.393L138.243 318.261H138.235Z" fill="#FFB1A5"/>
<path d="M129.78 317.393C129.78 317.393 125.562 336.874 141.511 339.005C142.559 339.145 143.58 338.532 143.924 337.532L143.968 337.4C144.346 336.296 143.792 335.121 142.726 334.647C140.128 333.49 136.095 330.562 138.094 323.925C138.094 323.925 140.401 323.644 141.669 327.923C141.995 329.027 143.237 329.58 144.267 329.062C144.972 328.712 145.368 327.958 145.271 327.177C144.892 324.179 143.378 316.963 137.565 315.025L129.789 317.393H129.78Z" fill="#FFB1A5"/>
<path d="M135.143 239.536C135.143 239.536 150.219 260.674 150.299 260.271C150.378 259.859 155.574 230.584 155.574 230.584L137.274 222.693L135.143 239.536Z" fill="#F3978E"/>
<path d="M177.046 171.209C177.689 171.209 139.776 171.884 132.846 219.537L154.633 222.86L159.028 258.842H219.81L231.875 192.366C231.875 192.366 223.298 177.96 198.296 170.911L177.046 171.209Z" fill="#1CB15F"/>
<path d="M158.518 176.97C158.518 176.97 163.872 184.054 185.827 184.054C207.781 184.054 213.136 176.601 213.136 176.601C213.136 176.601 200.313 169.473 185.439 167.159C185.439 167.159 172.159 169.517 158.518 176.97Z" fill="#FFB1A5"/>
<path d="M233.107 327.949L233.16 423H280.39L284.018 327.949H233.107Z" fill="#282828"/>
<path d="M335.651 327.949L335.598 423H288.369L284.74 327.949H335.651Z" fill="#282828"/>
<path d="M309.856 327.949H261.023V360.968H309.856V327.949Z" fill="#282828"/>
<path d="M365.486 245.007C368.418 277.211 365.327 300.682 366.181 359.943L337.992 361.118L333.791 250.189L365.486 245.007Z" fill="#FFB1A5"/>
<path d="M337.27 270.135C337.27 270.135 354.724 268.549 366.657 260.71L366.34 253.81L337.252 257.756V270.135H337.27Z" fill="#F3978E"/>
<path d="M309.266 170.85C309.266 170.85 364.712 184.729 374.76 254.801C374.76 254.801 347.627 266.514 320.432 261.473L326.553 238.037L309.274 170.85H309.266Z" fill="#245695"/>
<path d="M143.651 199.985L184.936 248.523L172.307 283.945C172.307 283.945 140.929 240.51 126.83 206.938L143.659 199.985H143.651Z" fill="#FFB1A5"/>
<path d="M145.006 201.739C145.006 201.739 130.51 209.893 126.82 206.947C120.374 201.791 115.055 182.923 115.055 182.923C115.055 182.923 142.161 172.753 141.906 173.147C141.65 173.542 145.006 201.739 145.006 201.739Z" fill="#FFB1A5"/>
<path d="M145.007 201.739C144.751 200.283 150.379 184.615 152.316 178.732C152.783 177.312 151.797 175.76 150.256 175.462C149.252 175.269 147.658 175.392 146.9 176.83L140.102 188.403L145.007 201.739Z" fill="#FFB1A5"/>
<path d="M144.504 184.791L139.837 161.67C139.564 160.136 138.005 159.075 136.455 159.365C135.116 159.619 134.227 160.802 134.385 162.144L136.42 179.364L144.495 184.8L144.504 184.791Z" fill="#FFB1A5"/>
<path d="M135.221 176.269L128.881 159.759C128.352 158.312 126.723 157.515 125.279 157.997C124.028 158.418 123.324 159.671 123.623 160.96L128.326 180.039L135.221 176.277V176.269Z" fill="#FFB1A5"/>
<path d="M128.416 181.135L120.393 164.914C119.653 163.406 117.821 162.714 116.324 163.363C114.915 163.976 114.29 165.563 114.889 167.019L121.282 182.336L128.416 181.143V181.135Z" fill="#FFB1A5"/>
<path d="M115.055 182.923L108.758 172.981C108.239 171.815 108.714 170.5 109.859 169.982C110.951 169.483 112.299 169.877 113.003 170.894L121.281 182.327L115.055 182.923Z" fill="#FFB1A5"/>
<path d="M143.236 183.055C143.236 183.055 133.786 182.064 132.809 194.61" stroke="#282828" stroke-width="1.53" stroke-linecap="round" stroke-linejoin="round"/>
<path d="M163.922 267.382C163.922 267.382 171.689 294.133 187.162 290.582C202.635 287.022 226.748 254.126 226.748 254.126L221.349 197.951L177.924 251.162L163.922 267.391V267.382Z" fill="#FFB1A5"/>
<path d="M191.398 234.626C191.398 234.626 206.061 256.642 218.567 264.41L226.757 254.126L195.176 229.804L191.398 234.635V234.626Z" fill="#F3978E"/>
<path d="M255.546 169.64C255.546 169.64 212.5 179.302 189.559 229.111C189.559 229.111 203.42 249.899 225.639 259.141L240.513 241L255.546 169.64Z" fill="#245695"/>
<path d="M255.545 169.483C238.733 178.066 228.156 189.455 228.156 189.455L231.476 335.051H337.445L337.102 190.209C337.102 190.209 323.742 177.198 309.264 170.85C296.97 165.458 267.495 163.38 255.545 169.483Z" fill="#245695"/>
<path d="M290.946 211.085H320.422V225.763C320.422 233.864 313.817 240.44 305.68 240.44C297.542 240.44 290.938 233.864 290.938 225.763V211.085H290.946Z" stroke="#282828" stroke-width="1.4" stroke-linecap="round" stroke-linejoin="round"/>
<path d="M337.27 262.017L338.643 214.391" stroke="#282828" stroke-width="1.4" stroke-linecap="round" stroke-linejoin="round"/>
<path d="M229.786 254.082L227.496 212.795" stroke="#282828" stroke-width="1.4" stroke-linecap="round" stroke-linejoin="round"/>
<path d="M256.788 116.306L252.367 94.5535C252.12 92.7824 251.425 90.0469 252.27 87.478C253.67 83.2256 258.813 75.0629 267.602 78.798L269.504 87.4078C269.504 87.4078 260.381 89.2403 256.717 101.129L256.788 116.306Z" fill="#282828"/>
<path d="M266.96 83.2871C266.801 86.1454 264.265 98.6569 255.353 103.207C255.353 103.207 247.55 86.5399 266.96 83.2871Z" fill="#282828"/>
<path d="M298.213 165.475V128.528H264.008V165.475L253.828 170.096C253.828 170.096 256.215 185.404 281.472 185.746C306.729 186.088 309.265 170.85 309.265 170.85L298.213 165.475Z" fill="#FFB1A5"/>
<path d="M267.603 78.7981C267.603 78.7981 273.882 62.3061 293.238 71.0738C304.96 76.3783 308.236 83.4888 309.636 88.5303C310.103 90.2049 310.288 92.844 310.156 94.4134L305.471 116.306L287.188 86.0139L269.496 87.408L267.594 78.7981H267.603Z" fill="#282828"/>
<path d="M305.479 116.306C305.479 116.306 307.786 112.65 312.541 114.448C317.297 116.245 315.148 127.748 308.015 129.212C308.015 129.212 305.461 129.765 303.453 128.02C303.453 128.02 305.206 119.524 305.487 116.298L305.479 116.306Z" fill="#F3978E"/>
<path d="M311.599 118.507C311.599 118.507 307.619 117.183 304.783 123.023" stroke="#282828" stroke-width="1.4" stroke-linecap="round" stroke-linejoin="round"/>
<path d="M256.788 116.306C256.788 116.306 254.48 112.65 249.725 114.448C244.969 116.245 247.118 127.748 254.251 129.212C254.251 129.212 256.805 129.765 258.813 128.02C258.813 128.02 257.061 119.524 256.779 116.298L256.788 116.306Z" fill="#F3978E"/>
<path d="M250.668 118.507C250.668 118.507 254.649 117.183 257.484 123.023" stroke="#282828" stroke-width="1.4" stroke-linecap="round" stroke-linejoin="round"/>
<path d="M305.954 105.391C305.954 112.326 305.276 126.828 300.987 135.437C296.971 143.521 290.322 147.87 281.604 148.133C272.885 148.396 266.395 145.047 261.19 134.552C255.986 124.057 256.232 105.513 256.232 105.513C256.232 105.513 256.232 80.7446 280.82 80.7446C306.72 80.7446 305.945 105.382 305.945 105.382L305.954 105.391Z" fill="#FFB1A5"/>
<path d="M264.264 139.725C264.264 139.725 267.126 154.2 279.781 155.857C294.338 157.768 298.213 140.093 298.213 140.093C298.213 140.093 291.784 148.115 281.604 148.133C270.261 148.15 264.264 139.725 264.264 139.725Z" fill="#282828"/>
<path d="M279.342 115.675V121.409C279.342 121.655 279.386 121.892 279.474 122.111C279.817 122.961 280.795 123.365 281.684 123.128L283.595 122.619" stroke="#282828" stroke-width="1.4" stroke-linecap="round" stroke-linejoin="round"/>
<path d="M272.085 112.94C272.085 114.167 271.081 115.167 269.848 115.167C268.615 115.167 267.611 114.167 267.611 112.94C267.611 111.712 268.615 110.713 269.848 110.713C271.081 110.713 272.085 111.712 272.085 112.94Z" fill="#282828"/>
<path d="M293.071 112.94C293.071 114.167 292.067 115.167 290.835 115.167C289.602 115.167 288.598 114.167 288.598 112.94C288.598 111.712 289.602 110.713 290.835 110.713C292.067 110.713 293.071 111.712 293.071 112.94Z" fill="#282828"/>
<path d="M285.1 101.849L300.15 105.715C300.15 105.715 299.463 101.515 293.307 99.981C287.152 98.4555 285.1 101.84 285.1 101.84V101.849Z" fill="#282828"/>
<path d="M275.748 101.849L260.697 105.715C260.697 105.715 261.384 101.515 267.54 99.981C273.696 98.4555 275.748 101.84 275.748 101.84V101.849Z" fill="#282828"/>
<path d="M272.754 127.187C272.754 127.187 274.973 128.879 280.812 128.879C286.122 128.879 289.433 127.187 289.433 127.187" stroke="#282828" stroke-width="1.4" stroke-linecap="round" stroke-linejoin="round"/>
<path d="M269.24 123.057C274.492 123.057 278.751 118.818 278.751 113.588C278.751 108.359 274.492 104.119 269.24 104.119C263.987 104.119 259.729 108.359 259.729 113.588C259.729 118.818 263.987 123.057 269.24 123.057Z" stroke="white" stroke-width="1.95" stroke-miterlimit="10"/>
<path d="M292.603 123.057C297.856 123.057 302.114 118.818 302.114 113.588C302.114 108.359 297.856 104.119 292.603 104.119C287.35 104.119 283.092 108.359 283.092 113.588C283.092 118.818 287.35 123.057 292.603 123.057Z" stroke="white" stroke-width="1.95" stroke-miterlimit="10"/>
<path d="M278.752 113.588C278.752 113.588 281.006 111.493 283.094 113.588" stroke="white" stroke-width="1.95" stroke-miterlimit="10"/>
<path d="M259.729 113.588L256.541 113.509" stroke="white" stroke-width="1.95" stroke-miterlimit="10"/>
<path d="M302.115 113.588L305.673 113.536" stroke="white" stroke-width="1.95" stroke-miterlimit="10"/>
<path d="M264.265 83.8484C264.265 83.8484 268.835 96.772 289.443 96.3687C303.445 96.0969 306.791 106.188 306.791 106.188C306.791 106.188 304.352 83.6292 303.709 83.8484C303.066 84.0589 282.397 78.3599 282.397 78.3599L264.256 83.8484H264.265Z" fill="#282828"/>
</g>
</g>
</g>
<defs>
<clipPath id="clip0_1257_1892">
<rect width="571" height="372" fill="white"/>
</clipPath>
<clipPath id="clip1_1257_1892">
<rect width="566.278" height="416" fill="white" transform="translate(3 7)"/>
</clipPath>
</defs>
</svg>
