<svg width="402" height="400" viewBox="0 0 402 400" fill="none" xmlns="http://www.w3.org/2000/svg">
<g clip-path="url(#clip0_1258_2400)">
<path d="M311.816 80.457H118.472C114.825 80.457 111.869 83.4133 111.869 87.0601V227.487C111.869 231.134 114.825 234.09 118.472 234.09H311.816C315.463 234.09 318.419 231.134 318.419 227.487V87.0601C318.419 83.4133 315.463 80.457 311.816 80.457Z" fill="#DED8D5"/>
<path d="M318.419 76.4951H125.076C121.429 76.4951 118.473 79.4514 118.473 83.0982V223.525C118.473 227.172 121.429 230.128 125.076 230.128H318.419C322.066 230.128 325.023 227.172 325.023 223.525V83.0982C325.023 79.4514 322.066 76.4951 318.419 76.4951Z" fill="#FCFBFF"/>
<path d="M318.419 76.4951H125.076C121.429 76.4951 118.473 79.4514 118.473 83.0982V223.525C118.473 227.172 121.429 230.128 125.076 230.128H318.419C322.066 230.128 325.023 227.172 325.023 223.525V83.0982C325.023 79.4514 322.066 76.4951 318.419 76.4951Z" stroke="#DED8D5" stroke-width="1.5" stroke-linecap="round" stroke-linejoin="round"/>
<path d="M211.317 141.588H189.857V177.37H211.317V141.588Z" fill="#C64635"/>
<path d="M291.749 124.321H270.289V177.37H291.749V124.321Z" fill="#C64635"/>
<path d="M250.163 131.3H228.703V177.37H250.163V131.3Z" fill="#1CB15F"/>
<path d="M182.674 177.37H299.31" stroke="#1574DD" stroke-width="1.5" stroke-miterlimit="10"/>
<path d="M178.046 111.174C174.408 103.429 166.543 98.0674 157.418 98.0674V120.848L178.046 111.174Z" fill="#FFD55D"/>
<path d="M178.046 111.174C174.408 103.429 166.543 98.0674 157.418 98.0674V120.848L178.046 111.174Z" stroke="#DED8D5" stroke-width="1.5" stroke-linecap="round" stroke-linejoin="round"/>
<path d="M157.417 143.628C169.999 143.628 180.198 133.429 180.198 120.848C180.198 108.267 169.999 98.0674 157.417 98.0674C144.836 98.0674 134.637 108.267 134.637 120.848C134.637 133.429 144.836 143.628 157.417 143.628Z" stroke="#DED8D5" stroke-width="1.5" stroke-linecap="round" stroke-linejoin="round"/>
<path d="M211.317 92.4546H188.781V95.9212H211.317V92.4546Z" fill="#1CB15F"/>
<path d="M224.524 99.3877H188.781V102.854H224.524V99.3877Z" fill="#DED8D5"/>
<path d="M224.524 105.166H188.781V108.632H224.524V105.166Z" fill="#DED8D5"/>
<path d="M212.394 185.016H189.857V188.483H212.394V185.016Z" fill="#1CB15F"/>
<path d="M225.6 191.949H189.857V195.416H225.6V191.949Z" fill="#DED8D5"/>
<path d="M212.394 197.727H189.857V201.194H212.394V197.727Z" fill="#DED8D5"/>
<path d="M267.814 185.016H245.277V188.483H267.814V185.016Z" fill="#1CB15F"/>
<path d="M281.02 191.949H245.277V195.416H281.02V191.949Z" fill="#DED8D5"/>
<path d="M267.814 197.727H245.277V201.194H267.814V197.727Z" fill="#DED8D5"/>
<path d="M147.546 149.69H134.637V153.157H147.546V149.69Z" fill="#1574DD"/>
<path d="M155.106 156.623H134.637V160.09H155.106V156.623Z" fill="#DED8D5"/>
<path d="M147.546 166.97H134.637V170.436H147.546V166.97Z" fill="#1574DD"/>
<path d="M155.106 173.903H134.637V177.37H155.106V173.903Z" fill="#DED8D5"/>
<path d="M147.546 184.25H134.637V187.717H147.546V184.25Z" fill="#1574DD"/>
<path d="M155.106 191.183H134.637V194.65H155.106V191.183Z" fill="#DED8D5"/>
<path d="M103.602 279.757C103.602 279.757 69.3787 312.99 17.9277 285.534L19.3012 277.228L102.566 272.157L103.602 279.757Z" fill="#1C7A52"/>
<path d="M29.2062 254.17L11.4902 323.007H93.8632C93.8632 323.007 101.483 278.106 97.4223 254.17H29.2062Z" fill="#282828"/>
<path d="M97.8903 257.438C97.7583 256.316 97.5998 255.22 97.4215 254.17H29.2055L25.9766 266.716L97.8903 257.438Z" fill="#E6F5F5"/>
<path d="M58.6152 323.007L68.6056 277.446L74.9512 275.445" stroke="#E6F5F5" stroke-width="1.5" stroke-linecap="round" stroke-linejoin="round"/>
<path d="M35.4252 178.73C35.4252 178.73 27.6666 172.292 29.4824 161.067C31.2983 149.842 39.8822 148.026 39.8822 148.026C39.8822 148.026 29.8126 137.626 41.533 124.09C41.533 124.09 45.1646 120.623 49.6217 120.128C49.6217 120.128 53.2534 103.29 72.4022 105.106C91.551 106.922 85.6875 125.576 80.2862 128.052C80.2862 128.052 83.5283 136.801 78.6289 141.093V146.87C78.6289 146.87 91.7161 150.172 93.3669 164.038C95.0176 177.905 80.2862 182.857 80.2862 182.857C80.2862 182.857 42.5234 185.941 35.4252 178.73Z" fill="#00184C"/>
<path d="M51.0948 165.379L23.2365 172.893C21.5395 173.349 20.1331 174.531 19.3935 176.129C15.544 184.442 3.44718 211.25 1.08989 224.952C1.08989 224.952 -3.76335 241.69 7.01282 247.924C9.89835 249.594 13.3121 250.109 16.6137 249.634L24.0289 248.557L17.9211 285.535C17.9211 285.535 44.4983 289.001 49.7807 270.348L53.0823 254.17H86.0975C86.0975 254.17 83.7864 272.824 103.596 279.757L97.983 238.653L100.882 222.773L111.46 231.99C114.636 234.757 118.373 236.844 122.447 237.9C129.004 239.597 137.826 239.109 143.049 227.434C152.128 207.13 157.245 180.388 157.245 180.388L145.195 168.007L121.589 202.508L101.086 174.234C100.254 173.091 99.0461 172.279 97.6726 171.949L70.5803 165.386H51.0882L51.0948 165.379Z" fill="#1CB15F"/>
<path d="M89.2943 205.697C88.2576 193.831 75.8703 172.9 70.5879 165.385H51.0957C51.0957 165.385 61.1257 220.554 53.0898 254.176H86.105C86.105 254.176 90.0471 214.287 89.2943 205.697Z" fill="#FCFBFF"/>
<path d="M88.8903 220.646C78.5302 223.981 65.7731 225.638 56.1524 226.463C55.9478 236.242 55.0695 245.863 53.082 254.17H86.0973C86.0973 254.17 87.9659 235.232 88.8837 220.646H88.8903Z" fill="#DED8D5"/>
<path d="M70.5879 165.379L70.0663 157.997C71.301 158.01 72.5292 157.831 73.7243 157.435C82.6385 154.464 80.3208 143.595 79.0068 137.626C78.4125 134.926 77.6069 131.895 76.3523 129.154C69.3399 131.802 62.169 128.052 62.169 128.052C59.5278 133.664 54.5755 134.49 54.5755 134.49C54.7934 138.689 53.3936 141.291 52.4361 142.559C52.7993 143.701 51.0957 165.385 51.0957 165.385C51.0957 165.385 53.1427 178.242 54.0869 186.759C56.8007 186.984 59.5938 187.109 62.4463 187.109C69.4654 187.109 76.1278 186.39 82.1366 185.109C78.1154 177.007 73.3678 169.341 70.5879 165.385V165.379Z" fill="#FFA189"/>
<path d="M64.5121 131.849C64.5121 131.849 72.647 134.417 76.7739 130.138C76.6353 129.808 76.4966 129.478 76.3513 129.154C69.3389 131.802 62.168 128.052 62.168 128.052C59.5268 133.664 54.5745 134.49 54.5745 134.49C54.6075 135.176 54.6009 135.817 54.5547 136.418C57.394 136.504 62.3067 136.002 64.5055 131.849H64.5121Z" fill="#F8756A"/>
<path d="M53.8484 140.247C55.8557 142.426 55.9019 145.649 53.954 147.438C52.0061 149.228 48.8037 148.911 46.7963 146.732C44.789 144.553 44.7428 141.33 46.6907 139.541C48.6386 137.752 51.8411 138.068 53.8484 140.247Z" fill="#FFA189"/>
<path d="M10.1699 229.408C10.1699 229.408 12.481 219.339 26.0172 217.688C39.5535 216.037 54.4103 217.193 60.188 215.377L61.3501 232.215C61.3501 232.215 36.9783 247.567 24.0363 248.557L10.1699 229.408Z" fill="#1CB15F"/>
<path d="M26.4129 217.569C26.4129 217.569 27.991 213.614 31.0086 200.758L30.4737 217.305L26.4062 217.576L26.4129 217.569Z" fill="#1C7A52"/>
<path d="M70.0649 158.003C70.0649 158.003 62.7421 157.686 58.6152 150.588C58.6152 150.588 59.2425 159.733 70.4017 162.784L70.0649 158.003Z" fill="#F8756A"/>
<path d="M48.3008 141.344L53.088 144.645" stroke="#F8756A" stroke-width="1.5" stroke-linecap="round" stroke-linejoin="round"/>
<path d="M100.888 222.772C100.888 222.772 103.563 213.073 103.602 205.638C103.629 200.751 98.8151 194.743 97.4219 188.965" stroke="#1C7A52" stroke-width="1.5" stroke-linecap="round" stroke-linejoin="round"/>
<path d="M105.419 236.837H70.918L77.1909 191.771H111.692L105.419 236.837Z" fill="#245695"/>
<path d="M60.2859 216.777C60.2859 216.777 65.7202 214.307 67.4502 212.082C69.1802 209.857 75.1097 206.701 75.1097 206.701L74.5485 211.58C74.5485 211.58 92.7861 205.889 95.0972 206.8C97.4082 207.711 92.9512 210.431 92.9512 210.431C92.9512 210.431 97.2431 208.886 97.4082 209.784C97.5733 210.682 96.0876 213.073 95.1764 213.733C95.1764 213.733 96.3319 213.403 96.4178 214.558C96.5036 215.714 90.475 220.58 85.5227 222.482C85.5227 222.482 91.0561 221.326 92.621 222.482C92.621 222.482 84.5323 226.523 81.5609 227.434C78.5895 228.345 61.2169 230.32 61.2169 230.32L60.2793 216.777H60.2859Z" fill="#FFA189"/>
<path d="M92.9517 210.425L78.0156 215.377" stroke="#F8756A" stroke-width="1.5" stroke-linecap="round" stroke-linejoin="round"/>
<path d="M95.1823 213.726C95.1823 213.726 85.1127 217.688 79.5859 219.174" stroke="#F8756A" stroke-width="1.5" stroke-linecap="round" stroke-linejoin="round"/>
<path d="M85.5226 222.475L80.5703 223.882" stroke="#F8756A" stroke-width="1.5" stroke-linecap="round" stroke-linejoin="round"/>
<path d="M59.9562 233.073C59.9562 233.073 50.6327 238.97 39.6387 243.803" stroke="#1C7A52" stroke-width="1.5" stroke-linecap="round" stroke-linejoin="round"/>
<path d="M10.1699 229.408C10.1699 229.408 12.481 219.339 26.0172 217.688C39.5535 216.037 54.4103 217.193 60.188 215.377" stroke="#1C7A52" stroke-width="1.5" stroke-linecap="round" stroke-linejoin="round"/>
<path d="M121.595 202.501C121.595 202.501 117.138 206.628 115.322 213.726" stroke="#1C7A52" stroke-width="1.5" stroke-linecap="round" stroke-linejoin="round"/>
<path d="M60.2871 216.777L61.2181 230.313L64.3414 229.95L60.2871 216.777Z" fill="#F8756A"/>
<path d="M146.014 168.839L155.291 156.511C155.291 156.511 158.903 152.456 163.954 150.073C170.135 147.161 178.23 141.654 178.23 141.654C178.23 141.654 180.95 143.384 178.23 145.946L170.887 153.044L175.457 156.438C177.272 157.66 177.385 160.393 175.562 161.615C175.47 161.681 175.364 161.74 175.259 161.8C175.259 161.8 176.249 164.771 173.278 166.171C173.278 166.171 173.357 168.317 171.217 169.222C169.078 170.126 165.407 168.726 165.407 168.726C165.407 168.726 164.614 173.144 158.176 174.379L155.337 178.413L146.014 168.839Z" fill="#FFA189"/>
<path d="M161.973 155.104L175.179 153.863C175.179 153.863 176.414 157.494 173.033 158.32C169.653 159.145 166.186 160.466 166.186 160.466C166.186 160.466 166.734 165.669 161.551 167.069L161.98 155.104H161.973Z" fill="#FFA189"/>
<path d="M164.311 154.886L175.179 153.87C175.179 153.87 176.414 157.501 173.033 158.327C169.653 159.152 166.186 160.473 166.186 160.473C166.186 160.473 166.734 165.676 161.551 167.076" stroke="#F8756A" stroke-width="1.5" stroke-linecap="round" stroke-linejoin="round"/>
<path d="M166.186 160.473C166.186 160.473 172.868 162.619 175.265 161.793" stroke="#F8756A" stroke-width="1.5" stroke-linecap="round" stroke-linejoin="round"/>
<path d="M165.406 164.164C165.406 164.164 169.322 166.58 173.284 166.164" stroke="#F8756A" stroke-width="1.5" stroke-linecap="round" stroke-linejoin="round"/>
<path d="M165.407 168.726C165.407 168.726 163.327 167.168 163.518 166.217" stroke="#F8756A" stroke-width="1.5" stroke-linecap="round" stroke-linejoin="round"/>
<path d="M146.014 168.839L157.529 175.455L155.337 178.413L146.014 168.839Z" fill="#F8756A"/>
<path d="M68.8893 139.376C68.9421 140.082 68.579 140.683 68.0771 140.716C67.5753 140.749 67.1263 140.215 67.0735 139.508C67.0206 138.801 67.3838 138.201 67.8856 138.168C68.3875 138.128 68.8365 138.669 68.8893 139.376Z" fill="#00184C"/>
<path d="M78.0944 138.471C78.1472 139.178 77.784 139.779 77.2822 139.812C76.7804 139.845 76.3314 139.31 76.2785 138.603C76.2257 137.897 76.5889 137.296 77.0907 137.263C77.5925 137.223 78.0416 137.765 78.0944 138.471Z" fill="#00184C"/>
<path d="M64.0703 135.758C64.0703 135.758 65.8862 133.46 68.7453 134.576" stroke="#00184C" stroke-width="3" stroke-linecap="round" stroke-linejoin="round"/>
<path d="M74.457 133.955C74.457 133.955 75.6522 132.443 77.6331 132.469" stroke="#00184C" stroke-width="3" stroke-linecap="round" stroke-linejoin="round"/>
<path d="M71.8939 139.475C71.8939 142.143 69.9922 144.308 67.6481 144.308C65.304 144.308 63.4023 142.143 63.4023 139.475C63.4023 136.807 65.304 134.642 67.6481 134.642C69.9922 134.642 71.8939 136.807 71.8939 139.475Z" stroke="#FCFBFF" stroke-width="1.5" stroke-linecap="round" stroke-linejoin="round"/>
<path d="M82.1277 138.26C82.1277 140.928 80.5561 143.094 78.6214 143.094C76.6868 143.094 75.1152 140.928 75.1152 138.26C75.1152 135.593 76.6868 133.427 78.6214 133.427C80.5561 133.427 82.1277 135.593 82.1277 138.26Z" stroke="#FCFBFF" stroke-width="1.5" stroke-linecap="round" stroke-linejoin="round"/>
<path d="M71.8535 138.815L75.122 138.26" stroke="#FCFBFF" stroke-width="1.5" stroke-linecap="round" stroke-linejoin="round"/>
<path d="M73.8496 139.402C73.8496 139.402 77.237 143.245 77.6001 145.061C77.9633 146.877 74.5495 146.633 74.5495 146.633" stroke="#F8756A" stroke-width="1.5" stroke-linecap="round" stroke-linejoin="round"/>
<path d="M70.0528 148.277L74.9325 148.937C74.9325 148.937 74.774 151.136 72.0998 150.806C69.4321 150.476 70.0528 148.277 70.0528 148.277Z" fill="#FCFBFF"/>
<path d="M48.9616 161.84C52.8818 161.84 56.0598 158.662 56.0598 154.741C56.0598 150.821 52.8818 147.643 48.9616 147.643C45.0413 147.643 41.8633 150.821 41.8633 154.741C41.8633 158.662 45.0413 161.84 48.9616 161.84Z" stroke="#FCFBFF" stroke-width="1.5" stroke-linecap="round" stroke-linejoin="round"/>
<path d="M90.35 191.771L89.8086 195.35H102.011L102.5 191.771" stroke="#00184C" stroke-width="1.5" stroke-linecap="round" stroke-linejoin="round"/>
<path d="M54.6414 78.9185H20.946C18.8925 78.9185 17.2285 80.5824 17.2285 82.636V95.0233C17.2285 97.0768 18.8925 98.7408 20.946 98.7408H42.7163L49.6231 106.513V98.7408H54.6414C56.6949 98.7408 58.3589 97.0768 58.3589 95.0233V82.636C58.3589 80.5824 56.6949 78.9185 54.6414 78.9185Z" fill="#FCFBFF"/>
<path d="M29.0341 90.3353C30.1208 90.3353 31.0018 89.4543 31.0018 88.3676C31.0018 87.2809 30.1208 86.3999 29.0341 86.3999C27.9474 86.3999 27.0664 87.2809 27.0664 88.3676C27.0664 89.4543 27.9474 90.3353 29.0341 90.3353Z" fill="#DED8D5"/>
<path d="M40.4178 88.3676C40.4178 89.4505 39.5396 90.3353 38.4501 90.3353C37.3606 90.3353 36.4824 89.4571 36.4824 88.3676C36.4824 87.2781 37.3606 86.3999 38.4501 86.3999C39.5396 86.3999 40.4178 87.2781 40.4178 88.3676Z" fill="#DED8D5"/>
<path d="M48.9628 88.3676C48.9628 89.4505 48.0846 90.3353 46.995 90.3353C45.9055 90.3353 45.0273 89.4571 45.0273 88.3676C45.0273 87.2781 45.9055 86.3999 46.995 86.3999C48.0846 86.3999 48.9628 87.2781 48.9628 88.3676Z" fill="#DED8D5"/>
<path d="M170.503 238.719L147.512 247.626C147.512 247.626 130.892 253.681 128.581 267.984C126.27 282.292 122.195 304.848 122.195 304.848L91.6035 310.679V323.007H229.719L228.577 292.494L245.435 291.345C241.77 267.878 237.643 249.277 212.769 243.334L190.227 237.616L170.503 238.719Z" fill="#282828"/>
<path d="M165.551 240.753C165.551 240.753 164.514 257.141 180.362 256.316C196.209 255.491 195.298 238.831 195.298 238.831" stroke="#E6F5F5" stroke-width="1.5" stroke-linecap="round" stroke-linejoin="round"/>
<path d="M148.251 294.779L124.19 293.65C123.047 300.134 122.195 304.849 122.195 304.849L91.6035 310.679V323.007H148.106L148.258 294.779H148.251Z" fill="#FFA189"/>
<path d="M124.195 293.65L148.25 294.779V300.643L124.195 293.65Z" fill="#F8756A"/>
<path d="M199.259 199.86C198.19 194.247 192.736 193.917 192.736 193.917C193.396 189.625 189.183 186.403 182.666 187.063C176.149 187.724 174.491 184.171 167.07 183.267C159.648 182.362 156.34 189.539 158.076 195.733C159.813 201.927 167.07 202.501 167.07 202.501L167.651 223.05L185.723 223.545C190.418 223.545 194.228 219.98 194.228 215.582C194.228 214.895 194.129 214.235 193.951 213.601C197.576 209.969 200.006 203.736 199.259 199.853V199.86Z" fill="#00184C"/>
<path d="M191.006 207.784C188.834 207.784 186.972 209.117 186.199 211.012C184.628 209.566 183.195 207.07 183.083 202.752C183.083 202.752 176.962 205.413 174.664 203.161C172.274 200.811 172.432 197.714 172.432 197.714C172.432 197.714 170.273 202.257 165.056 200.811L162.97 219.893C162.97 219.893 161.273 228.405 171.296 230.254L170.286 240.964C170.286 240.964 169.632 250.657 178.097 251.033C190.425 251.581 190.425 240.964 190.425 240.964L188.643 217.609C189.349 217.972 190.155 218.183 191.006 218.183C193.879 218.183 196.21 215.852 196.21 212.98C196.21 210.108 193.879 207.777 191.006 207.777V207.784Z" fill="#FFA189"/>
<path d="M183.083 202.752C183.083 202.752 176.962 205.413 174.664 203.161C172.274 200.811 172.432 197.714 172.432 197.714C172.432 197.714 170.273 202.257 165.057 200.811C165.057 200.811 168.305 203.267 172.049 202.277C172.049 202.277 174.585 207.447 179.537 206.786C179.537 206.786 182.409 211.699 186.2 211.006C184.628 209.56 183.195 207.064 183.083 202.745V202.752Z" fill="#F8756A"/>
<path d="M171.301 230.26C171.301 230.26 180.196 231.64 183.576 223.552C183.576 223.552 182.876 234.143 170.846 235.041L171.295 230.26H171.301Z" fill="#F8756A"/>
<path d="M188.121 213.892L193.483 211.085" stroke="#F8756A" stroke-width="1.5" stroke-linecap="round" stroke-linejoin="round"/>
<path d="M169.843 208.695L166.37 214.354C165.941 215.06 166.251 215.978 167.024 216.275L169.843 217.358" stroke="#F8756A" stroke-width="1.5" stroke-linecap="round" stroke-linejoin="round"/>
<path d="M168.008 219.92C168.008 219.92 172.022 221.162 174.254 218.765" stroke="#F8756A" stroke-width="1.5" stroke-linecap="round" stroke-linejoin="round"/>
<path d="M166.45 209.045C166.949 209.045 167.354 208.471 167.354 207.764C167.354 207.056 166.949 206.483 166.45 206.483C165.95 206.483 165.545 207.056 165.545 207.764C165.545 208.471 165.95 209.045 166.45 209.045Z" fill="#00184C"/>
<path d="M175.383 210.418C175.883 210.418 176.288 209.845 176.288 209.137C176.288 208.43 175.883 207.856 175.383 207.856C174.884 207.856 174.479 208.43 174.479 209.137C174.479 209.845 174.884 210.418 175.383 210.418Z" fill="#00184C"/>
<path d="M174.043 205.103C174.043 205.103 176.849 204.277 178.54 206.833" stroke="#00184C" stroke-width="3" stroke-linecap="round" stroke-linejoin="round"/>
<path d="M164.35 204.397C164.35 204.397 165.974 203.73 168.008 204.397" stroke="#00184C" stroke-width="3" stroke-linecap="round" stroke-linejoin="round"/>
<path d="M148.006 322.346L148.501 278.271" stroke="#E6F5F5" stroke-width="1.5" stroke-linecap="round" stroke-linejoin="round"/>
<path d="M125.074 288.645L148.376 289.826" stroke="#E6F5F5" stroke-width="1.5" stroke-linecap="round" stroke-linejoin="round"/>
<path d="M180.526 309.695L164.897 301.883C164.897 301.883 162.473 300.233 159.172 302.762C155.87 305.291 146.183 314.429 141.786 314.865C141.786 314.865 140.135 318.497 145.305 318.497C145.305 318.497 147.398 320.92 151.466 319.157C151.466 319.157 154.107 321.138 157.851 318.827C157.851 318.827 160.274 320.478 164.236 319.487L169.519 317.836C169.519 317.836 173.368 322.459 180.526 323.007H231.482C231.482 323.007 250.413 321.686 247.989 305.839C245.969 292.593 245.44 291.338 245.44 291.338L216.843 293.293L217.794 301.857L180.533 309.688L180.526 309.695Z" fill="#FFA189"/>
<path d="M216.836 293.293L245.434 291.345L246.352 295.776L216.836 293.293Z" fill="#F8756A"/>
<path d="M217.787 301.864C217.787 301.864 223.941 300.887 228.643 304.439" stroke="#F8756A" stroke-width="1.5" stroke-linecap="round" stroke-linejoin="round"/>
<path d="M180.525 309.695L184.652 311.616" stroke="#F8756A" stroke-width="1.5" stroke-linecap="round" stroke-linejoin="round"/>
<path d="M169.52 317.836L173.673 316.159C173.673 316.159 177.305 320.946 182.006 320.042" stroke="#F8756A" stroke-width="1.5" stroke-linecap="round" stroke-linejoin="round"/>
<path d="M157.857 318.827L167.894 312.692" stroke="#F8756A" stroke-width="1.5" stroke-linecap="round" stroke-linejoin="round"/>
<path d="M151.473 319.157L162.876 310.051" stroke="#F8756A" stroke-width="1.5" stroke-linecap="round" stroke-linejoin="round"/>
<path d="M145.312 318.497L158.406 308.401" stroke="#F8756A" stroke-width="1.5" stroke-linecap="round" stroke-linejoin="round"/>
<path d="M216.836 293.293L214.201 275.63" stroke="#E6F5F5" stroke-width="1.5" stroke-linecap="round" stroke-linejoin="round"/>
<path d="M216.143 288.645L244.529 285.792" stroke="#E6F5F5" stroke-width="1.5" stroke-linecap="round" stroke-linejoin="round"/>
<path d="M169.136 317.784H107.562V323.013H169.136V317.784Z" fill="#8E716C"/>
<path d="M137.151 323.007H71.4639L58.2578 271.285H123.945L137.151 323.007Z" fill="#DED8D5"/>
<path d="M123.944 271.285H119.322L132.528 323.007H137.15L123.944 271.285Z" fill="#8E716C"/>
<path d="M96.0546 295.36C96.7413 298.1 95.5726 300.754 93.453 301.283C91.3334 301.811 89.0554 300.021 88.3687 297.275C87.6819 294.534 88.8507 291.88 90.9703 291.352C93.0898 290.823 95.3679 292.613 96.0546 295.36Z" fill="#FCFBFF"/>
<path d="M304.665 225.962C304.665 225.962 286.672 229.633 275.117 217.087C263.561 204.541 281.224 186.238 281.224 186.238C281.224 186.238 271.815 177.469 276.272 169.05C276.272 169.05 280.676 162.942 288.791 166.904C288.791 166.904 298.28 154.028 314.101 161.291C329.922 168.555 329.757 189.024 329.261 192.768C329.261 192.768 348.787 222.819 304.665 225.968V225.962Z" fill="#00184C"/>
<path d="M287.993 249.607L285.022 258.356L260.26 232.77C260.26 232.77 261.416 228.365 259.217 223.743C257.018 219.121 258.444 213.839 258.444 213.839C258.444 213.839 256.133 212.736 254.595 214.829L252.251 222.224L231.86 216.85C231.484 216.731 231.101 216.665 230.705 216.645C229.351 216.585 226.38 216.704 225.878 218.903C225.878 218.903 222.134 217.662 220.021 220.924L222.134 221.875C222.134 221.875 218.819 222.191 218.047 224.39L220.602 226.365C220.602 226.365 222.378 229.587 224.003 230.676C229.239 234.183 246.565 237.722 249.042 240.528L271.499 278.681C274.714 284.148 279.026 289.074 285.299 289.998C289.505 290.619 295.89 289.443 299.053 285.099C307.809 273.081 312.424 262.648 312.424 262.648L287.993 249.607Z" fill="#FFA189"/>
<path d="M285.021 258.356L292.562 266.333" stroke="#F8756A" stroke-width="1.5" stroke-linecap="round" stroke-linejoin="round"/>
<path d="M305.915 259.168L302.355 280.364C302.355 280.364 310.061 267.502 312.425 262.648L305.915 259.175V259.168Z" fill="#F8756A"/>
<path d="M225.871 218.903L239.513 223.301" stroke="#F8756A" stroke-width="1.5" stroke-linecap="round" stroke-linejoin="round"/>
<path d="M222.127 221.875L237.314 226.497" stroke="#F8756A" stroke-width="1.5" stroke-linecap="round" stroke-linejoin="round"/>
<path d="M220.014 225.962L235.22 230.128" stroke="#F8756A" stroke-width="1.5" stroke-linecap="round" stroke-linejoin="round"/>
<path d="M243.172 230.129C243.172 230.129 250.765 226.002 253.816 233.43" stroke="#F8756A" stroke-width="1.5" stroke-linecap="round" stroke-linejoin="round"/>
<path d="M380.382 243.665C380.382 243.665 395.456 245.428 400.963 262.648C406.464 279.869 388.418 323.013 388.418 323.013H316.002L342.857 274.481L380.382 243.665Z" fill="#00184C"/>
<path d="M354.961 280.364L359.002 283.336L350.471 323.007" stroke="#013F81" stroke-width="1.5" stroke-linecap="round" stroke-linejoin="round"/>
<path d="M372.656 250.003L377.186 254.474C382.079 259.307 388.92 261.618 395.741 260.74L395.892 260.72" stroke="#013F81" stroke-width="1.5" stroke-linecap="round" stroke-linejoin="round"/>
<path d="M381.809 323.007C381.809 323.007 398.098 272.784 392.156 260.918" stroke="#013F81" stroke-width="1.5" stroke-linecap="round" stroke-linejoin="round"/>
<path d="M359.028 204.086C355.931 200.183 351.553 198.07 347.776 196.921C344.244 195.845 340.519 195.522 336.842 195.825L325.464 196.776L310.41 205.941L304.856 208.913C300.624 211.171 297.355 214.928 295.823 219.477C295.374 220.805 294.958 222.31 294.595 224.02C292.614 233.43 287.992 249.607 287.992 249.607L312.423 262.648L318.162 250.875C320.552 251.357 322.493 251.152 322.493 251.152C328.654 254.784 342.85 274.481 342.85 274.481L380.375 243.664C380.375 243.664 365.631 212.412 359.028 204.092V204.086Z" fill="#245695"/>
<path d="M318.162 250.869C318.162 250.869 311.658 250.789 310.502 245.203C309.208 238.957 306.983 233.866 306.983 233.866C306.983 233.866 308.555 254.388 305.92 259.169L312.431 262.642L318.169 250.869H318.162Z" fill="#013F81"/>
<path d="M325.466 196.783L313.395 190.794C315.237 190.094 316.551 188.219 316.551 186.013C316.551 183.207 314.425 180.936 311.804 180.936C309.182 180.936 307.056 183.207 307.056 186.013C307.056 186.146 307.063 186.271 307.076 186.396C307.01 186.337 306.944 186.284 306.878 186.225C301.285 185.472 290.318 172.101 290.318 172.094C289.281 173.336 288.436 174.967 288.165 177.08L288.383 182.692L284.203 189.955H288C288 189.955 287.947 200.963 293.229 203.604C297.832 205.908 302.269 204.363 305.082 202.25L310.424 205.941C310.424 205.941 312.055 219.339 320.639 218.236C331.184 216.883 325.479 196.776 325.479 196.776L325.466 196.783Z" fill="#FFA189"/>
<path d="M305.22 185.723C299.37 183.141 290.311 172.101 290.311 172.094C289.38 173.21 288.607 174.636 288.264 176.446C292.714 179.41 299.661 183.716 305.22 185.723Z" fill="#F8756A"/>
<path d="M305.068 202.25C305.068 202.25 308.462 198.625 309.783 195.72C309.783 195.72 310.74 202.032 309.44 205.268L305.075 202.25H305.068Z" fill="#F8756A"/>
<path d="M310.119 188.113L313.249 183.326" stroke="#F8756A" stroke-width="1.5" stroke-linecap="round" stroke-linejoin="round"/>
<path d="M292.451 193.257L297.846 191.058C297.846 191.058 298.684 193.977 295.839 194.881C293.527 195.621 292.458 193.257 292.458 193.257H292.451Z" fill="#FCFBFF"/>
<path d="M291.83 184.528C292.33 184.528 292.735 183.954 292.735 183.247C292.735 182.539 292.33 181.966 291.83 181.966C291.331 181.966 290.926 182.539 290.926 183.247C290.926 183.954 291.331 184.528 291.83 184.528Z" fill="#00184C"/>
<path d="M290.305 178.519C290.305 178.519 293.111 177.694 294.801 180.249" stroke="#00184C" stroke-width="3" stroke-linecap="round" stroke-linejoin="round"/>
<path d="M337.681 246.306L338.012 255.55L309.784 291.041L290.417 298.806C288.951 299.394 287.723 300.444 286.917 301.798L277.594 317.453C277.594 317.453 280.644 319.104 283.536 316.628L282.381 319.018C282.381 319.018 286.752 320.088 288.905 317.777L287.914 319.679C287.914 319.679 290.06 320.669 293.368 319.923C293.368 319.923 297.403 319.923 298.974 318.358C301.536 315.803 305.412 310.104 305.412 310.104C305.412 310.104 311.765 310.685 314.492 306.724L317.212 302.762L352.809 279.387C358.257 275.808 361.71 269.885 362.139 263.388L363.268 246.306H337.681Z" fill="#FFA189"/>
<path d="M283.537 316.628L290.47 304.657" stroke="#F8756A" stroke-width="1.5" stroke-linecap="round" stroke-linejoin="round"/>
<path d="M288.898 317.784L295.092 306.143" stroke="#F8756A" stroke-width="1.5" stroke-linecap="round" stroke-linejoin="round"/>
<path d="M293.369 319.923L299.385 308.375" stroke="#F8756A" stroke-width="1.5" stroke-linecap="round" stroke-linejoin="round"/>
<path d="M337.682 246.306H363.268L362.951 251.033L337.682 246.306Z" fill="#F8756A"/>
<path d="M309.782 317.784H248.209V323.013H309.782V317.784Z" fill="#8E716C"/>
<path d="M277.797 323.007H212.11L198.904 271.285H264.591L277.797 323.007Z" fill="#DED8D5"/>
<path d="M264.591 271.285H259.969L273.175 323.007H277.797L264.591 271.285Z" fill="#8E716C"/>
<path d="M236.701 295.36C237.388 298.1 236.219 300.754 234.099 301.283C231.98 301.811 229.702 300.021 229.015 297.275C228.328 294.534 229.497 291.88 231.617 291.352C233.736 290.823 236.014 292.613 236.701 295.36Z" fill="#FCFBFF"/>
<path d="M337.681 246.306L336.195 215.602" stroke="#013F81" stroke-width="1.5" stroke-linecap="round" stroke-linejoin="round"/>
<path d="M363.268 246.306V228.042" stroke="#013F81" stroke-width="1.5" stroke-linecap="round" stroke-linejoin="round"/>
</g>
<defs>
<clipPath id="clip0_1258_2400">
<rect width="402" height="247.502" fill="white" transform="translate(0 76)"/>
</clipPath>
</defs>
</svg>
