<svg width="402" height="400" viewBox="0 0 402 400" fill="none" xmlns="http://www.w3.org/2000/svg">
<path opacity="0.5" d="M294.319 93.6395C295.254 89.6778 292.8 85.7082 288.838 84.7732C284.876 83.8381 280.906 86.2917 279.971 90.2534C279.035 94.2151 281.489 98.1848 285.451 99.1198C289.414 100.055 293.384 97.6013 294.319 93.6395Z" fill="#FFD55D"/>
<g style="mix-blend-mode:multiply" opacity="0.25">
<path d="M383.385 30.4902L144.937 0.0929709C138.683 -0.704749 132.966 3.71929 132.168 9.97256L91.1359 331.787C90.3381 338.041 94.7626 343.757 101.017 344.554L339.464 374.952C345.718 375.749 351.435 371.325 352.233 365.072L393.265 43.2573C394.063 37.004 389.639 31.2879 383.385 30.4902Z" fill="#3A7EC1"/>
</g>
<path d="M337.039 372.381L98.1077 346.066C91.8413 345.375 87.3204 339.736 88.0111 333.47L123.534 11.0002C124.224 4.73442 129.864 0.214012 136.131 0.904655L375.062 27.2205C381.329 27.9111 385.85 33.5505 385.159 39.8162L349.635 362.286C348.944 368.552 343.304 373.072 337.037 372.381H337.039Z" fill="#245695"/>
<g style="mix-blend-mode:multiply" opacity="0.25">
<path d="M305.494 52.751H65.1147C58.8101 52.751 53.6992 57.8614 53.6992 64.1653V388.585C53.6992 394.889 58.8101 400 65.1147 400H305.494C311.798 400 316.909 394.889 316.909 388.585V64.1653C316.909 57.8614 311.798 52.751 305.494 52.751Z" fill="#3A7EC1"/>
</g>
<path d="M310.326 45.3936H69.9468C63.6422 45.3936 58.5312 50.5039 58.5312 56.8079V381.228C58.5312 387.532 63.6422 392.642 69.9468 392.642H310.326C316.63 392.642 321.741 387.532 321.741 381.228V56.8079C321.741 50.5039 316.63 45.3936 310.326 45.3936Z" fill="white"/>
<path d="M205.698 188.755C214.293 180.162 214.293 166.228 205.698 157.634C197.104 149.04 183.169 149.04 174.574 157.634C165.979 166.228 165.979 180.162 174.574 188.755C183.169 197.349 197.104 197.349 205.698 188.755Z" fill="#C64635"/>
<path d="M190.139 232.265C157.565 232.265 131.062 205.765 131.062 173.195C131.062 140.624 157.565 114.124 190.139 114.124C222.713 114.124 249.216 140.624 249.216 173.195C249.216 205.765 222.713 232.265 190.139 232.265ZM190.139 126.752C164.527 126.752 143.692 147.585 143.692 173.195C143.692 198.804 164.527 219.637 190.139 219.637C215.751 219.637 236.586 198.804 236.586 173.195C236.586 147.585 215.751 126.752 190.139 126.752Z" fill="#C64635"/>
<path d="M272.078 127.429C256.006 98.7471 225.299 79.3252 190.14 79.3252C138.378 79.3252 96.2637 121.435 96.2637 173.192C96.2637 224.949 138.378 267.059 190.14 267.059C212.644 267.059 233.323 259.094 249.506 245.852C270.563 228.62 284.016 202.445 284.016 173.192C284.016 156.59 279.679 140.974 272.078 127.429ZM241.531 236.062C227.521 247.544 209.614 254.431 190.138 254.431C145.338 254.431 108.891 217.987 108.891 173.192C108.891 128.397 145.338 91.9531 190.138 91.9531C220.565 91.9531 247.137 108.764 261.055 133.583C267.63 145.302 271.385 158.813 271.385 173.192C271.385 198.507 259.742 221.16 241.53 236.062H241.531Z" fill="#C64635"/>
<g style="mix-blend-mode:multiply" opacity="0.25">
<path d="M193.361 174.977L182.831 161.983C182.465 161.533 181.749 161.646 181.542 162.188L179.425 167.708L71.2368 126.219L69.3592 114.559C69.1432 113.222 67.8849 112.314 66.5499 112.53C65.2131 112.744 64.3046 114.002 64.5206 115.339L65.9467 124.19L61.3258 122.418L59.4482 110.758C59.2323 109.421 57.974 108.513 56.639 108.729C55.3022 108.943 54.3937 110.201 54.6097 111.537L56.4855 123.187L47.3009 130.595C46.2479 131.445 46.0819 132.988 46.9315 134.041C47.2117 134.389 47.5687 134.641 47.9595 134.791C48.7484 135.093 49.6729 134.98 50.3779 134.411L59.5714 126.996L64.1922 128.768L57.2119 134.397C56.1589 135.246 55.9929 136.79 56.8424 137.843C57.1226 138.191 57.4796 138.442 57.8705 138.592C58.6594 138.894 59.5839 138.781 60.2889 138.212L69.4823 130.797L177.671 172.286L175.554 177.805C175.347 178.346 175.802 178.91 176.375 178.819L192.895 176.197C193.468 176.106 193.727 175.43 193.363 174.978L193.361 174.977Z" fill="#3A7EC1"/>
</g>
<path d="M193.497 174.964L188.571 158.981C188.4 158.426 187.693 158.266 187.298 158.691L183.276 163.024L98.3535 84.1993L100.959 72.6797C101.257 71.3591 100.429 70.0474 99.1102 69.7493C97.7895 69.4513 96.4777 70.2794 96.1796 71.5982L94.2021 80.3445L90.5736 76.977L93.1794 65.4574C93.4774 64.1367 92.6493 62.8251 91.3303 62.527C90.0096 62.229 88.6978 63.0571 88.3997 64.3759L85.7975 75.8848L74.5122 79.3345C73.2183 79.7306 72.4901 81.0994 72.8845 82.3951C73.0148 82.8234 73.2522 83.1892 73.5592 83.473C74.1785 84.0476 75.078 84.2867 75.9454 84.0208L87.2414 80.5676L90.8699 83.9352L82.2939 86.5568C81 86.9529 80.2718 88.3217 80.6662 89.6174C80.7965 90.0457 81.0339 90.4115 81.3409 90.6953C81.9602 91.2699 82.8597 91.5091 83.7271 91.2431L95.0231 87.7899L179.945 166.614L175.922 170.947C175.528 171.372 175.742 172.066 176.306 172.195L192.612 175.921C193.178 176.049 193.67 175.519 193.501 174.964H193.497Z" fill="#282828"/>
<path d="M112.905 306.636H93.1191V350.834H112.905V306.636Z" fill="#E4ECF9"/>
<path d="M156.47 291.484H136.684V350.835H156.47V291.484Z" fill="#E4ECF9"/>
<path d="M200.03 319.265H180.244V350.834H200.03V319.265Z" fill="#E4ECF9"/>
<path d="M243.591 304.111H223.805V350.834H243.591V304.111Z" fill="#E4ECF9"/>
<path d="M287.155 297.376H267.369V350.834H287.155V297.376Z" fill="#E4ECF9"/>
<g style="mix-blend-mode:multiply" opacity="0.25">
<path d="M31.8206 232.264C27.6584 234.431 23.7962 237.356 20.4443 241.014C5.09157 257.784 6.2374 283.833 23.0162 299.189C39.7879 314.54 65.8387 313.395 81.1968 296.617C83.4028 294.203 85.2804 291.59 86.8117 288.851L50.8215 268.815L31.8224 232.263L31.8206 232.264Z" fill="#3A7EC1"/>
</g>
<path d="M33.2932 223.033C29.1311 225.199 25.2688 228.124 21.917 231.782C6.56422 248.552 7.71006 274.601 24.4889 289.957C41.2605 305.308 67.3113 304.163 82.6694 287.385C84.8754 284.971 86.753 282.358 88.2844 279.619L52.2941 259.583L33.295 223.031L33.2932 223.033Z" fill="#FFD55D"/>
<g style="mix-blend-mode:multiply" opacity="0.25">
<path d="M31.9531 223.537L53.699 258.524L88.5292 236.541C86.0787 232.651 82.9232 229.103 79.093 226.108C65.1002 215.149 46.2297 214.676 31.9531 223.535V223.537Z" fill="#3A7EC1"/>
</g>
<path d="M35.4473 215.918L54.9211 252.219L91.0792 232.497C88.8803 228.458 85.9586 224.716 82.3266 221.486C69.0584 209.659 50.2575 207.985 35.4473 215.918Z" fill="#5897F2"/>
<g style="mix-blend-mode:multiply" opacity="0.25">
<path d="M93.4748 289.174C101.744 277.895 103.652 263.156 98.756 250.244L60.2402 264.837L93.473 289.172L93.4748 289.174Z" fill="#3A7EC1"/>
</g>
<path d="M94.5694 277.221C101.22 264.918 101.093 250.058 94.4784 237.937L58.3203 257.658L94.5694 277.221Z" fill="#282828"/>
<path d="M17.7103 220.245C20.7789 220.245 23.2664 217.758 23.2664 214.69C23.2664 211.622 20.7789 209.134 17.7103 209.134C14.6418 209.134 12.1543 211.622 12.1543 214.69C12.1543 217.758 14.6418 220.245 17.7103 220.245Z" fill="#FFD55D"/>
<path d="M26.6287 200.8C27.9216 199.507 27.9217 197.411 26.6287 196.118C25.3358 194.825 23.2395 194.825 21.9465 196.118C20.6536 197.411 20.6536 199.507 21.9466 200.8C23.2395 202.093 25.3358 202.093 26.6287 200.8Z" fill="#FFD55D"/>
</svg>
