<svg width="402" height="400" viewBox="0 0 402 400" fill="none" xmlns="http://www.w3.org/2000/svg">
<path d="M177.401 101.855C177.401 101.855 164.683 80.6637 152.572 78.8403C140.462 77.026 139.854 92.1664 135.01 95.1872C130.166 98.208 123.507 89.1274 116.241 92.1573C108.975 95.1872 111.397 100.639 107.16 103.061C102.924 105.483 102.316 98.8249 93.2355 102.454C84.1549 106.091 81.125 112.75 81.125 112.75H187.098L177.41 101.846L177.401 101.855Z" fill="#5897F2"/>
<path d="M338.476 233.256C338.476 233.256 328.179 216.302 320.913 218.724C313.647 221.146 312.431 230.834 307.587 231.442C302.743 232.05 300.321 225.382 296.084 227.804C291.848 230.226 290.025 235.678 285.788 236.286C281.552 236.894 280.944 233.864 276.708 235.071C272.471 236.277 269.441 241.729 269.441 241.729H353.616C353.616 241.729 353.498 233.084 348.164 231.433C344.254 230.226 341.506 232.648 338.476 233.247V233.256Z" fill="#5897F2"/>
<path d="M370.505 36.5131C370.505 36.5131 360.209 19.5584 352.942 21.9805C345.676 24.4026 344.461 34.091 339.616 34.6987C334.772 35.3065 332.35 28.639 328.114 31.0611C323.877 33.4832 322.054 38.9351 317.818 39.5429C313.581 40.1507 312.973 37.1208 308.737 38.3274C304.501 39.5339 301.471 44.9858 301.471 44.9858H385.645C385.645 44.9858 385.527 36.3407 380.193 34.6897C376.284 33.4832 373.535 35.9053 370.505 36.504V36.5131Z" fill="#5897F2"/>
<path d="M74.0675 341.769C74.0675 341.769 63.7713 324.814 56.505 327.236C49.2387 329.658 48.0231 339.347 43.1789 339.955C38.3347 340.562 35.9126 333.895 31.6763 336.317C27.4399 338.739 25.6165 344.191 21.3801 344.799C17.1437 345.407 16.5359 342.377 12.2995 343.583C8.06309 344.79 5.0332 350.242 5.0332 350.242H89.2078C89.2078 350.242 89.0899 341.597 83.7558 339.946C79.846 338.739 77.0973 341.161 74.0675 341.76V341.769Z" fill="#5897F2"/>
<path d="M197.674 161.799V95.8311" stroke="#DED8D5" stroke-linecap="round" stroke-linejoin="round"/>
<path d="M240.745 165.682L240.654 145.942L244.945 158.651C244.945 158.651 240.972 163.849 240.745 165.682Z" fill="white" stroke="#DED8D5" stroke-linecap="round" stroke-linejoin="round"/>
<path d="M244.947 158.651C244.947 158.651 238.969 164.167 241.273 167.614C243.568 171.061 248.394 167.841 258.046 167.841C267.698 167.841 275.282 174.508 275.282 174.508V142.341C275.282 142.341 274.82 138.431 268.615 136.136C262.41 133.841 247.015 135.673 244.258 131.31C241.5 126.946 243.341 119.589 243.341 119.589C243.341 119.589 238.289 129.704 240.121 137.515C241.953 145.325 244.947 158.651 244.947 158.651Z" fill="white" stroke="#DED8D5" stroke-linecap="round" stroke-linejoin="round"/>
<path d="M197.836 98.0718C197.836 98.0718 201.392 101.973 208.014 102.735C223.418 104.494 226.33 103.27 233.687 104.875C241.044 106.481 244.944 112.922 244.944 112.922V158.651C244.944 158.651 242.649 151.757 232.997 150.841C223.345 149.925 214.609 150.614 206.799 150.151C198.988 149.689 197.836 148.31 197.836 148.31V98.0718Z" fill="white" stroke="#DED8D5" stroke-linecap="round" stroke-linejoin="round"/>
<path d="M243.949 146.859V132.943C243.477 132.272 242.996 131.618 242.479 130.983L239.34 127.264C238.633 126.384 238.007 125.504 237.453 124.624C236.9 123.744 236.619 122.719 236.619 121.558C236.619 120.905 236.8 120.37 237.163 119.952C237.526 119.535 238.061 119.435 238.769 119.626C239.449 119.816 239.957 120.161 240.284 120.669C240.61 121.177 240.837 121.812 240.964 122.565C241.091 123.327 241.164 124.171 241.191 125.114L243.949 125.586V118.156C243.731 117.911 243.504 117.666 243.25 117.431C242.379 116.614 241.263 115.952 239.903 115.444V112.078L238.088 111.507V114.872C235.82 114.328 234.006 114.51 232.664 115.408C231.312 116.306 230.641 117.939 230.641 120.306C230.641 121.54 230.813 122.665 231.149 123.681C231.493 124.697 231.947 125.649 232.528 126.538C233.108 127.427 233.761 128.325 234.496 129.242L237.707 133.024C238.741 134.231 239.558 135.365 240.148 136.426C240.737 137.488 241.037 138.658 241.037 139.946C241.037 140.599 240.891 141.134 240.601 141.552C240.311 141.969 239.776 142.051 238.995 141.797C238.315 141.579 237.762 141.198 237.335 140.645C236.909 140.091 236.582 139.356 236.374 138.449C236.156 137.533 236.029 136.444 235.975 135.165L230.641 134.385C230.74 137.515 231.439 140.073 232.718 142.042C234.006 144.01 235.947 145.462 238.542 146.387V149.907L240.356 150.478V146.922C241.735 147.23 242.933 147.212 243.949 146.859Z" fill="#1CB15F"/>
<path d="M345.53 394.638L275.344 283.93L256.058 292.992L197.673 161.8L129.102 281.544L118.388 265.324L37.1074 394.638H345.53Z" fill="#1C7A52"/>
<path d="M118.389 265.324L126.988 288.901L122.661 311.734L129.456 296.92L133.774 304.332L124.521 382.701L143.644 309.884L135.008 293.836L135.625 272.237L129.102 281.544L118.389 265.324Z" fill="#1CB15F"/>
<path d="M212.143 194.484L239.294 303.715L231.891 305.565L223.255 281.498L220.171 289.518L224.489 329.632L218.937 334.567L222.638 394.43L256.575 349.381L275.552 387.2L314.46 367.496L341.239 387.481L275.344 283.93L256.058 292.992L212.143 194.484Z" fill="#1CB15F"/>
<path d="M223.24 193.872C225.428 184.68 219.75 175.454 210.558 173.266C201.366 171.078 192.14 176.756 189.952 185.948C187.764 195.14 193.442 204.366 202.634 206.554C211.826 208.742 221.052 203.064 223.24 193.872Z" stroke="#F4AC1C" stroke-linecap="round" stroke-linejoin="round"/>
<path d="M110.393 189.922H189.496" stroke="#F4AC1C" stroke-linecap="round" stroke-linejoin="round"/>
<path d="M32.6387 189.922H110.391" stroke="#F4AC1C" stroke-width="5" stroke-linecap="round" stroke-linejoin="round"/>
<path d="M125.756 184.606V195.628" stroke="#F4AC1C" stroke-linecap="round" stroke-linejoin="round"/>
<path d="M134.285 184.606V195.628" stroke="#F4AC1C" stroke-linecap="round" stroke-linejoin="round"/>
<path d="M142.811 184.606V195.628" stroke="#F4AC1C" stroke-linecap="round" stroke-linejoin="round"/>
<path d="M151.34 184.606V195.628" stroke="#F4AC1C" stroke-linecap="round" stroke-linejoin="round"/>
<path d="M159.865 184.606V195.628" stroke="#F4AC1C" stroke-linecap="round" stroke-linejoin="round"/>
<path d="M168.385 184.606V195.628" stroke="#F4AC1C" stroke-linecap="round" stroke-linejoin="round"/>
<path d="M206.6 93.7095V172.813" stroke="#F4AC1C" stroke-linecap="round" stroke-linejoin="round"/>
<path d="M206.6 15.9668V93.7097" stroke="#F4AC1C" stroke-width="5" stroke-linecap="round" stroke-linejoin="round"/>
<path d="M211.918 109.077H200.896" stroke="#F4AC1C" stroke-linecap="round" stroke-linejoin="round"/>
<path d="M211.918 117.604H200.896" stroke="#F4AC1C" stroke-linecap="round" stroke-linejoin="round"/>
<path d="M211.918 126.131H200.896" stroke="#F4AC1C" stroke-linecap="round" stroke-linejoin="round"/>
<path d="M211.918 134.658H200.896" stroke="#F4AC1C" stroke-linecap="round" stroke-linejoin="round"/>
<path d="M211.918 143.186H200.896" stroke="#F4AC1C" stroke-linecap="round" stroke-linejoin="round"/>
<path d="M211.918 151.713H200.896" stroke="#F4AC1C" stroke-linecap="round" stroke-linejoin="round"/>
<path d="M302.813 189.922H223.709" stroke="#F4AC1C" stroke-linecap="round" stroke-linejoin="round"/>
<path d="M380.557 189.922H302.814" stroke="#F4AC1C" stroke-width="5" stroke-linecap="round" stroke-linejoin="round"/>
<path d="M287.447 195.247V184.216" stroke="#F4AC1C" stroke-linecap="round" stroke-linejoin="round"/>
<path d="M278.918 195.247V184.216" stroke="#F4AC1C" stroke-linecap="round" stroke-linejoin="round"/>
<path d="M270.393 195.247V184.216" stroke="#F4AC1C" stroke-linecap="round" stroke-linejoin="round"/>
<path d="M261.867 195.247V184.216" stroke="#F4AC1C" stroke-linecap="round" stroke-linejoin="round"/>
<path d="M253.338 195.247V184.216" stroke="#F4AC1C" stroke-linecap="round" stroke-linejoin="round"/>
<path d="M244.812 195.247V184.216" stroke="#F4AC1C" stroke-linecap="round" stroke-linejoin="round"/>
<path d="M206.598 286.134V207.031" stroke="#F4AC1C" stroke-linecap="round" stroke-linejoin="round"/>
<path d="M206.598 363.877V286.134" stroke="#F4AC1C" stroke-width="5" stroke-linecap="round" stroke-linejoin="round"/>
<path d="M201.277 270.768H212.308" stroke="#F4AC1C" stroke-linecap="round" stroke-linejoin="round"/>
<path d="M201.277 262.24H212.308" stroke="#F4AC1C" stroke-linecap="round" stroke-linejoin="round"/>
<path d="M201.277 253.713H212.308" stroke="#F4AC1C" stroke-linecap="round" stroke-linejoin="round"/>
<path d="M201.277 245.186H212.308" stroke="#F4AC1C" stroke-linecap="round" stroke-linejoin="round"/>
<path d="M201.277 236.659H212.308" stroke="#F4AC1C" stroke-linecap="round" stroke-linejoin="round"/>
<path d="M201.277 228.14H212.308" stroke="#F4AC1C" stroke-linecap="round" stroke-linejoin="round"/>
<path d="M206.601 0C101.707 0 16.6797 85.0273 16.6797 189.921C16.6797 294.815 101.707 379.843 206.601 379.843C311.495 379.843 396.522 294.815 396.522 189.921C396.522 85.0273 311.495 0 206.601 0ZM206.601 352.664C116.72 352.664 43.858 279.802 43.858 189.921C43.858 100.041 116.72 27.1873 206.601 27.1873C296.482 27.1873 369.344 100.05 369.344 189.93C369.344 279.811 296.482 352.673 206.601 352.673V352.664Z" fill="#FFD55D"/>
</svg>
